<svg width="272" height="28" viewBox="0 0 272 28" fill="none" xmlns="http://www.w3.org/2000/svg">
<path d="M23.94 26.5H18.54L17.028 21.964H6.984L5.472 26.5H0.108L8.928 1.3H15.084L23.94 26.5ZM12.024 7.024L8.568 17.32H15.48L12.024 7.024ZM39.3227 10.624V1.3H43.9667V26.5H39.3227V24.376C37.9547 26.14 36.0107 27.004 33.4907 27.004C31.0787 27.004 28.9907 26.104 27.2627 24.268C25.5707 22.432 24.7067 20.164 24.7067 17.5C24.7067 14.836 25.5707 12.604 27.2627 10.768C28.9907 8.932 31.0787 7.996 33.4907 7.996C36.0107 7.996 37.9547 8.86 39.3227 10.624ZM30.7547 21.172C31.7267 22.108 32.9147 22.576 34.3547 22.576C35.7947 22.576 36.9827 22.108 37.9187 21.172C38.8547 20.2 39.3227 18.976 39.3227 17.5C39.3227 16.024 38.8547 14.8 37.9187 13.864C36.9827 12.892 35.7947 12.424 34.3547 12.424C32.9147 12.424 31.7267 12.892 30.7547 13.864C29.8187 14.8 29.3507 16.024 29.3507 17.5C29.3507 18.976 29.8187 20.2 30.7547 21.172ZM68.1218 7.996C72.2618 7.996 74.9258 10.912 74.9258 15.412V26.5H70.2818V15.736C70.2818 13.576 69.1658 12.316 67.2578 12.316C65.1338 12.316 63.9098 13.756 63.9098 16.384V26.5H59.2658V15.736C59.2658 13.576 58.1498 12.316 56.2418 12.316C54.1898 12.316 52.8578 13.756 52.8578 16.384V26.5H48.2138V8.5H52.8578V10.408C53.9378 8.788 55.5938 7.996 57.8618 7.996C60.0578 7.996 61.7138 8.86 62.7578 10.588C63.9458 8.86 65.7458 7.996 68.1218 7.996ZM81.1741 6.34C79.6261 6.34 78.3301 5.044 78.3301 3.496C78.3301 1.948 79.6261 0.615999 81.1741 0.615999C82.7581 0.615999 84.0541 1.948 84.0541 3.496C84.0541 5.044 82.7581 6.34 81.1741 6.34ZM83.5141 26.5H78.8701V8.5H83.5141V26.5ZM97.7726 7.996C99.7526 7.996 101.373 8.644 102.633 9.976C103.929 11.308 104.577 13.108 104.577 15.448V26.5H99.9326V16.024C99.9326 13.612 98.5286 12.316 96.3686 12.316C93.9566 12.316 92.4086 13.792 92.4086 16.78V26.5H87.7646V8.5H92.4086V10.516C93.5246 8.824 95.3246 7.996 97.7726 7.996ZM110.846 6.34C109.298 6.34 108.002 5.044 108.002 3.496C108.002 1.948 109.298 0.615999 110.846 0.615999C112.43 0.615999 113.726 1.948 113.726 3.496C113.726 5.044 112.43 6.34 110.846 6.34ZM113.186 26.5H108.542V8.5H113.186V26.5ZM121.58 13.612C121.58 14.584 123.02 15.124 124.856 15.592C127.484 16.132 130.904 17.392 130.868 21.244C130.868 23.08 130.184 24.52 128.78 25.528C127.412 26.5 125.684 27.004 123.632 27.004C119.924 27.004 117.404 25.564 116.072 22.72L120.104 20.452C120.644 22 121.796 22.792 123.632 22.792C125.288 22.792 126.116 22.288 126.116 21.244C126.116 20.272 124.676 19.732 122.84 19.264C120.176 18.58 116.828 17.464 116.828 13.72C116.828 11.956 117.476 10.552 118.772 9.544C120.104 8.5 121.724 7.996 123.668 7.996C126.584 7.996 129.104 9.364 130.508 11.812L126.548 13.972C125.972 12.748 125 12.136 123.668 12.136C122.48 12.136 121.58 12.712 121.58 13.612ZM143.623 8.5V12.964H139.555V20.452C139.555 22.396 140.959 22.432 143.623 22.288V26.5C137.251 27.22 134.911 25.384 134.911 20.452V12.964H131.779V8.5H134.911V4.864L139.555 3.46V8.5H143.623ZM151.823 8.5V11.596C152.687 9.292 154.847 8.14 157.295 8.14V13.324C155.891 13.144 154.595 13.432 153.479 14.188C152.363 14.944 151.823 16.168 151.823 17.896V26.5H147.179V8.5H151.823ZM173.023 10.624V8.5H177.667V26.5H173.023V24.376C171.619 26.14 169.675 27.004 167.155 27.004C164.743 27.004 162.691 26.104 160.963 24.268C159.271 22.432 158.407 20.164 158.407 17.5C158.407 14.836 159.271 12.604 160.963 10.768C162.691 8.932 164.743 7.996 167.155 7.996C169.675 7.996 171.619 8.86 173.023 10.624ZM164.455 21.172C165.391 22.108 166.579 22.576 168.019 22.576C169.459 22.576 170.647 22.108 171.583 21.172C172.555 20.2 173.023 18.976 173.023 17.5C173.023 16.024 172.555 14.8 171.583 13.864C170.647 12.892 169.459 12.424 168.019 12.424C166.579 12.424 165.391 12.892 164.455 13.864C163.519 14.8 163.051 16.024 163.051 17.5C163.051 18.976 163.519 20.2 164.455 21.172ZM195.522 10.624V1.3H200.166V26.5H195.522V24.376C194.154 26.14 192.21 27.004 189.69 27.004C187.278 27.004 185.19 26.104 183.462 24.268C181.77 22.432 180.906 20.164 180.906 17.5C180.906 14.836 181.77 12.604 183.462 10.768C185.19 8.932 187.278 7.996 189.69 7.996C192.21 7.996 194.154 8.86 195.522 10.624ZM186.954 21.172C187.926 22.108 189.114 22.576 190.554 22.576C191.994 22.576 193.182 22.108 194.118 21.172C195.054 20.2 195.522 18.976 195.522 17.5C195.522 16.024 195.054 14.8 194.118 13.864C193.182 12.892 191.994 12.424 190.554 12.424C189.114 12.424 187.926 12.892 186.954 13.864C186.018 14.8 185.55 16.024 185.55 17.5C185.55 18.976 186.018 20.2 186.954 21.172ZM219.749 24.268C217.913 26.104 215.645 27.004 212.981 27.004C210.317 27.004 208.049 26.104 206.213 24.268C204.377 22.432 203.477 20.164 203.477 17.5C203.477 14.836 204.377 12.604 206.213 10.768C208.049 8.932 210.317 7.996 212.981 7.996C215.645 7.996 217.913 8.932 219.749 10.768C221.585 12.604 222.521 14.836 222.521 17.5C222.521 20.164 221.585 22.432 219.749 24.268ZM209.489 21.064C210.425 22 211.577 22.468 212.981 22.468C214.385 22.468 215.537 22 216.473 21.064C217.409 20.128 217.877 18.94 217.877 17.5C217.877 16.06 217.409 14.872 216.473 13.936C215.537 13 214.385 12.532 212.981 12.532C211.577 12.532 210.425 13 209.489 13.936C208.589 14.872 208.121 16.06 208.121 17.5C208.121 18.94 208.589 20.128 209.489 21.064ZM230.432 8.5V11.596C231.296 9.292 233.456 8.14 235.904 8.14V13.324C234.5 13.144 233.204 13.432 232.088 14.188C230.972 14.944 230.432 16.168 230.432 17.896V26.5H225.788V8.5H230.432ZM255.448 19.408H241.876C242.488 21.676 244.18 22.792 246.952 22.792C248.716 22.792 250.084 22.18 250.984 20.992L254.728 23.152C252.964 25.708 250.336 27.004 246.88 27.004C243.892 27.004 241.516 26.104 239.716 24.304C237.916 22.504 237.016 20.236 237.016 17.5C237.016 14.8 237.916 12.532 239.68 10.732C241.444 8.896 243.748 7.996 246.52 7.996C249.148 7.996 251.344 8.896 253.036 10.732C254.764 12.568 255.628 14.8 255.628 17.5C255.628 18.112 255.556 18.724 255.448 19.408ZM241.804 15.808H250.984C250.444 13.36 248.644 12.172 246.52 12.172C244.036 12.172 242.344 13.504 241.804 15.808ZM262.451 13.612C262.451 14.584 263.891 15.124 265.727 15.592C268.355 16.132 271.775 17.392 271.739 21.244C271.739 23.08 271.055 24.52 269.651 25.528C268.283 26.5 266.555 27.004 264.503 27.004C260.795 27.004 258.275 25.564 256.943 22.72L260.975 20.452C261.515 22 262.667 22.792 264.503 22.792C266.159 22.792 266.987 22.288 266.987 21.244C266.987 20.272 265.547 19.732 263.711 19.264C261.047 18.58 257.699 17.464 257.699 13.72C257.699 11.956 258.347 10.552 259.643 9.544C260.975 8.5 262.595 7.996 264.539 7.996C267.455 7.996 269.975 9.364 271.379 11.812L267.419 13.972C266.843 12.748 265.871 12.136 264.539 12.136C263.351 12.136 262.451 12.712 262.451 13.612Z" fill="#292929"/>
</svg>
