<svg width="283" height="35" viewBox="0 0 283 35" fill="none" xmlns="http://www.w3.org/2000/svg">
<path d="M23.4 27H18.936L17.172 21.924H6.444L4.68 27H0.18L9.324 1.8H14.292L23.4 27ZM11.808 6.66L7.812 18.036H15.804L11.808 6.66ZM39.7288 11.664V9H43.5448V26.172C43.5448 28.908 42.6448 30.996 40.8448 32.472C39.0448 33.948 36.8488 34.668 34.2928 34.668C30.1528 34.668 27.3088 33.228 25.7608 30.312L29.1088 28.368C30.0448 30.204 31.8088 31.14 34.3648 31.14C37.7128 31.14 39.7288 29.304 39.7288 26.172V23.976C38.2528 26.064 36.1648 27.108 33.4648 27.108C30.9088 27.108 28.7848 26.208 27.0208 24.408C25.2568 22.572 24.3928 20.376 24.3928 17.82C24.3928 15.264 25.2568 13.068 27.0208 11.268C28.7848 9.432 30.9088 8.532 33.4648 8.532C36.1648 8.532 38.2528 9.576 39.7288 11.664ZM29.9008 21.852C31.0168 22.932 32.3848 23.472 34.0048 23.472C35.6248 23.472 36.9928 22.932 38.0728 21.852C39.1888 20.772 39.7288 19.44 39.7288 17.82C39.7288 16.2 39.1888 14.868 38.0728 13.788C36.9928 12.708 35.6248 12.168 34.0048 12.168C32.3848 12.168 31.0168 12.708 29.9008 13.788C28.8208 14.868 28.2808 16.2 28.2808 17.82C28.2808 19.44 28.8208 20.772 29.9008 21.852ZM51.9646 9V12.024C52.9366 9.792 54.8086 8.676 57.5086 8.676V12.888C56.0326 12.78 54.7366 13.14 53.6206 13.968C52.5046 14.76 51.9646 16.092 51.9646 17.928V27H48.0766V9H51.9646ZM76.9255 19.656H62.5975C63.1735 22.392 65.3695 23.904 68.3575 23.904C70.4095 23.904 71.9575 23.148 73.0015 21.672L76.2055 23.544C74.4415 26.172 71.8135 27.468 68.3215 27.468C65.4055 27.468 63.0295 26.568 61.2295 24.804C59.4295 23.004 58.5295 20.736 58.5295 18C58.5295 15.3 59.4295 13.068 61.1935 11.268C62.9575 9.432 65.2615 8.532 68.0335 8.532C70.6615 8.532 72.8215 9.468 74.5135 11.304C76.2055 13.14 77.0695 15.408 77.0695 18.036C77.0695 18.432 77.0335 18.972 76.9255 19.656ZM62.5615 16.488H73.1455C72.6055 13.572 70.5535 12.06 67.9975 12.06C65.1175 12.06 63.1015 13.752 62.5615 16.488ZM94.7132 11.664V9H98.5292V26.172C98.5292 28.908 97.6292 30.996 95.8292 32.472C94.0292 33.948 91.8332 34.668 89.2772 34.668C85.1372 34.668 82.2932 33.228 80.7452 30.312L84.0932 28.368C85.0292 30.204 86.7932 31.14 89.3492 31.14C92.6972 31.14 94.7132 29.304 94.7132 26.172V23.976C93.2372 26.064 91.1492 27.108 88.4492 27.108C85.8932 27.108 83.7692 26.208 82.0052 24.408C80.2412 22.572 79.3772 20.376 79.3772 17.82C79.3772 15.264 80.2412 13.068 82.0052 11.268C83.7692 9.432 85.8932 8.532 88.4492 8.532C91.1492 8.532 93.2372 9.576 94.7132 11.664ZM84.8852 21.852C86.0012 22.932 87.3692 23.472 88.9892 23.472C90.6092 23.472 91.9772 22.932 93.0572 21.852C94.1732 20.772 94.7132 19.44 94.7132 17.82C94.7132 16.2 94.1732 14.868 93.0572 13.788C91.9772 12.708 90.6092 12.168 88.9892 12.168C87.3692 12.168 86.0012 12.708 84.8852 13.788C83.8052 14.868 83.2652 16.2 83.2652 17.82C83.2652 19.44 83.8052 20.772 84.8852 21.852ZM117.317 11.556V9H121.205V27H117.317V24.408C115.841 26.46 113.753 27.468 111.017 27.468C108.533 27.468 106.445 26.568 104.681 24.732C102.917 22.896 102.053 20.628 102.053 18C102.053 15.336 102.917 13.104 104.681 11.268C106.445 9.432 108.533 8.532 111.017 8.532C113.753 8.532 115.841 9.54 117.317 11.556ZM107.561 22.14C108.641 23.22 110.009 23.76 111.629 23.76C113.249 23.76 114.617 23.22 115.697 22.14C116.777 21.024 117.317 19.656 117.317 18C117.317 16.344 116.777 14.976 115.697 13.896C114.617 12.78 113.249 12.24 111.629 12.24C110.009 12.24 108.641 12.78 107.561 13.896C106.481 14.976 105.941 16.344 105.941 18C105.941 19.656 106.481 21.024 107.561 22.14ZM129.625 9V12.024C130.597 9.792 132.469 8.676 135.169 8.676V12.888C133.693 12.78 132.397 13.14 131.281 13.968C130.165 14.76 129.625 16.092 129.625 17.928V27H125.737V9H129.625ZM155.681 27.468C150.821 27.468 147.293 25.128 145.961 21.276L149.525 19.188C150.533 22.032 152.621 23.436 155.789 23.436C158.921 23.436 160.469 22.104 160.469 20.124C160.469 19.08 160.037 18.324 159.209 17.784C158.381 17.244 156.869 16.632 154.745 15.984C152.333 15.264 151.145 14.796 149.453 13.68C147.833 12.528 147.005 10.872 147.005 8.604C147.005 6.372 147.797 4.608 149.381 3.312C150.965 1.98 152.873 1.332 155.105 1.332C159.137 1.332 162.269 3.42 163.889 6.876L160.397 8.892C159.353 6.552 157.589 5.364 155.105 5.364C152.693 5.364 151.145 6.588 151.145 8.496C151.145 10.368 152.369 11.232 156.221 12.42C157.193 12.744 157.877 12.96 158.309 13.14C158.777 13.284 159.389 13.536 160.181 13.86C161.009 14.184 161.621 14.544 162.017 14.868C163.349 15.912 164.789 17.64 164.609 20.052C164.609 22.32 163.781 24.156 162.125 25.488C160.505 26.82 158.345 27.468 155.681 27.468ZM180.091 18.648V9H183.979V27H180.091V24.696C178.903 26.532 177.067 27.468 174.511 27.468C170.371 27.468 167.599 24.66 167.599 20.052V9H171.487V19.656C171.487 22.356 173.035 23.832 175.519 23.832C178.255 23.832 180.091 22.14 180.091 18.648ZM197.022 27.468C194.322 27.468 192.054 26.568 190.218 24.732C188.418 22.896 187.518 20.664 187.518 18C187.518 15.3 188.418 13.068 190.218 11.268C192.054 9.432 194.322 8.532 197.022 8.532C200.514 8.532 203.61 10.332 205.05 13.176L201.702 15.12C200.874 13.392 199.146 12.348 196.986 12.348C195.402 12.348 194.07 12.888 192.99 13.968C191.946 15.048 191.406 16.38 191.406 18C191.406 19.62 191.946 20.952 192.99 22.032C194.07 23.112 195.402 23.652 196.986 23.652C199.11 23.652 200.91 22.572 201.774 20.88L205.122 22.788C203.574 25.668 200.514 27.468 197.022 27.468ZM220.17 18.648V9H224.058V27H220.17V24.696C218.982 26.532 217.146 27.468 214.59 27.468C210.45 27.468 207.678 24.66 207.678 20.052V9H211.566V19.656C211.566 22.356 213.114 23.832 215.598 23.832C218.334 23.832 220.17 22.14 220.17 18.648ZM232.492 9V12.024C233.464 9.792 235.336 8.676 238.036 8.676V12.888C236.56 12.78 235.264 13.14 234.148 13.968C233.032 14.76 232.492 16.092 232.492 17.928V27H228.604V9H232.492ZM243.768 13.968C243.768 15.156 245.28 15.768 247.152 16.308C249.924 16.92 253.524 18.072 253.452 21.924C253.452 23.652 252.768 25.02 251.436 25.992C250.104 26.964 248.448 27.468 246.432 27.468C242.868 27.468 240.24 25.884 239.088 23.256L242.436 21.312C243.048 23.04 244.38 23.904 246.432 23.904C248.484 23.904 249.492 23.22 249.492 21.888C249.492 20.736 247.98 20.052 246.072 19.584C243.372 18.9 239.736 17.82 239.808 14.04C239.808 12.384 240.42 11.052 241.68 10.044C242.94 9.036 244.524 8.532 246.396 8.532C249.384 8.532 251.796 9.936 253.056 12.276L249.78 14.112C249.168 12.744 248.016 12.06 246.396 12.06C244.92 12.06 243.768 12.708 243.768 13.968ZM270.669 11.556V9H274.557V27H270.669V24.408C269.193 26.46 267.105 27.468 264.369 27.468C261.885 27.468 259.797 26.568 258.033 24.732C256.269 22.896 255.405 20.628 255.405 18C255.405 15.336 256.269 13.104 258.033 11.268C259.797 9.432 261.885 8.532 264.369 8.532C267.105 8.532 269.193 9.54 270.669 11.556ZM260.913 22.14C261.993 23.22 263.361 23.76 264.981 23.76C266.601 23.76 267.969 23.22 269.049 22.14C270.129 21.024 270.669 19.656 270.669 18C270.669 16.344 270.129 14.976 269.049 13.896C267.969 12.78 266.601 12.24 264.981 12.24C263.361 12.24 261.993 12.78 260.913 13.896C259.833 14.976 259.293 16.344 259.293 18C259.293 19.656 259.833 21.024 260.913 22.14ZM282.976 27H279.088V0.719999H282.976V27Z" fill="#292929"/>
</svg>
