<svg width="320" height="34" viewBox="0 0 320 34" fill="none" xmlns="http://www.w3.org/2000/svg">
<path d="M23.4 26H18.936L17.172 20.924H6.444L4.68 26H0.18L9.324 0.799998H14.292L23.4 26ZM11.808 5.66L7.812 17.036H15.804L11.808 5.66ZM39.7288 10.664V8H43.5448V25.172C43.5448 27.908 42.6448 29.996 40.8448 31.472C39.0448 32.948 36.8488 33.668 34.2928 33.668C30.1528 33.668 27.3088 32.228 25.7608 29.312L29.1088 27.368C30.0448 29.204 31.8088 30.14 34.3648 30.14C37.7128 30.14 39.7288 28.304 39.7288 25.172V22.976C38.2528 25.064 36.1648 26.108 33.4648 26.108C30.9088 26.108 28.7848 25.208 27.0208 23.408C25.2568 21.572 24.3928 19.376 24.3928 16.82C24.3928 14.264 25.2568 12.068 27.0208 10.268C28.7848 8.432 30.9088 7.532 33.4648 7.532C36.1648 7.532 38.2528 8.576 39.7288 10.664ZM29.9008 20.852C31.0168 21.932 32.3848 22.472 34.0048 22.472C35.6248 22.472 36.9928 21.932 38.0728 20.852C39.1888 19.772 39.7288 18.44 39.7288 16.82C39.7288 15.2 39.1888 13.868 38.0728 12.788C36.9928 11.708 35.6248 11.168 34.0048 11.168C32.3848 11.168 31.0168 11.708 29.9008 12.788C28.8208 13.868 28.2808 15.2 28.2808 16.82C28.2808 18.44 28.8208 19.772 29.9008 20.852ZM51.9646 8V11.024C52.9366 8.792 54.8086 7.676 57.5086 7.676V11.888C56.0326 11.78 54.7366 12.14 53.6206 12.968C52.5046 13.76 51.9646 15.092 51.9646 16.928V26H48.0766V8H51.9646ZM76.9255 18.656H62.5975C63.1735 21.392 65.3695 22.904 68.3575 22.904C70.4095 22.904 71.9575 22.148 73.0015 20.672L76.2055 22.544C74.4415 25.172 71.8135 26.468 68.3215 26.468C65.4055 26.468 63.0295 25.568 61.2295 23.804C59.4295 22.004 58.5295 19.736 58.5295 17C58.5295 14.3 59.4295 12.068 61.1935 10.268C62.9575 8.432 65.2615 7.532 68.0335 7.532C70.6615 7.532 72.8215 8.468 74.5135 10.304C76.2055 12.14 77.0695 14.408 77.0695 17.036C77.0695 17.432 77.0335 17.972 76.9255 18.656ZM62.5615 15.488H73.1455C72.6055 12.572 70.5535 11.06 67.9975 11.06C65.1175 11.06 63.1015 12.752 62.5615 15.488ZM94.7132 10.664V8H98.5292V25.172C98.5292 27.908 97.6292 29.996 95.8292 31.472C94.0292 32.948 91.8332 33.668 89.2772 33.668C85.1372 33.668 82.2932 32.228 80.7452 29.312L84.0932 27.368C85.0292 29.204 86.7932 30.14 89.3492 30.14C92.6972 30.14 94.7132 28.304 94.7132 25.172V22.976C93.2372 25.064 91.1492 26.108 88.4492 26.108C85.8932 26.108 83.7692 25.208 82.0052 23.408C80.2412 21.572 79.3772 19.376 79.3772 16.82C79.3772 14.264 80.2412 12.068 82.0052 10.268C83.7692 8.432 85.8932 7.532 88.4492 7.532C91.1492 7.532 93.2372 8.576 94.7132 10.664ZM84.8852 20.852C86.0012 21.932 87.3692 22.472 88.9892 22.472C90.6092 22.472 91.9772 21.932 93.0572 20.852C94.1732 19.772 94.7132 18.44 94.7132 16.82C94.7132 15.2 94.1732 13.868 93.0572 12.788C91.9772 11.708 90.6092 11.168 88.9892 11.168C87.3692 11.168 86.0012 11.708 84.8852 12.788C83.8052 13.868 83.2652 15.2 83.2652 16.82C83.2652 18.44 83.8052 19.772 84.8852 20.852ZM117.317 10.556V8H121.205V26H117.317V23.408C115.841 25.46 113.753 26.468 111.017 26.468C108.533 26.468 106.445 25.568 104.681 23.732C102.917 21.896 102.053 19.628 102.053 17C102.053 14.336 102.917 12.104 104.681 10.268C106.445 8.432 108.533 7.532 111.017 7.532C113.753 7.532 115.841 8.54 117.317 10.556ZM107.561 21.14C108.641 22.22 110.009 22.76 111.629 22.76C113.249 22.76 114.617 22.22 115.697 21.14C116.777 20.024 117.317 18.656 117.317 17C117.317 15.344 116.777 13.976 115.697 12.896C114.617 11.78 113.249 11.24 111.629 11.24C110.009 11.24 108.641 11.78 107.561 12.896C106.481 13.976 105.941 15.344 105.941 17C105.941 18.656 106.481 20.024 107.561 21.14ZM129.625 8V11.024C130.597 8.792 132.469 7.676 135.169 7.676V11.888C133.693 11.78 132.397 12.14 131.281 12.968C130.165 13.76 129.625 15.092 129.625 16.928V26H125.737V8H129.625ZM157.409 26H152.621L145.493 0.799998H149.849L155.141 20.492L160.865 0.799998H164.681L170.369 20.492L175.661 0.799998H180.017L172.889 26H168.101L162.773 7.604L157.409 26ZM191.771 7.532C195.911 7.532 198.683 10.34 198.683 14.948V26H194.795V15.344C194.795 12.644 193.247 11.168 190.763 11.168C188.027 11.168 186.191 12.86 186.191 16.352V26H182.303V0.799998H186.191V10.304C187.379 8.468 189.215 7.532 191.771 7.532ZM217.126 10.556V8H221.014V26H217.126V23.408C215.65 25.46 213.562 26.468 210.826 26.468C208.342 26.468 206.254 25.568 204.49 23.732C202.726 21.896 201.862 19.628 201.862 17C201.862 14.336 202.726 12.104 204.49 10.268C206.254 8.432 208.342 7.532 210.826 7.532C213.562 7.532 215.65 8.54 217.126 10.556ZM207.37 21.14C208.45 22.22 209.818 22.76 211.438 22.76C213.058 22.76 214.426 22.22 215.506 21.14C216.586 20.024 217.126 18.656 217.126 17C217.126 15.344 216.586 13.976 215.506 12.896C214.426 11.78 213.058 11.24 211.438 11.24C209.818 11.24 208.45 11.78 207.37 12.896C206.29 13.976 205.75 15.344 205.75 17C205.75 18.656 206.29 20.024 207.37 21.14ZM235.589 8V11.744H231.125V20.384C231.125 22.688 232.637 22.652 235.589 22.508V26C229.649 26.72 227.237 25.1 227.237 20.384V11.744H223.925V8H227.237V4.112L231.125 2.96V8H235.589ZM241.94 12.968C241.94 14.156 243.452 14.768 245.324 15.308C248.096 15.92 251.696 17.072 251.624 20.924C251.624 22.652 250.94 24.02 249.608 24.992C248.276 25.964 246.62 26.468 244.604 26.468C241.04 26.468 238.412 24.884 237.26 22.256L240.608 20.312C241.22 22.04 242.552 22.904 244.604 22.904C246.656 22.904 247.664 22.22 247.664 20.888C247.664 19.736 246.152 19.052 244.244 18.584C241.544 17.9 237.908 16.82 237.98 13.04C237.98 11.384 238.592 10.052 239.852 9.044C241.112 8.036 242.696 7.532 244.568 7.532C247.556 7.532 249.968 8.936 251.228 11.276L247.952 13.112C247.34 11.744 246.188 11.06 244.568 11.06C243.092 11.06 241.94 11.708 241.94 12.968ZM268.84 10.556V8H272.728V26H268.84V23.408C267.364 25.46 265.276 26.468 262.54 26.468C260.056 26.468 257.968 25.568 256.204 23.732C254.44 21.896 253.576 19.628 253.576 17C253.576 14.336 254.44 12.104 256.204 10.268C257.968 8.432 260.056 7.532 262.54 7.532C265.276 7.532 267.364 8.54 268.84 10.556ZM259.084 21.14C260.164 22.22 261.532 22.76 263.152 22.76C264.772 22.76 266.14 22.22 267.22 21.14C268.3 20.024 268.84 18.656 268.84 17C268.84 15.344 268.3 13.976 267.22 12.896C266.14 11.78 264.772 11.24 263.152 11.24C261.532 11.24 260.164 11.78 259.084 12.896C258.004 13.976 257.464 15.344 257.464 17C257.464 18.656 258.004 20.024 259.084 21.14ZM287.448 7.532C289.932 7.532 292.02 8.468 293.784 10.304C295.548 12.14 296.412 14.372 296.412 17C296.412 19.664 295.548 21.896 293.784 23.732C292.02 25.568 289.932 26.468 287.448 26.468C284.712 26.468 282.624 25.46 281.148 23.444V33.2H277.26V8H281.148V10.592C282.624 8.54 284.712 7.532 287.448 7.532ZM282.768 21.14C283.848 22.22 285.216 22.76 286.836 22.76C288.456 22.76 289.824 22.22 290.904 21.14C291.984 20.024 292.524 18.656 292.524 17C292.524 15.344 291.984 13.976 290.904 12.896C289.824 11.78 288.456 11.24 286.836 11.24C285.216 11.24 283.848 11.78 282.768 12.896C281.688 13.976 281.148 15.344 281.148 17C281.148 18.656 281.688 20.024 282.768 21.14ZM310.124 7.532C312.608 7.532 314.696 8.468 316.46 10.304C318.224 12.14 319.088 14.372 319.088 17C319.088 19.664 318.224 21.896 316.46 23.732C314.696 25.568 312.608 26.468 310.124 26.468C307.388 26.468 305.3 25.46 303.824 23.444V33.2H299.936V8H303.824V10.592C305.3 8.54 307.388 7.532 310.124 7.532ZM305.444 21.14C306.524 22.22 307.892 22.76 309.512 22.76C311.132 22.76 312.5 22.22 313.58 21.14C314.66 20.024 315.2 18.656 315.2 17C315.2 15.344 314.66 13.976 313.58 12.896C312.5 11.78 311.132 11.24 309.512 11.24C307.892 11.24 306.524 11.78 305.444 12.896C304.364 13.976 303.824 15.344 303.824 17C303.824 18.656 304.364 20.024 305.444 21.14Z" fill="#292929"/>
</svg>
