<svg width="98" height="28" viewBox="0 0 98 28" fill="none" xmlns="http://www.w3.org/2000/svg">
<path d="M13.292 27.004C9.512 27.004 6.38 25.744 3.896 23.224C1.412 20.704 0.188 17.608 0.188 13.9C0.188 10.192 1.412 7.06 3.896 4.576C6.38 2.056 9.512 0.795998 13.292 0.795998C17.864 0.795998 21.968 3.1 24.128 6.736L19.844 9.22C18.584 6.952 16.172 5.62 13.292 5.62C10.844 5.62 8.864 6.376 7.352 7.924C5.876 9.472 5.12 11.452 5.12 13.9C5.12 16.312 5.876 18.292 7.352 19.84C8.864 21.388 10.844 22.144 13.292 22.144C16.172 22.144 18.656 20.776 19.844 18.58L24.128 21.064C21.968 24.7 17.9 27.004 13.292 27.004ZM37.2531 7.996C39.2331 7.996 40.8531 8.644 42.1131 9.976C43.4091 11.308 44.0571 13.108 44.0571 15.448V26.5H39.4131V16.024C39.4131 13.612 38.0091 12.316 35.8491 12.316C33.4371 12.316 31.8891 13.792 31.8891 16.78V26.5H27.2451V1.3H31.8891V10.516C33.0051 8.824 34.8051 7.996 37.2531 7.996ZM61.7024 10.624V8.5H66.3464V26.5H61.7024V24.376C60.2984 26.14 58.3544 27.004 55.8344 27.004C53.4224 27.004 51.3704 26.104 49.6424 24.268C47.9504 22.432 47.0864 20.164 47.0864 17.5C47.0864 14.836 47.9504 12.604 49.6424 10.768C51.3704 8.932 53.4224 7.996 55.8344 7.996C58.3544 7.996 60.2984 8.86 61.7024 10.624ZM53.1344 21.172C54.0704 22.108 55.2584 22.576 56.6984 22.576C58.1384 22.576 59.3264 22.108 60.2624 21.172C61.2344 20.2 61.7024 18.976 61.7024 17.5C61.7024 16.024 61.2344 14.8 60.2624 13.864C59.3264 12.892 58.1384 12.424 56.6984 12.424C55.2584 12.424 54.0704 12.892 53.1344 13.864C52.1984 14.8 51.7304 16.024 51.7304 17.5C51.7304 18.976 52.1984 20.2 53.1344 21.172ZM80.8536 8.5V12.964H76.7856V20.452C76.7856 22.396 78.1896 22.432 80.8536 22.288V26.5C74.4816 27.22 72.1416 25.384 72.1416 20.452V12.964H69.0096V8.5H72.1416V4.864L76.7856 3.46V8.5H80.8536ZM88.0252 13.612C88.0252 14.584 89.4652 15.124 91.3012 15.592C93.9292 16.132 97.3492 17.392 97.3132 21.244C97.3132 23.08 96.6292 24.52 95.2252 25.528C93.8572 26.5 92.1292 27.004 90.0772 27.004C86.3692 27.004 83.8492 25.564 82.5172 22.72L86.5492 20.452C87.0892 22 88.2412 22.792 90.0772 22.792C91.7332 22.792 92.5612 22.288 92.5612 21.244C92.5612 20.272 91.1212 19.732 89.2852 19.264C86.6212 18.58 83.2732 17.464 83.2732 13.72C83.2732 11.956 83.9212 10.552 85.2172 9.544C86.5492 8.5 88.1692 7.996 90.1132 7.996C93.0292 7.996 95.5492 9.364 96.9532 11.812L92.9932 13.972C92.4172 12.748 91.4452 12.136 90.1132 12.136C88.9252 12.136 88.0252 12.712 88.0252 13.612Z" fill="#292929"/>
</svg>
