<svg width="180" height="27" viewBox="0 0 180 27" fill="none" xmlns="http://www.w3.org/2000/svg">
<path d="M13.292 27.004C9.512 27.004 6.38 25.744 3.896 23.224C1.412 20.704 0.188 17.608 0.188 13.9C0.188 10.192 1.412 7.06 3.896 4.576C6.38 2.056 9.512 0.795998 13.292 0.795998C17.864 0.795998 21.968 3.1 24.128 6.736L19.844 9.22C18.584 6.952 16.172 5.62 13.292 5.62C10.844 5.62 8.864 6.376 7.352 7.924C5.876 9.472 5.12 11.452 5.12 13.9C5.12 16.312 5.876 18.292 7.352 19.84C8.864 21.388 10.844 22.144 13.292 22.144C16.172 22.144 18.656 20.776 19.844 18.58L24.128 21.064C21.968 24.7 17.9 27.004 13.292 27.004ZM42.4053 24.268C40.5693 26.104 38.3013 27.004 35.6373 27.004C32.9733 27.004 30.7053 26.104 28.8693 24.268C27.0333 22.432 26.1333 20.164 26.1333 17.5C26.1333 14.836 27.0333 12.604 28.8693 10.768C30.7053 8.932 32.9733 7.996 35.6373 7.996C38.3013 7.996 40.5693 8.932 42.4053 10.768C44.2413 12.604 45.1773 14.836 45.1773 17.5C45.1773 20.164 44.2413 22.432 42.4053 24.268ZM32.1453 21.064C33.0813 22 34.2333 22.468 35.6373 22.468C37.0413 22.468 38.1933 22 39.1293 21.064C40.0653 20.128 40.5333 18.94 40.5333 17.5C40.5333 16.06 40.0653 14.872 39.1293 13.936C38.1933 13 37.0413 12.532 35.6373 12.532C34.2333 12.532 33.0813 13 32.1453 13.936C31.2453 14.872 30.7773 16.06 30.7773 17.5C30.7773 18.94 31.2453 20.128 32.1453 21.064ZM68.3523 7.996C72.4923 7.996 75.1563 10.912 75.1563 15.412V26.5H70.5123V15.736C70.5123 13.576 69.3963 12.316 67.4883 12.316C65.3643 12.316 64.1403 13.756 64.1403 16.384V26.5H59.4963V15.736C59.4963 13.576 58.3803 12.316 56.4723 12.316C54.4203 12.316 53.0883 13.756 53.0883 16.384V26.5H48.4443V8.5H53.0883V10.408C54.1683 8.788 55.8243 7.996 58.0923 7.996C60.2883 7.996 61.9443 8.86 62.9883 10.588C64.1763 8.86 65.9763 7.996 68.3523 7.996ZM92.7806 10.624V8.5H97.4246V26.5H92.7806V24.376C91.3766 26.14 89.4326 27.004 86.9126 27.004C84.5006 27.004 82.4486 26.104 80.7206 24.268C79.0286 22.432 78.1646 20.164 78.1646 17.5C78.1646 14.836 79.0286 12.604 80.7206 10.768C82.4486 8.932 84.5006 7.996 86.9126 7.996C89.4326 7.996 91.3766 8.86 92.7806 10.624ZM84.2126 21.172C85.1486 22.108 86.3366 22.576 87.7766 22.576C89.2166 22.576 90.4046 22.108 91.3406 21.172C92.3126 20.2 92.7806 18.976 92.7806 17.5C92.7806 16.024 92.3126 14.8 91.3406 13.864C90.4046 12.892 89.2166 12.424 87.7766 12.424C86.3366 12.424 85.1486 12.892 84.2126 13.864C83.2766 14.8 82.8086 16.024 82.8086 17.5C82.8086 18.976 83.2766 20.2 84.2126 21.172ZM111.644 7.996C113.624 7.996 115.244 8.644 116.504 9.976C117.8 11.308 118.448 13.108 118.448 15.448V26.5H113.804V16.024C113.804 13.612 112.4 12.316 110.24 12.316C107.828 12.316 106.28 13.792 106.28 16.78V26.5H101.636V8.5H106.28V10.516C107.396 8.824 109.196 7.996 111.644 7.996ZM136.057 10.624V1.3H140.701V26.5H136.057V24.376C134.689 26.14 132.745 27.004 130.225 27.004C127.813 27.004 125.725 26.104 123.997 24.268C122.305 22.432 121.441 20.164 121.441 17.5C121.441 14.836 122.305 12.604 123.997 10.768C125.725 8.932 127.813 7.996 130.225 7.996C132.745 7.996 134.689 8.86 136.057 10.624ZM127.489 21.172C128.461 22.108 129.649 22.576 131.089 22.576C132.529 22.576 133.717 22.108 134.653 21.172C135.589 20.2 136.057 18.976 136.057 17.5C136.057 16.024 135.589 14.8 134.653 13.864C133.717 12.892 132.529 12.424 131.089 12.424C129.649 12.424 128.461 12.892 127.489 13.864C126.553 14.8 126.085 16.024 126.085 17.5C126.085 18.976 126.553 20.2 127.489 21.172ZM160.284 24.268C158.448 26.104 156.18 27.004 153.516 27.004C150.852 27.004 148.584 26.104 146.748 24.268C144.912 22.432 144.012 20.164 144.012 17.5C144.012 14.836 144.912 12.604 146.748 10.768C148.584 8.932 150.852 7.996 153.516 7.996C156.18 7.996 158.448 8.932 160.284 10.768C162.12 12.604 163.056 14.836 163.056 17.5C163.056 20.164 162.12 22.432 160.284 24.268ZM150.024 21.064C150.96 22 152.112 22.468 153.516 22.468C154.92 22.468 156.072 22 157.008 21.064C157.944 20.128 158.412 18.94 158.412 17.5C158.412 16.06 157.944 14.872 157.008 13.936C156.072 13 154.92 12.532 153.516 12.532C152.112 12.532 150.96 13 150.024 13.936C149.124 14.872 148.656 16.06 148.656 17.5C148.656 18.94 149.124 20.128 150.024 21.064ZM170.221 13.612C170.221 14.584 171.661 15.124 173.497 15.592C176.125 16.132 179.545 17.392 179.509 21.244C179.509 23.08 178.825 24.52 177.421 25.528C176.053 26.5 174.325 27.004 172.273 27.004C168.564 27.004 166.045 25.564 164.713 22.72L168.745 20.452C169.285 22 170.437 22.792 172.273 22.792C173.929 22.792 174.757 22.288 174.757 21.244C174.757 20.272 173.316 19.732 171.481 19.264C168.817 18.58 165.469 17.464 165.469 13.72C165.469 11.956 166.117 10.552 167.413 9.544C168.745 8.5 170.365 7.996 172.309 7.996C175.225 7.996 177.745 9.364 179.149 11.812L175.189 13.972C174.613 12.748 173.641 12.136 172.309 12.136C171.121 12.136 170.221 12.712 170.221 13.612Z" fill="#292929"/>
</svg>
