<svg width="272" height="35" viewBox="0 0 272 35" fill="none" xmlns="http://www.w3.org/2000/svg">
<path d="M13.292 27.004C9.512 27.004 6.38 25.744 3.896 23.224C1.412 20.704 0.188 17.608 0.188 13.9C0.188 10.192 1.412 7.06 3.896 4.576C6.38 2.056 9.512 0.795998 13.292 0.795998C17.864 0.795998 21.968 3.1 24.128 6.736L19.844 9.22C18.584 6.952 16.172 5.62 13.292 5.62C10.844 5.62 8.864 6.376 7.352 7.924C5.876 9.472 5.12 11.452 5.12 13.9C5.12 16.312 5.876 18.292 7.352 19.84C8.864 21.388 10.844 22.144 13.292 22.144C16.172 22.144 18.656 20.776 19.844 18.58L24.128 21.064C21.968 24.7 17.9 27.004 13.292 27.004ZM42.4053 24.268C40.5693 26.104 38.3013 27.004 35.6373 27.004C32.9733 27.004 30.7053 26.104 28.8693 24.268C27.0333 22.432 26.1333 20.164 26.1333 17.5C26.1333 14.836 27.0333 12.604 28.8693 10.768C30.7053 8.932 32.9733 7.996 35.6373 7.996C38.3013 7.996 40.5693 8.932 42.4053 10.768C44.2413 12.604 45.1773 14.836 45.1773 17.5C45.1773 20.164 44.2413 22.432 42.4053 24.268ZM32.1453 21.064C33.0813 22 34.2333 22.468 35.6373 22.468C37.0413 22.468 38.1933 22 39.1293 21.064C40.0653 20.128 40.5333 18.94 40.5333 17.5C40.5333 16.06 40.0653 14.872 39.1293 13.936C38.1933 13 37.0413 12.532 35.6373 12.532C34.2333 12.532 33.0813 13 32.1453 13.936C31.2453 14.872 30.7773 16.06 30.7773 17.5C30.7773 18.94 31.2453 20.128 32.1453 21.064ZM58.4523 7.996C60.4323 7.996 62.0523 8.644 63.3123 9.976C64.6083 11.308 65.2563 13.108 65.2563 15.448V26.5H60.6123V16.024C60.6123 13.612 59.2083 12.316 57.0483 12.316C54.6363 12.316 53.0883 13.792 53.0883 16.78V26.5H48.4443V8.5H53.0883V10.516C54.2043 8.824 56.0043 7.996 58.4523 7.996ZM75.0897 8.5H85.0257V26.5H80.3817V12.964H75.0897V26.5H70.4457V12.964H67.8537V8.5H70.4457V8.32C70.4457 3.316 73.2537 0.795998 78.9057 0.795998C80.1657 0.795998 81.5697 0.975998 83.1177 1.3V5.548C81.4977 5.368 80.0937 5.26 78.9057 5.26C76.3137 5.26 75.0897 6.016 75.0897 8.32V8.5ZM103.049 10.732V8.5H107.585V25.636C107.585 28.408 106.649 30.532 104.813 32.008C102.977 33.484 100.781 34.204 98.1887 34.204C94.3007 34.204 91.2407 32.692 89.6567 29.812L93.6167 27.544C94.5167 29.236 96.1007 30.064 98.3327 30.064C101.249 30.064 103.049 28.48 103.049 25.636V23.692C101.681 25.528 99.7727 26.428 97.2887 26.428C94.7327 26.428 92.6087 25.528 90.8807 23.764C89.1887 21.964 88.3247 19.768 88.3247 17.212C88.3247 14.656 89.1887 12.496 90.9167 10.696C92.6447 8.896 94.7687 7.996 97.2887 7.996C99.7727 7.996 101.681 8.896 103.049 10.732ZM103.049 17.212C103.049 15.808 102.581 14.62 101.609 13.72C100.673 12.784 99.4847 12.316 98.0087 12.316C96.5327 12.316 95.3447 12.784 94.3727 13.72C93.4367 14.62 92.9687 15.808 92.9687 17.212C92.9687 20.092 95.0927 22.144 98.0087 22.144C100.925 22.144 103.049 20.092 103.049 17.212ZM123.676 18.22V8.5H128.32V26.5H123.676V24.484C122.56 26.176 120.76 27.004 118.312 27.004C116.332 27.004 114.712 26.356 113.416 25.024C112.156 23.692 111.508 21.892 111.508 19.552V8.5H116.152V18.976C116.152 21.388 117.556 22.684 119.716 22.684C122.128 22.684 123.676 21.208 123.676 18.22ZM137.217 8.5V11.596C138.081 9.292 140.241 8.14 142.689 8.14V13.324C141.285 13.144 139.989 13.432 138.873 14.188C137.757 14.944 137.217 16.168 137.217 17.896V26.5H132.573V8.5H137.217ZM158.417 10.624V8.5H163.061V26.5H158.417V24.376C157.013 26.14 155.069 27.004 152.549 27.004C150.137 27.004 148.085 26.104 146.357 24.268C144.665 22.432 143.801 20.164 143.801 17.5C143.801 14.836 144.665 12.604 146.357 10.768C148.085 8.932 150.137 7.996 152.549 7.996C155.069 7.996 157.013 8.86 158.417 10.624ZM149.849 21.172C150.785 22.108 151.973 22.576 153.413 22.576C154.853 22.576 156.041 22.108 156.977 21.172C157.949 20.2 158.417 18.976 158.417 17.5C158.417 16.024 157.949 14.8 156.977 13.864C156.041 12.892 154.853 12.424 153.413 12.424C151.973 12.424 150.785 12.892 149.849 13.864C148.913 14.8 148.445 16.024 148.445 17.5C148.445 18.976 148.913 20.2 149.849 21.172ZM175.84 27.004C173.14 27.004 170.872 26.104 169.036 24.268C167.236 22.432 166.336 20.2 166.336 17.5C166.336 14.8 167.236 12.568 169.036 10.732C170.872 8.896 173.14 7.996 175.84 7.996C179.332 7.996 182.428 9.796 183.904 12.64L179.908 14.98C179.188 13.504 177.64 12.568 175.804 12.568C173.032 12.568 170.98 14.62 170.98 17.5C170.98 18.904 171.448 20.092 172.348 21.028C173.248 21.928 174.4 22.396 175.804 22.396C177.676 22.396 179.224 21.496 179.944 20.02L183.976 22.324C182.392 25.168 179.332 27.004 175.84 27.004ZM188.737 6.34C187.189 6.34 185.893 5.044 185.893 3.496C185.893 1.948 187.189 0.615999 188.737 0.615999C190.321 0.615999 191.617 1.948 191.617 3.496C191.617 5.044 190.321 6.34 188.737 6.34ZM191.077 26.5H186.433V8.5H191.077V26.5ZM210.663 24.268C208.827 26.104 206.559 27.004 203.895 27.004C201.231 27.004 198.963 26.104 197.127 24.268C195.291 22.432 194.391 20.164 194.391 17.5C194.391 14.836 195.291 12.604 197.127 10.768C198.963 8.932 201.231 7.996 203.895 7.996C206.559 7.996 208.827 8.932 210.663 10.768C212.499 12.604 213.435 14.836 213.435 17.5C213.435 20.164 212.499 22.432 210.663 24.268ZM200.403 21.064C201.339 22 202.491 22.468 203.895 22.468C205.299 22.468 206.451 22 207.387 21.064C208.323 20.128 208.791 18.94 208.791 17.5C208.791 16.06 208.323 14.872 207.387 13.936C206.451 13 205.299 12.532 203.895 12.532C202.491 12.532 201.339 13 200.403 13.936C199.503 14.872 199.035 16.06 199.035 17.5C199.035 18.94 199.503 20.128 200.403 21.064ZM226.71 7.996C228.69 7.996 230.31 8.644 231.57 9.976C232.866 11.308 233.514 13.108 233.514 15.448V26.5H228.87V16.024C228.87 13.612 227.466 12.316 225.306 12.316C222.894 12.316 221.346 13.792 221.346 16.78V26.5H216.702V8.5H221.346V10.516C222.462 8.824 224.262 7.996 226.71 7.996ZM254.975 19.408H241.403C242.015 21.676 243.707 22.792 246.479 22.792C248.243 22.792 249.611 22.18 250.511 20.992L254.255 23.152C252.491 25.708 249.863 27.004 246.407 27.004C243.419 27.004 241.043 26.104 239.243 24.304C237.443 22.504 236.543 20.236 236.543 17.5C236.543 14.8 237.443 12.532 239.207 10.732C240.971 8.896 243.275 7.996 246.047 7.996C248.675 7.996 250.871 8.896 252.563 10.732C254.291 12.568 255.155 14.8 255.155 17.5C255.155 18.112 255.083 18.724 254.975 19.408ZM241.331 15.808H250.511C249.971 13.36 248.171 12.172 246.047 12.172C243.563 12.172 241.871 13.504 241.331 15.808ZM261.978 13.612C261.978 14.584 263.418 15.124 265.254 15.592C267.882 16.132 271.302 17.392 271.266 21.244C271.266 23.08 270.582 24.52 269.178 25.528C267.81 26.5 266.082 27.004 264.03 27.004C260.322 27.004 257.802 25.564 256.47 22.72L260.502 20.452C261.042 22 262.194 22.792 264.03 22.792C265.686 22.792 266.514 22.288 266.514 21.244C266.514 20.272 265.074 19.732 263.238 19.264C260.574 18.58 257.226 17.464 257.226 13.72C257.226 11.956 257.874 10.552 259.17 9.544C260.502 8.5 262.122 7.996 264.066 7.996C266.982 7.996 269.502 9.364 270.906 11.812L266.946 13.972C266.37 12.748 265.398 12.136 264.066 12.136C262.878 12.136 261.978 12.712 261.978 13.612Z" fill="#292929"/>
</svg>
