<svg width="332" height="24" viewBox="0 0 332 24" fill="none" xmlns="http://www.w3.org/2000/svg">
<path d="M9.528 18.336C7.008 18.336 4.92 17.496 3.264 15.816C1.608 14.136 0.792 12.072 0.792 9.6C0.792 7.128 1.608 5.04 3.264 3.384C4.92 1.704 7.008 0.863999 9.528 0.863999C12.576 0.863999 15.312 2.4 16.752 4.824L13.896 6.48C13.056 4.968 11.448 4.08 9.528 4.08C7.896 4.08 6.576 4.584 5.568 5.616C4.584 6.648 4.08 7.968 4.08 9.6C4.08 11.208 4.584 12.528 5.568 13.56C6.576 14.592 7.896 15.096 9.528 15.096C11.448 15.096 13.104 14.184 13.896 12.72L16.752 14.376C15.312 16.8 12.6 18.336 9.528 18.336ZM28.9369 16.512C27.7129 17.736 26.2009 18.336 24.4249 18.336C22.6489 18.336 21.1369 17.736 19.9129 16.512C18.6889 15.288 18.0889 13.776 18.0889 12C18.0889 10.224 18.6889 8.736 19.9129 7.512C21.1369 6.288 22.6489 5.664 24.4249 5.664C26.2009 5.664 27.7129 6.288 28.9369 7.512C30.1609 8.736 30.7849 10.224 30.7849 12C30.7849 13.776 30.1609 15.288 28.9369 16.512ZM22.0969 14.376C22.7209 15 23.4889 15.312 24.4249 15.312C25.3609 15.312 26.1289 15 26.7529 14.376C27.3769 13.752 27.6889 12.96 27.6889 12C27.6889 11.04 27.3769 10.248 26.7529 9.624C26.1289 9 25.3609 8.688 24.4249 8.688C23.4889 8.688 22.7209 9 22.0969 9.624C21.4969 10.248 21.1849 11.04 21.1849 12C21.1849 12.96 21.4969 13.752 22.0969 14.376ZM39.6349 5.664C40.9549 5.664 42.0349 6.096 42.8749 6.984C43.7389 7.872 44.1709 9.072 44.1709 10.632V18H41.0749V11.016C41.0749 9.408 40.1389 8.544 38.6989 8.544C37.0909 8.544 36.0589 9.528 36.0589 11.52V18H32.9629V6H36.0589V7.344C36.8029 6.216 38.0029 5.664 39.6349 5.664ZM50.7264 6H57.3504V18H54.2544V8.976H50.7264V18H47.6304V8.976H45.9024V6H47.6304V5.88C47.6304 2.544 49.5024 0.863999 53.2704 0.863999C54.1104 0.863999 55.0464 0.983999 56.0784 1.2V4.032C54.9984 3.912 54.0624 3.84 53.2704 3.84C51.5424 3.84 50.7264 4.344 50.7264 5.88V6ZM69.3658 7.488V6H72.3898V17.424C72.3898 19.272 71.7658 20.688 70.5418 21.672C69.3178 22.656 67.8538 23.136 66.1258 23.136C63.5338 23.136 61.4938 22.128 60.4378 20.208L63.0778 18.696C63.6778 19.824 64.7338 20.376 66.2218 20.376C68.1658 20.376 69.3658 19.32 69.3658 17.424V16.128C68.4538 17.352 67.1818 17.952 65.5258 17.952C63.8218 17.952 62.4058 17.352 61.2538 16.176C60.1258 14.976 59.5498 13.512 59.5498 11.808C59.5498 10.104 60.1258 8.664 61.2778 7.464C62.4298 6.264 63.8458 5.664 65.5258 5.664C67.1818 5.664 68.4538 6.264 69.3658 7.488ZM69.3658 11.808C69.3658 10.872 69.0538 10.08 68.4058 9.48C67.7818 8.856 66.9898 8.544 66.0058 8.544C65.0218 8.544 64.2298 8.856 63.5818 9.48C62.9578 10.08 62.6458 10.872 62.6458 11.808C62.6458 13.728 64.0618 15.096 66.0058 15.096C67.9498 15.096 69.3658 13.728 69.3658 11.808ZM83.1173 12.48V6H86.2133V18H83.1173V16.656C82.3733 17.784 81.1733 18.336 79.5413 18.336C78.2213 18.336 77.1413 17.904 76.2773 17.016C75.4373 16.128 75.0053 14.928 75.0053 13.368V6H78.1013V12.984C78.1013 14.592 79.0373 15.456 80.4773 15.456C82.0853 15.456 83.1173 14.472 83.1173 12.48ZM92.1448 6V8.064C92.7208 6.528 94.1608 5.76 95.7928 5.76V9.216C94.8568 9.096 93.9928 9.288 93.2488 9.792C92.5048 10.296 92.1448 11.112 92.1448 12.264V18H89.0488V6H92.1448ZM106.278 7.416V6H109.374V18H106.278V16.584C105.342 17.76 104.046 18.336 102.366 18.336C100.758 18.336 99.3902 17.736 98.2382 16.512C97.1102 15.288 96.5342 13.776 96.5342 12C96.5342 10.224 97.1102 8.736 98.2382 7.512C99.3902 6.288 100.758 5.664 102.366 5.664C104.046 5.664 105.342 6.24 106.278 7.416ZM100.566 14.448C101.19 15.072 101.982 15.384 102.942 15.384C103.902 15.384 104.694 15.072 105.318 14.448C105.966 13.8 106.278 12.984 106.278 12C106.278 11.016 105.966 10.2 105.318 9.576C104.694 8.928 103.902 8.616 102.942 8.616C101.982 8.616 101.19 8.928 100.566 9.576C99.9422 10.2 99.6302 11.016 99.6302 12C99.6302 12.984 99.9422 13.8 100.566 14.448ZM115.278 6V8.064C115.854 6.528 117.294 5.76 118.926 5.76V9.216C117.99 9.096 117.126 9.288 116.382 9.792C115.638 10.296 115.278 11.112 115.278 12.264V18H112.182V6H115.278ZM141.28 18H137.68L136.672 14.976H129.976L128.968 18H125.392L131.272 1.2H135.376L141.28 18ZM133.336 5.016L131.032 11.88H135.64L133.336 5.016ZM142.912 1.2H149.176C150.784 1.2 152.152 1.752 153.256 2.832C154.36 3.912 154.912 5.256 154.912 6.84C154.912 8.424 154.36 9.768 153.256 10.848C152.152 11.928 150.784 12.48 149.176 12.48H146.224V18H142.912V1.2ZM146.224 9.384H149.176C150.592 9.384 151.624 8.28 151.624 6.84C151.624 5.376 150.592 4.296 149.176 4.296H146.224V9.384ZM157.068 18V1.2H160.38V18H157.068ZM176.162 9.36L182.618 18H178.802L172.802 10.128V18H169.49V1.2H172.802V8.616L178.562 1.2H182.378L176.162 9.36ZM194.697 13.272H185.649C186.057 14.784 187.185 15.528 189.033 15.528C190.209 15.528 191.121 15.12 191.721 14.328L194.217 15.768C193.041 17.472 191.289 18.336 188.985 18.336C186.993 18.336 185.409 17.736 184.209 16.536C183.009 15.336 182.409 13.824 182.409 12C182.409 10.2 183.009 8.688 184.185 7.488C185.361 6.264 186.897 5.664 188.745 5.664C190.497 5.664 191.961 6.264 193.089 7.488C194.241 8.712 194.817 10.2 194.817 12C194.817 12.408 194.769 12.816 194.697 13.272ZM185.601 10.872H191.721C191.361 9.24 190.161 8.448 188.745 8.448C187.089 8.448 185.961 9.336 185.601 10.872ZM201.67 14.064L204.334 6H207.646L203.278 18C202.03 21.456 200.014 22.968 196.942 22.8V19.92C198.598 19.944 199.51 19.248 200.086 17.616L195.166 6H198.55L201.67 14.064ZM224.215 7.416V1.2H227.311V18H224.215V16.584C223.303 17.76 222.007 18.336 220.327 18.336C218.719 18.336 217.327 17.736 216.175 16.512C215.047 15.288 214.471 13.776 214.471 12C214.471 10.224 215.047 8.736 216.175 7.512C217.327 6.288 218.719 5.664 220.327 5.664C222.007 5.664 223.303 6.24 224.215 7.416ZM218.503 14.448C219.151 15.072 219.943 15.384 220.903 15.384C221.863 15.384 222.655 15.072 223.279 14.448C223.903 13.8 224.215 12.984 224.215 12C224.215 11.016 223.903 10.2 223.279 9.576C222.655 8.928 221.863 8.616 220.903 8.616C219.943 8.616 219.151 8.928 218.503 9.576C217.879 10.2 217.567 11.016 217.567 12C217.567 12.984 217.879 13.8 218.503 14.448ZM241.807 13.272H232.759C233.167 14.784 234.295 15.528 236.143 15.528C237.319 15.528 238.231 15.12 238.831 14.328L241.327 15.768C240.151 17.472 238.399 18.336 236.095 18.336C234.103 18.336 232.519 17.736 231.319 16.536C230.119 15.336 229.519 13.824 229.519 12C229.519 10.2 230.119 8.688 231.295 7.488C232.471 6.264 234.007 5.664 235.855 5.664C237.607 5.664 239.071 6.264 240.199 7.488C241.351 8.712 241.927 10.2 241.927 12C241.927 12.408 241.879 12.816 241.807 13.272ZM232.711 10.872H238.831C238.471 9.24 237.271 8.448 235.855 8.448C234.199 8.448 233.071 9.336 232.711 10.872ZM264.368 15.816C262.664 17.496 260.6 18.336 258.176 18.336C255.752 18.336 253.688 17.496 251.984 15.816C250.304 14.112 249.464 12.048 249.464 9.6C249.464 7.152 250.304 5.088 251.984 3.408C253.688 1.704 255.752 0.863999 258.176 0.863999C260.6 0.863999 262.664 1.704 264.368 3.408C266.072 5.088 266.912 7.152 266.912 9.6C266.912 12.048 266.072 14.112 264.368 15.816ZM254.312 13.56C255.344 14.592 256.64 15.096 258.176 15.096C259.712 15.096 261.008 14.592 262.04 13.56C263.072 12.528 263.6 11.208 263.6 9.6C263.6 7.992 263.072 6.672 262.04 5.64C261.008 4.608 259.712 4.08 258.176 4.08C256.64 4.08 255.344 4.608 254.312 5.64C253.28 6.672 252.752 7.992 252.752 9.6C252.752 11.208 253.28 12.528 254.312 13.56ZM276.08 5.664C277.688 5.664 279.08 6.288 280.208 7.512C281.36 8.736 281.936 10.224 281.936 12C281.936 13.776 281.36 15.288 280.208 16.512C279.08 17.736 277.688 18.336 276.08 18.336C274.4 18.336 273.104 17.76 272.192 16.584V22.8H269.096V6H272.192V7.416C273.104 6.24 274.4 5.664 276.08 5.664ZM273.128 14.448C273.752 15.072 274.544 15.384 275.504 15.384C276.464 15.384 277.256 15.072 277.88 14.448C278.528 13.8 278.84 12.984 278.84 12C278.84 11.016 278.528 10.2 277.88 9.576C277.256 8.928 276.464 8.616 275.504 8.616C274.544 8.616 273.752 8.928 273.128 9.576C272.504 10.2 272.192 11.016 272.192 12C272.192 12.984 272.504 13.8 273.128 14.448ZM295.783 13.272H286.735C287.143 14.784 288.271 15.528 290.119 15.528C291.295 15.528 292.207 15.12 292.807 14.328L295.303 15.768C294.127 17.472 292.375 18.336 290.071 18.336C288.079 18.336 286.495 17.736 285.295 16.536C284.095 15.336 283.495 13.824 283.495 12C283.495 10.2 284.095 8.688 285.271 7.488C286.447 6.264 287.983 5.664 289.831 5.664C291.583 5.664 293.047 6.264 294.175 7.488C295.327 8.712 295.903 10.2 295.903 12C295.903 12.408 295.855 12.816 295.783 13.272ZM286.687 10.872H292.807C292.447 9.24 291.247 8.448 289.831 8.448C288.175 8.448 287.047 9.336 286.687 10.872ZM304.736 5.664C306.056 5.664 307.136 6.096 307.976 6.984C308.84 7.872 309.272 9.072 309.272 10.632V18H306.176V11.016C306.176 9.408 305.24 8.544 303.8 8.544C302.192 8.544 301.16 9.528 301.16 11.52V18H298.064V6H301.16V7.344C301.904 6.216 303.104 5.664 304.736 5.664ZM326.46 18H322.86L321.852 14.976H315.156L314.148 18H310.572L316.452 1.2H320.556L326.46 18ZM318.516 5.016L316.212 11.88H320.82L318.516 5.016ZM328.091 18V1.2H331.403V18H328.091Z" fill="#292929"/>
</svg>
