<svg width="167" height="19" viewBox="0 0 167 19" fill="none" xmlns="http://www.w3.org/2000/svg">
<path d="M9.528 18.336C7.008 18.336 4.92 17.496 3.264 15.816C1.608 14.136 0.792 12.072 0.792 9.6C0.792 7.128 1.608 5.04 3.264 3.384C4.92 1.704 7.008 0.863999 9.528 0.863999C12.576 0.863999 15.312 2.4 16.752 4.824L13.896 6.48C13.056 4.968 11.448 4.08 9.528 4.08C7.896 4.08 6.576 4.584 5.568 5.616C4.584 6.648 4.08 7.968 4.08 9.6C4.08 11.208 4.584 12.528 5.568 13.56C6.576 14.592 7.896 15.096 9.528 15.096C11.448 15.096 13.104 14.184 13.896 12.72L16.752 14.376C15.312 16.8 12.6 18.336 9.528 18.336ZM28.9369 16.512C27.7129 17.736 26.2009 18.336 24.4249 18.336C22.6489 18.336 21.1369 17.736 19.9129 16.512C18.6889 15.288 18.0889 13.776 18.0889 12C18.0889 10.224 18.6889 8.736 19.9129 7.512C21.1369 6.288 22.6489 5.664 24.4249 5.664C26.2009 5.664 27.7129 6.288 28.9369 7.512C30.1609 8.736 30.7849 10.224 30.7849 12C30.7849 13.776 30.1609 15.288 28.9369 16.512ZM22.0969 14.376C22.7209 15 23.4889 15.312 24.4249 15.312C25.3609 15.312 26.1289 15 26.7529 14.376C27.3769 13.752 27.6889 12.96 27.6889 12C27.6889 11.04 27.3769 10.248 26.7529 9.624C26.1289 9 25.3609 8.688 24.4249 8.688C23.4889 8.688 22.7209 9 22.0969 9.624C21.4969 10.248 21.1849 11.04 21.1849 12C21.1849 12.96 21.4969 13.752 22.0969 14.376ZM39.6349 5.664C40.9549 5.664 42.0349 6.096 42.8749 6.984C43.7389 7.872 44.1709 9.072 44.1709 10.632V18H41.0749V11.016C41.0749 9.408 40.1389 8.544 38.6989 8.544C37.0909 8.544 36.0589 9.528 36.0589 11.52V18H32.9629V6H36.0589V7.344C36.8029 6.216 38.0029 5.664 39.6349 5.664ZM53.6784 6V8.976H50.9664V13.968C50.9664 15.264 51.9024 15.288 53.6784 15.192V18C49.4304 18.48 47.8704 17.256 47.8704 13.968V8.976H45.7824V6H47.8704V3.576L50.9664 2.64V6H53.6784ZM59.1448 6V8.064C59.7208 6.528 61.1608 5.76 62.7928 5.76V9.216C61.8568 9.096 60.9928 9.288 60.2488 9.792C59.5048 10.296 59.1448 11.112 59.1448 12.264V18H56.0488V6H59.1448ZM74.3822 16.512C73.1582 17.736 71.6462 18.336 69.8702 18.336C68.0942 18.336 66.5822 17.736 65.3582 16.512C64.1342 15.288 63.5342 13.776 63.5342 12C63.5342 10.224 64.1342 8.736 65.3582 7.512C66.5822 6.288 68.0942 5.664 69.8702 5.664C71.6462 5.664 73.1582 6.288 74.3822 7.512C75.6062 8.736 76.2302 10.224 76.2302 12C76.2302 13.776 75.6062 15.288 74.3822 16.512ZM67.5422 14.376C68.1662 15 68.9342 15.312 69.8702 15.312C70.8062 15.312 71.5742 15 72.1982 14.376C72.8222 13.752 73.1342 12.96 73.1342 12C73.1342 11.04 72.8222 10.248 72.1982 9.624C71.5742 9 70.8062 8.688 69.8702 8.688C68.9342 8.688 68.1662 9 67.5422 9.624C66.9422 10.248 66.6302 11.04 66.6302 12C66.6302 12.96 66.9422 13.752 67.5422 14.376ZM81.5042 18H78.4082V0.48H81.5042V18ZM99.4339 7.416V1.2H102.53V18H99.4339V16.584C98.5219 17.76 97.2259 18.336 95.5459 18.336C93.9379 18.336 92.5459 17.736 91.3939 16.512C90.2659 15.288 89.6899 13.776 89.6899 12C89.6899 10.224 90.2659 8.736 91.3939 7.512C92.5459 6.288 93.9379 5.664 95.5459 5.664C97.2259 5.664 98.5219 6.24 99.4339 7.416ZM93.7219 14.448C94.3699 15.072 95.1619 15.384 96.1219 15.384C97.0819 15.384 97.8739 15.072 98.4979 14.448C99.1219 13.8 99.4339 12.984 99.4339 12C99.4339 11.016 99.1219 10.2 98.4979 9.576C97.8739 8.928 97.0819 8.616 96.1219 8.616C95.1619 8.616 94.3699 8.928 93.7219 9.576C93.0979 10.2 92.7859 11.016 92.7859 12C92.7859 12.984 93.0979 13.8 93.7219 14.448ZM117.025 13.272H107.977C108.385 14.784 109.513 15.528 111.361 15.528C112.537 15.528 113.449 15.12 114.049 14.328L116.545 15.768C115.369 17.472 113.617 18.336 111.313 18.336C109.321 18.336 107.737 17.736 106.537 16.536C105.337 15.336 104.737 13.824 104.737 12C104.737 10.2 105.337 8.688 106.513 7.488C107.689 6.264 109.225 5.664 111.073 5.664C112.825 5.664 114.289 6.264 115.417 7.488C116.569 8.712 117.145 10.2 117.145 12C117.145 12.408 117.097 12.816 117.025 13.272ZM107.929 10.872H114.049C113.689 9.24 112.489 8.448 111.073 8.448C109.417 8.448 108.289 9.336 107.929 10.872ZM122.403 18H119.307V0.48H122.403V18ZM141.532 9.288C142.996 10.128 143.74 11.424 143.74 13.128C143.74 14.544 143.236 15.72 142.228 16.632C141.22 17.544 139.972 18 138.508 18H131.38V1.2H138.004C139.444 1.2 140.644 1.656 141.628 2.544C142.612 3.432 143.116 4.56 143.116 5.928C143.116 7.32 142.588 8.448 141.532 9.288ZM138.004 4.296H134.692V7.992H138.004C139.036 7.992 139.804 7.2 139.804 6.144C139.804 5.088 139.06 4.296 138.004 4.296ZM134.692 14.904H138.508C139.636 14.904 140.452 14.064 140.452 12.912C140.452 11.784 139.636 10.944 138.508 10.944H134.692V14.904ZM156.179 16.512C154.955 17.736 153.443 18.336 151.667 18.336C149.891 18.336 148.379 17.736 147.155 16.512C145.931 15.288 145.331 13.776 145.331 12C145.331 10.224 145.931 8.736 147.155 7.512C148.379 6.288 149.891 5.664 151.667 5.664C153.443 5.664 154.955 6.288 156.179 7.512C157.403 8.736 158.027 10.224 158.027 12C158.027 13.776 157.403 15.288 156.179 16.512ZM149.339 14.376C149.963 15 150.731 15.312 151.667 15.312C152.603 15.312 153.371 15 153.995 14.376C154.619 13.752 154.931 12.96 154.931 12C154.931 11.04 154.619 10.248 153.995 9.624C153.371 9 152.603 8.688 151.667 8.688C150.731 8.688 149.963 9 149.339 9.624C148.739 10.248 148.427 11.04 148.427 12C148.427 12.96 148.739 13.752 149.339 14.376ZM166.811 6V8.976H164.099V13.968C164.099 15.264 165.035 15.288 166.811 15.192V18C162.563 18.48 161.003 17.256 161.003 13.968V8.976H158.915V6H161.003V3.576L164.099 2.64V6H166.811Z" fill="#292929"/>
</svg>
