<svg width="80" height="75" viewBox="0 0 80 75" fill="none" xmlns="http://www.w3.org/2000/svg">
<path d="M2.91663 58.4759C2.91663 56.2236 3.49063 54.0085 4.58445 52.0396L27.5239 10.7486C29.5573 7.08852 33.0953 4.50594 37.201 3.6848V3.6848C39.0487 3.31526 40.9513 3.31526 42.799 3.6848V3.6848C46.9046 4.50594 50.4427 7.08852 52.476 10.7486L75.4155 52.0396C76.5093 54.0085 77.0833 56.2236 77.0833 58.4759V58.4759C77.0833 65.7955 71.1496 71.7292 63.83 71.7292H16.1699C8.8503 71.7292 2.91663 65.7955 2.91663 58.4759V58.4759Z" stroke="#F22626" stroke-width="5.5625"/>
<path d="M40 25.3747L40 40.208" stroke="#F22626" stroke-width="5.5625" stroke-linecap="round" stroke-linejoin="round"/>
<path d="M40 51.3333L40 53.1875" stroke="#FF522C" stroke-width="5.5625" stroke-linecap="round" stroke-linejoin="round"/>
</svg>
