<svg width="224" height="34" viewBox="0 0 224 34" fill="none" xmlns="http://www.w3.org/2000/svg">
<path d="M4.66 15.236V22.04H15.82V26H0.52V0.799998H15.64V4.76H4.66V11.312H14.74V15.236H4.66ZM33.2623 10.556V0.799998H37.1503V26H33.2623V23.408C31.7863 25.46 29.6983 26.468 26.9623 26.468C24.4783 26.468 22.3903 25.568 20.6263 23.732C18.8623 21.896 17.9983 19.628 17.9983 17C17.9983 14.336 18.8623 12.104 20.6263 10.268C22.3903 8.432 24.4783 7.532 26.9623 7.532C29.6983 7.532 31.7863 8.54 33.2623 10.556ZM23.5063 21.14C24.5863 22.22 25.9543 22.76 27.5743 22.76C29.1943 22.76 30.5623 22.22 31.6423 21.14C32.7223 20.024 33.2623 18.656 33.2623 17C33.2623 15.344 32.7223 13.976 31.6423 12.896C30.5623 11.78 29.1943 11.24 27.5743 11.24C25.9543 11.24 24.5863 11.78 23.5063 12.896C22.4263 13.976 21.8863 15.344 21.8863 17C21.8863 18.656 22.4263 20.024 23.5063 21.14ZM45.3541 4.58C44.3821 5.552 42.8701 5.552 41.8621 4.58C40.8901 3.572 40.8901 2.06 41.8621 1.088C42.8341 0.079999 44.4181 0.079999 45.3901 1.088C46.3621 2.06 46.3621 3.572 45.3541 4.58ZM45.5701 26H41.6821V8H45.5701V26ZM60.1284 8V11.744H55.6644V20.384C55.6644 22.688 57.1764 22.652 60.1284 22.508V26C54.1884 26.72 51.7764 25.1 51.7764 20.384V11.744H48.4644V8H51.7764V4.112L55.6644 2.96V8H60.1284ZM77.1724 10.556V8H81.0604V26H77.1724V23.408C75.6964 25.46 73.6084 26.468 70.8724 26.468C68.3884 26.468 66.3004 25.568 64.5364 23.732C62.7724 21.896 61.9084 19.628 61.9084 17C61.9084 14.336 62.7724 12.104 64.5364 10.268C66.3004 8.432 68.3884 7.532 70.8724 7.532C73.6084 7.532 75.6964 8.54 77.1724 10.556ZM67.4164 21.14C68.4964 22.22 69.8644 22.76 71.4844 22.76C73.1044 22.76 74.4724 22.22 75.5524 21.14C76.6324 20.024 77.1724 18.656 77.1724 17C77.1724 15.344 76.6324 13.976 75.5524 12.896C74.4724 11.78 73.1044 11.24 71.4844 11.24C69.8644 11.24 68.4964 11.78 67.4164 12.896C66.3364 13.976 65.7964 15.344 65.7964 17C65.7964 18.656 66.3364 20.024 67.4164 21.14ZM89.4802 8V11.024C90.4522 8.792 92.3242 7.676 95.0242 7.676V11.888C93.5482 11.78 92.2522 12.14 91.1362 12.968C90.0202 13.76 89.4802 15.092 89.4802 16.928V26H85.5922V8H89.4802ZM107.149 0.799998H116.437C118.813 0.799998 120.793 1.592 122.377 3.176C123.997 4.76 124.789 6.74 124.789 9.08C124.789 11.42 123.997 13.364 122.377 14.984C120.793 16.568 118.813 17.36 116.437 17.36H111.289V26H107.149V0.799998ZM111.289 13.472H116.437C118.885 13.472 120.649 11.636 120.649 9.08C120.649 6.524 118.885 4.688 116.437 4.688H111.289V13.472ZM131.668 8V11.024C132.64 8.792 134.512 7.676 137.212 7.676V11.888C135.736 11.78 134.44 12.14 133.324 12.968C132.208 13.76 131.668 15.092 131.668 16.928V26H127.78V8H131.668ZM147.737 26.468C145.109 26.468 142.841 25.568 141.005 23.732C139.169 21.896 138.233 19.664 138.233 17C138.233 14.336 139.169 12.104 141.005 10.268C142.841 8.432 145.109 7.532 147.737 7.532C150.401 7.532 152.633 8.432 154.469 10.268C156.305 12.104 157.241 14.336 157.241 17C157.241 19.664 156.305 21.896 154.469 23.732C152.633 25.568 150.401 26.468 147.737 26.468ZM143.741 21.068C144.821 22.148 146.153 22.688 147.737 22.688C149.321 22.688 150.653 22.148 151.733 21.068C152.813 19.988 153.353 18.62 153.353 17C153.353 15.38 152.813 14.012 151.733 12.932C150.653 11.852 149.321 11.312 147.737 11.312C146.153 11.312 144.821 11.852 143.741 12.932C142.661 14.012 142.121 15.38 142.121 17C142.121 18.62 142.661 19.988 143.741 21.068ZM180.412 7.532C184.48 7.532 187.216 10.376 187.216 14.84V26H183.328V15.092C183.328 12.608 181.996 11.168 179.836 11.168C177.424 11.168 175.912 12.752 175.912 15.92V26H172.024V15.092C172.024 12.608 170.8 11.168 168.64 11.168C166.3 11.168 164.644 12.788 164.644 15.92V26H160.756V8H164.644V10.16C165.796 8.396 167.524 7.532 169.792 7.532C172.096 7.532 173.788 8.468 174.904 10.376C176.092 8.468 177.928 7.532 180.412 7.532ZM201.565 7.532C204.049 7.532 206.137 8.468 207.901 10.304C209.665 12.14 210.529 14.372 210.529 17C210.529 19.664 209.665 21.896 207.901 23.732C206.137 25.568 204.049 26.468 201.565 26.468C198.829 26.468 196.741 25.46 195.265 23.444V33.2H191.377V8H195.265V10.592C196.741 8.54 198.829 7.532 201.565 7.532ZM196.885 21.14C197.965 22.22 199.333 22.76 200.953 22.76C202.573 22.76 203.941 22.22 205.021 21.14C206.101 20.024 206.641 18.656 206.641 17C206.641 15.344 206.101 13.976 205.021 12.896C203.941 11.78 202.573 11.24 200.953 11.24C199.333 11.24 197.965 11.78 196.885 12.896C195.805 13.976 195.265 15.344 195.265 17C195.265 18.656 195.805 20.024 196.885 21.14ZM223.746 8V11.744H219.282V20.384C219.282 22.688 220.794 22.652 223.746 22.508V26C217.806 26.72 215.394 25.1 215.394 20.384V11.744H212.082V8H215.394V4.112L219.282 2.96V8H223.746Z" fill="#292929"/>
</svg>
