<svg width="160" height="19" viewBox="0 0 160 19" fill="none" xmlns="http://www.w3.org/2000/svg">
<path d="M3.872 11.064V14.832H10.952V18H0.56V1.2H10.832V4.368H3.872V7.944H10.232V11.064H3.872ZM15.9986 9.408C15.9986 10.056 16.9586 10.416 18.1826 10.728C19.9346 11.088 22.2146 11.928 22.1906 14.496C22.1906 15.72 21.7346 16.68 20.7986 17.352C19.8866 18 18.7346 18.336 17.3666 18.336C14.8946 18.336 13.2146 17.376 12.3266 15.48L15.0146 13.968C15.3746 15 16.1426 15.528 17.3666 15.528C18.4706 15.528 19.0226 15.192 19.0226 14.496C19.0226 13.848 18.0626 13.488 16.8386 13.176C15.0626 12.72 12.8306 11.976 12.8306 9.48C12.8306 8.304 13.2626 7.368 14.1266 6.696C15.0146 6 16.0946 5.664 17.3906 5.664C19.3346 5.664 21.0146 6.576 21.9506 8.208L19.3106 9.648C18.9266 8.832 18.2786 8.424 17.3906 8.424C16.5986 8.424 15.9986 8.808 15.9986 9.408ZM30.6941 6V8.976H27.9821V13.968C27.9821 15.264 28.9181 15.288 30.6941 15.192V18C26.4461 18.48 24.8861 17.256 24.8861 13.968V8.976H22.7981V6H24.8861V3.576L27.9821 2.64V6H30.6941ZM41.6219 7.416V6H44.7179V18H41.6219V16.584C40.6859 17.76 39.3899 18.336 37.7099 18.336C36.1019 18.336 34.7339 17.736 33.5819 16.512C32.4539 15.288 31.8779 13.776 31.8779 12C31.8779 10.224 32.4539 8.736 33.5819 7.512C34.7339 6.288 36.1019 5.664 37.7099 5.664C39.3899 5.664 40.6859 6.24 41.6219 7.416ZM35.9099 14.448C36.5339 15.072 37.3259 15.384 38.2859 15.384C39.2459 15.384 40.0379 15.072 40.6619 14.448C41.3099 13.8 41.6219 12.984 41.6219 12C41.6219 11.016 41.3099 10.2 40.6619 9.576C40.0379 8.928 39.2459 8.616 38.2859 8.616C37.3259 8.616 36.5339 8.928 35.9099 9.576C35.2859 10.2 34.9739 11.016 34.9739 12C34.9739 12.984 35.2859 13.8 35.9099 14.448ZM56.6214 7.416V1.2H59.7174V18H56.6214V16.584C55.7094 17.76 54.4134 18.336 52.7334 18.336C51.1254 18.336 49.7334 17.736 48.5814 16.512C47.4534 15.288 46.8774 13.776 46.8774 12C46.8774 10.224 47.4534 8.736 48.5814 7.512C49.7334 6.288 51.1254 5.664 52.7334 5.664C54.4134 5.664 55.7094 6.24 56.6214 7.416ZM50.9094 14.448C51.5574 15.072 52.3494 15.384 53.3094 15.384C54.2694 15.384 55.0614 15.072 55.6854 14.448C56.3094 13.8 56.6214 12.984 56.6214 12C56.6214 11.016 56.3094 10.2 55.6854 9.576C55.0614 8.928 54.2694 8.616 53.3094 8.616C52.3494 8.616 51.5574 8.928 50.9094 9.576C50.2854 10.2 49.9734 11.016 49.9734 12C49.9734 12.984 50.2854 13.8 50.9094 14.448ZM72.7728 16.512C71.5488 17.736 70.0368 18.336 68.2608 18.336C66.4848 18.336 64.9728 17.736 63.7488 16.512C62.5248 15.288 61.9248 13.776 61.9248 12C61.9248 10.224 62.5248 8.736 63.7488 7.512C64.9728 6.288 66.4848 5.664 68.2608 5.664C70.0368 5.664 71.5488 6.288 72.7728 7.512C73.9968 8.736 74.6208 10.224 74.6208 12C74.6208 13.776 73.9968 15.288 72.7728 16.512ZM65.9328 14.376C66.5568 15 67.3248 15.312 68.2608 15.312C69.1968 15.312 69.9648 15 70.5888 14.376C71.2128 13.752 71.5248 12.96 71.5248 12C71.5248 11.04 71.2128 10.248 70.5888 9.624C69.9648 9 69.1968 8.688 68.2608 8.688C67.3248 8.688 66.5568 9 65.9328 9.624C65.3328 10.248 65.0208 11.04 65.0208 12C65.0208 12.96 65.3328 13.752 65.9328 14.376ZM91.8948 7.416V1.2H94.9908V18H91.8948V16.584C90.9828 17.76 89.6868 18.336 88.0068 18.336C86.3988 18.336 85.0068 17.736 83.8548 16.512C82.7268 15.288 82.1508 13.776 82.1508 12C82.1508 10.224 82.7268 8.736 83.8548 7.512C85.0068 6.288 86.3988 5.664 88.0068 5.664C89.6868 5.664 90.9828 6.24 91.8948 7.416ZM86.1828 14.448C86.8308 15.072 87.6228 15.384 88.5828 15.384C89.5428 15.384 90.3348 15.072 90.9588 14.448C91.5828 13.8 91.8948 12.984 91.8948 12C91.8948 11.016 91.5828 10.2 90.9588 9.576C90.3348 8.928 89.5428 8.616 88.5828 8.616C87.6228 8.616 86.8308 8.928 86.1828 9.576C85.5588 10.2 85.2468 11.016 85.2468 12C85.2468 12.984 85.5588 13.8 86.1828 14.448ZM109.486 13.272H100.438C100.846 14.784 101.974 15.528 103.822 15.528C104.998 15.528 105.91 15.12 106.51 14.328L109.006 15.768C107.83 17.472 106.078 18.336 103.774 18.336C101.782 18.336 100.198 17.736 98.9983 16.536C97.7983 15.336 97.1982 13.824 97.1982 12C97.1982 10.2 97.7983 8.688 98.9743 7.488C100.15 6.264 101.686 5.664 103.534 5.664C105.286 5.664 106.75 6.264 107.878 7.488C109.03 8.712 109.606 10.2 109.606 12C109.606 12.408 109.558 12.816 109.486 13.272ZM100.39 10.872H106.51C106.15 9.24 104.95 8.448 103.534 8.448C101.878 8.448 100.75 9.336 100.39 10.872ZM114.864 18H111.768V0.48H114.864V18ZM133.993 9.288C135.457 10.128 136.201 11.424 136.201 13.128C136.201 14.544 135.697 15.72 134.689 16.632C133.681 17.544 132.433 18 130.969 18H123.841V1.2H130.465C131.905 1.2 133.105 1.656 134.089 2.544C135.073 3.432 135.577 4.56 135.577 5.928C135.577 7.32 135.049 8.448 133.993 9.288ZM130.465 4.296H127.153V7.992H130.465C131.497 7.992 132.265 7.2 132.265 6.144C132.265 5.088 131.521 4.296 130.465 4.296ZM127.153 14.904H130.969C132.097 14.904 132.913 14.064 132.913 12.912C132.913 11.784 132.097 10.944 130.969 10.944H127.153V14.904ZM148.64 16.512C147.416 17.736 145.904 18.336 144.128 18.336C142.352 18.336 140.84 17.736 139.616 16.512C138.392 15.288 137.792 13.776 137.792 12C137.792 10.224 138.392 8.736 139.616 7.512C140.84 6.288 142.352 5.664 144.128 5.664C145.904 5.664 147.416 6.288 148.64 7.512C149.864 8.736 150.488 10.224 150.488 12C150.488 13.776 149.864 15.288 148.64 16.512ZM141.8 14.376C142.424 15 143.192 15.312 144.128 15.312C145.064 15.312 145.832 15 146.456 14.376C147.08 13.752 147.392 12.96 147.392 12C147.392 11.04 147.08 10.248 146.456 9.624C145.832 9 145.064 8.688 144.128 8.688C143.192 8.688 142.424 9 141.8 9.624C141.2 10.248 140.888 11.04 140.888 12C140.888 12.96 141.2 13.752 141.8 14.376ZM159.272 6V8.976H156.56V13.968C156.56 15.264 157.496 15.288 159.272 15.192V18C155.024 18.48 153.464 17.256 153.464 13.968V8.976H151.376V6H153.464V3.576L156.56 2.64V6H159.272Z" fill="#292929"/>
</svg>
