<svg width="110" height="18" viewBox="0 0 110 18" fill="none" xmlns="http://www.w3.org/2000/svg">
<path d="M10.52 0.699999V3.34H3.44V8.044H10.28V10.684H3.44V17.5H0.68V0.699999H10.52ZM22.4379 7.204V5.5H25.0299V17.5H22.4379V15.772C21.4539 17.14 20.0619 17.812 18.2379 17.812C16.5819 17.812 15.1899 17.212 14.0139 15.988C12.8379 14.764 12.2619 13.252 12.2619 11.5C12.2619 9.724 12.8379 8.236 14.0139 7.012C15.1899 5.788 16.5819 5.188 18.2379 5.188C20.0619 5.188 21.4539 5.86 22.4379 7.204ZM15.9339 14.26C16.6539 14.98 17.5659 15.34 18.6459 15.34C19.7259 15.34 20.6379 14.98 21.3579 14.26C22.0779 13.516 22.4379 12.604 22.4379 11.5C22.4379 10.396 22.0779 9.484 21.3579 8.764C20.6379 8.02 19.7259 7.66 18.6459 7.66C17.5659 7.66 16.6539 8.02 15.9339 8.764C15.2139 9.484 14.8539 10.396 14.8539 11.5C14.8539 12.604 15.2139 13.516 15.9339 14.26ZM33.7151 17.812C31.9151 17.812 30.4031 17.212 29.1791 15.988C27.9791 14.764 27.3791 13.276 27.3791 11.5C27.3791 9.7 27.9791 8.212 29.1791 7.012C30.4031 5.788 31.9151 5.188 33.7151 5.188C36.0431 5.188 38.1071 6.388 39.0671 8.284L36.8351 9.58C36.2831 8.428 35.1311 7.732 33.6911 7.732C32.6351 7.732 31.7471 8.092 31.0271 8.812C30.3311 9.532 29.9711 10.42 29.9711 11.5C29.9711 12.58 30.3311 13.468 31.0271 14.188C31.7471 14.908 32.6351 15.268 33.6911 15.268C35.1071 15.268 36.3071 14.548 36.8831 13.42L39.1151 14.692C38.0831 16.612 36.0431 17.812 33.7151 17.812ZM52.3931 12.604H42.8411C43.2251 14.428 44.6891 15.436 46.6811 15.436C48.0491 15.436 49.0811 14.932 49.7771 13.948L51.9131 15.196C50.7371 16.948 48.9851 17.812 46.6571 17.812C44.7131 17.812 43.1291 17.212 41.9291 16.036C40.7291 14.836 40.1291 13.324 40.1291 11.5C40.1291 9.7 40.7291 8.212 41.9051 7.012C43.0811 5.788 44.6171 5.188 46.4651 5.188C48.2171 5.188 49.6571 5.812 50.7851 7.036C51.9131 8.26 52.4891 9.772 52.4891 11.524C52.4891 11.788 52.4651 12.148 52.3931 12.604ZM42.8171 10.492H49.8731C49.5131 8.548 48.1451 7.54 46.4411 7.54C44.5211 7.54 43.1771 8.668 42.8171 10.492ZM61.5618 5.188C63.2178 5.188 64.6098 5.788 65.7858 7.012C66.9618 8.236 67.5378 9.724 67.5378 11.5C67.5378 13.252 66.9618 14.764 65.7858 15.988C64.6098 17.212 63.2178 17.812 61.5618 17.812C59.7378 17.812 58.3458 17.14 57.3618 15.772V17.5H54.7698V0.699999H57.3618V7.204C58.3458 5.86 59.7378 5.188 61.5618 5.188ZM58.4418 14.26C59.1618 14.98 60.0738 15.34 61.1538 15.34C62.2338 15.34 63.1458 14.98 63.8658 14.26C64.5858 13.516 64.9458 12.604 64.9458 11.5C64.9458 10.396 64.5858 9.484 63.8658 8.764C63.1458 8.02 62.2338 7.66 61.1538 7.66C60.0738 7.66 59.1618 8.02 58.4418 8.764C57.7218 9.484 57.3618 10.396 57.3618 11.5C57.3618 12.604 57.7218 13.516 58.4418 14.26ZM75.551 17.812C73.799 17.812 72.287 17.212 71.063 15.988C69.839 14.764 69.215 13.276 69.215 11.5C69.215 9.724 69.839 8.236 71.063 7.012C72.287 5.788 73.799 5.188 75.551 5.188C77.327 5.188 78.815 5.788 80.039 7.012C81.263 8.236 81.887 9.724 81.887 11.5C81.887 13.276 81.263 14.764 80.039 15.988C78.815 17.212 77.327 17.812 75.551 17.812ZM72.887 14.212C73.607 14.932 74.495 15.292 75.551 15.292C76.607 15.292 77.495 14.932 78.215 14.212C78.935 13.492 79.295 12.58 79.295 11.5C79.295 10.42 78.935 9.508 78.215 8.788C77.495 8.068 76.607 7.708 75.551 7.708C74.495 7.708 73.607 8.068 72.887 8.788C72.167 9.508 71.807 10.42 71.807 11.5C71.807 12.58 72.167 13.492 72.887 14.212ZM89.8948 17.812C88.1428 17.812 86.6308 17.212 85.4068 15.988C84.1828 14.764 83.5588 13.276 83.5588 11.5C83.5588 9.724 84.1828 8.236 85.4068 7.012C86.6308 5.788 88.1428 5.188 89.8948 5.188C91.6708 5.188 93.1588 5.788 94.3828 7.012C95.6068 8.236 96.2308 9.724 96.2308 11.5C96.2308 13.276 95.6068 14.764 94.3828 15.988C93.1588 17.212 91.6708 17.812 89.8948 17.812ZM87.2308 14.212C87.9508 14.932 88.8388 15.292 89.8948 15.292C90.9508 15.292 91.8388 14.932 92.5588 14.212C93.2788 13.492 93.6388 12.58 93.6388 11.5C93.6388 10.42 93.2788 9.508 92.5588 8.788C91.8388 8.068 90.9508 7.708 89.8948 7.708C88.8388 7.708 87.9508 8.068 87.2308 8.788C86.5108 9.508 86.1508 10.42 86.1508 11.5C86.1508 12.58 86.5108 13.492 87.2308 14.212ZM103.711 11.38L109.182 17.5H106.087L101.167 11.956V17.5H98.5745V0.699999H101.167V10.804L105.823 5.5H108.991L103.711 11.38Z" fill="#292929"/>
</svg>
