<svg width="194" height="43" viewBox="0 0 194 43" fill="none" xmlns="http://www.w3.org/2000/svg">
<g clip-path="url(#clip0_416_788)">
<path d="M90.0858 12.2817C91.6406 13.9298 92.418 16.1666 92.418 18.9685V32.6719H85.7276V19.5572C85.7276 17.2733 84.6203 15.9077 82.5237 15.9077C80.427 15.9077 79.0371 17.4616 79.0371 20.0987V32.6719H72.3466V19.5572C72.3466 17.2733 71.2394 15.9077 69.1427 15.9077C67.0461 15.9077 65.6562 17.4616 65.6562 20.0987V32.6719H58.9657V10.3745H65.6562V12.4229C66.8576 10.6335 68.8601 9.73877 71.6399 9.73877C74.2313 9.73877 76.1866 10.7277 77.4823 12.6819C78.8722 10.7277 81.016 9.73877 83.9607 9.73877C86.505 9.73877 88.5545 10.5864 90.1094 12.2817H90.0858Z" fill="#6250EB"/>
<path d="M97.5065 7.24292C95.9516 5.64183 95.9516 3.14603 97.5065 1.56849C99.1084 -0.0325952 101.606 -0.0325952 103.184 1.56849C104.786 3.12248 104.786 5.61829 103.184 7.24292C101.582 8.86755 99.132 8.79691 97.5065 7.24292ZM97.0117 32.6719V10.3744H103.702V32.6719H97.0117Z" fill="#6250EB"/>
<path d="M127.614 12.1875C129.216 13.8357 130.017 16.0725 130.017 18.9685V32.6719H123.326V19.9575C123.326 17.3204 121.724 15.9077 119.439 15.9077C116.895 15.9077 115.293 17.4616 115.293 20.499V32.6719H108.602V10.3745H115.293V12.47C116.636 10.6335 118.779 9.73877 121.677 9.73877C124.033 9.73877 126.059 10.5393 127.614 12.1875Z" fill="#6250EB"/>
<path d="M135.129 7.24292C133.574 5.64183 133.574 3.14603 135.129 1.56849C136.731 -0.0325952 139.228 -0.0325952 140.806 1.56849C142.408 3.12248 142.408 5.61829 140.806 7.24292C139.204 8.86755 136.754 8.79691 135.129 7.24292ZM134.634 32.6719V10.3744H141.324V32.6719H134.634Z" fill="#6250EB"/>
<path d="M156.943 33.3076C153.645 33.3076 150.818 32.2009 148.557 29.917C146.295 27.6331 145.117 24.8312 145.117 21.5349C145.117 18.2385 146.272 15.4602 148.557 13.1998C150.842 10.9159 153.645 9.76221 156.943 9.76221C160.241 9.76221 163.068 10.9159 165.33 13.1998C167.592 15.4837 168.769 18.2385 168.769 21.5349C168.769 24.8312 167.615 27.6567 165.33 29.917C163.045 32.2009 160.241 33.3076 156.943 33.3076ZM156.943 26.7855C158.427 26.7855 159.629 26.291 160.595 25.3021C161.561 24.3132 162.079 23.0653 162.079 21.5113C162.079 19.9573 161.584 18.7094 160.595 17.7205C159.605 16.7316 158.404 16.2372 156.943 16.2372C155.483 16.2372 154.258 16.7316 153.292 17.7205C152.302 18.7094 151.808 19.9573 151.808 21.5113C151.808 23.0653 152.302 24.3132 153.292 25.3021C154.281 26.291 155.483 26.7855 156.943 26.7855Z" fill="#6250EB"/>
<path d="M191.597 12.1875C193.199 13.8357 194 16.0725 194 18.9685V32.6719H187.31V19.9575C187.31 17.3204 185.708 15.9077 183.422 15.9077C180.878 15.9077 179.276 17.4616 179.276 20.499V32.6719H172.586V10.3745H179.276V12.47C180.619 10.6335 182.763 9.73877 185.66 9.73877C188.016 9.73877 190.042 10.5393 191.597 12.1875Z" fill="#6250EB"/>
<path d="M47.8227 13.5768C47.8227 13.5768 47.7049 13.5768 47.6342 13.5768C44.7366 5.90105 35.9495 0.320801 25.584 0.320801C15.2185 0.320801 6.36066 5.94814 3.48658 13.6946C3.27456 13.6004 3.0861 13.5533 2.85052 13.5533C1.27213 13.5533 0 15.9549 0 18.9216C0 21.8883 1.27213 24.29 2.85052 24.29C3.01542 24.29 3.18033 24.2664 3.34523 24.1958C6.0544 32.1306 14.9829 37.9698 25.584 37.9698C28.4816 37.9698 31.2614 37.5225 33.8057 36.7455L36.9154 42.6553L43.3703 31.1417C45.3727 29.1639 46.9039 26.8329 47.7756 24.29C47.7756 24.29 47.7756 24.29 47.7992 24.29C49.3775 24.29 50.6497 21.8883 50.6497 18.9216C50.6497 15.9549 49.3775 13.5533 47.7992 13.5533L47.8227 13.5768ZM23.9114 24.2193C23.9114 25.7969 22.6392 27.0683 21.0608 27.0683H19.1526C17.5743 27.0683 16.3021 25.7969 16.3021 24.2193V14.1184C16.3021 12.5408 17.5743 11.2694 19.1526 11.2694H21.0608C22.6392 11.2694 23.9114 12.5408 23.9114 14.1184V24.2193ZM28.458 24.2193V14.1184C28.458 12.5408 29.7302 11.2694 31.3086 11.2694H33.2168C34.7951 11.2694 36.0673 12.5408 36.0673 14.1184V24.2193C36.0673 25.7969 34.7951 27.0683 33.2168 27.0683H31.3086C29.7302 27.0683 28.458 25.7969 28.458 24.2193Z" fill="#6250EB"/>
</g>
<defs>
<clipPath id="clip0_416_788">
<rect width="194" height="42.3581" fill="white" transform="translate(0 0.320801)"/>
</clipPath>
</defs>
</svg>
