<svg width="111" height="23" viewBox="0 0 111 23" fill="none" xmlns="http://www.w3.org/2000/svg">
<path d="M0.68 17.5V0.699999H3.44V17.5H0.68ZM12.9412 5.188C15.7012 5.188 17.5492 7.06 17.5492 10.132V17.5H14.9572V10.396C14.9572 8.596 13.9252 7.612 12.2692 7.612C10.4452 7.612 9.22119 8.74 9.22119 11.068V17.5H6.62919V5.5H9.22119V7.036C10.0132 5.812 11.2372 5.188 12.9412 5.188ZM22.6681 8.812C22.6681 9.604 23.6761 10.012 24.9241 10.372C26.7721 10.78 29.1721 11.548 29.1241 14.116C29.1241 15.268 28.6681 16.18 27.7801 16.828C26.8921 17.476 25.7881 17.812 24.4441 17.812C22.0681 17.812 20.3161 16.756 19.5481 15.004L21.7801 13.708C22.1881 14.86 23.0761 15.436 24.4441 15.436C25.8121 15.436 26.4841 14.98 26.4841 14.092C26.4841 13.324 25.4761 12.868 24.2041 12.556C22.4041 12.1 19.9801 11.38 20.0281 8.86C20.0281 7.756 20.4361 6.868 21.2761 6.196C22.1161 5.524 23.1721 5.188 24.4201 5.188C26.4121 5.188 28.0201 6.124 28.8601 7.684L26.6761 8.908C26.2681 7.996 25.5001 7.54 24.4201 7.54C23.4361 7.54 22.6681 7.972 22.6681 8.812ZM37.6299 5.5V7.996H34.6539V13.756C34.6539 15.292 35.6619 15.268 37.6299 15.172V17.5C33.6699 17.98 32.0619 16.9 32.0619 13.756V7.996H29.8539V5.5H32.0619V2.908L34.6539 2.14V5.5H37.6299ZM48.9926 7.204V5.5H51.5846V17.5H48.9926V15.772C48.0086 17.14 46.6166 17.812 44.7926 17.812C43.1366 17.812 41.7446 17.212 40.5686 15.988C39.3926 14.764 38.8166 13.252 38.8166 11.5C38.8166 9.724 39.3926 8.236 40.5686 7.012C41.7446 5.788 43.1366 5.188 44.7926 5.188C46.6166 5.188 48.0086 5.86 48.9926 7.204ZM42.4886 14.26C43.2086 14.98 44.1206 15.34 45.2006 15.34C46.2806 15.34 47.1926 14.98 47.9126 14.26C48.6326 13.516 48.9926 12.604 48.9926 11.5C48.9926 10.396 48.6326 9.484 47.9126 8.764C47.1926 8.02 46.2806 7.66 45.2006 7.66C44.1206 7.66 43.2086 8.02 42.4886 8.764C41.7686 9.484 41.4086 10.396 41.4086 11.5C41.4086 12.604 41.7686 13.516 42.4886 14.26ZM64.1578 7.276V5.5H66.7018V16.948C66.7018 18.772 66.1018 20.164 64.9018 21.148C63.7018 22.132 62.2378 22.612 60.5338 22.612C57.7738 22.612 55.8778 21.652 54.8458 19.708L57.0778 18.412C57.7018 19.636 58.8778 20.26 60.5818 20.26C62.8138 20.26 64.1578 19.036 64.1578 16.948V15.484C63.1738 16.876 61.7818 17.572 59.9818 17.572C58.2778 17.572 56.8618 16.972 55.6858 15.772C54.5098 14.548 53.9338 13.084 53.9338 11.38C53.9338 9.676 54.5098 8.212 55.6858 7.012C56.8618 5.788 58.2778 5.188 59.9818 5.188C61.7818 5.188 63.1738 5.884 64.1578 7.276ZM57.6058 14.068C58.3498 14.788 59.2617 15.148 60.3418 15.148C61.4218 15.148 62.3338 14.788 63.0538 14.068C63.7978 13.348 64.1578 12.46 64.1578 11.38C64.1578 10.3 63.7978 9.412 63.0538 8.692C62.3338 7.972 61.4218 7.612 60.3418 7.612C59.2617 7.612 58.3498 7.972 57.6058 8.692C56.8858 9.412 56.5258 10.3 56.5258 11.38C56.5258 12.46 56.8858 13.348 57.6058 14.068ZM72.3149 5.5V7.516C72.9629 6.028 74.2109 5.284 76.0109 5.284V8.092C75.0269 8.02 74.1629 8.26 73.4189 8.812C72.6749 9.34 72.3149 10.228 72.3149 11.452V17.5H69.7229V5.5H72.3149ZM86.8676 7.204V5.5H89.4596V17.5H86.8676V15.772C85.8836 17.14 84.4916 17.812 82.6676 17.812C81.0116 17.812 79.6196 17.212 78.4436 15.988C77.2676 14.764 76.6916 13.252 76.6916 11.5C76.6916 9.724 77.2676 8.236 78.4436 7.012C79.6196 5.788 81.0116 5.188 82.6676 5.188C84.4916 5.188 85.8836 5.86 86.8676 7.204ZM80.3636 14.26C81.0836 14.98 81.9956 15.34 83.0756 15.34C84.1556 15.34 85.0676 14.98 85.7876 14.26C86.5076 13.516 86.8676 12.604 86.8676 11.5C86.8676 10.396 86.5076 9.484 85.7876 8.764C85.0676 8.02 84.1556 7.66 83.0756 7.66C81.9956 7.66 81.0836 8.02 80.3636 8.764C79.6436 9.484 79.2836 10.396 79.2836 11.5C79.2836 12.604 79.6436 13.516 80.3636 14.26ZM105.585 5.188C108.297 5.188 110.121 7.084 110.121 10.06V17.5H107.529V10.228C107.529 8.572 106.641 7.612 105.201 7.612C103.593 7.612 102.585 8.668 102.585 10.78V17.5H99.9928V10.228C99.9928 8.572 99.1768 7.612 97.7368 7.612C96.1768 7.612 95.0728 8.692 95.0728 10.78V17.5H92.4808V5.5H95.0728V6.94C95.8408 5.764 96.9928 5.188 98.5048 5.188C100.041 5.188 101.169 5.812 101.913 7.084C102.705 5.812 103.929 5.188 105.585 5.188Z" fill="#292929"/>
</svg>
