<svg width="226" height="35" viewBox="0 0 226 35" fill="none" xmlns="http://www.w3.org/2000/svg">
<path d="M0.34 26.5V1.3H5.308V26.5H0.34ZM19.7648 7.996C21.7448 7.996 23.3648 8.644 24.6248 9.976C25.9208 11.308 26.5688 13.108 26.5688 15.448V26.5H21.9248V16.024C21.9248 13.612 20.5208 12.316 18.3608 12.316C15.9488 12.316 14.4008 13.792 14.4008 16.78V26.5H9.75681V8.5H14.4008V10.516C15.5168 8.824 17.3168 7.996 19.7648 7.996ZM40.8302 8.5V12.964H36.7622V20.452C36.7622 22.396 38.1662 22.432 40.8302 22.288V26.5C34.4582 27.22 32.1182 25.384 32.1182 20.452V12.964H28.9862V8.5H32.1182V4.864L36.7622 3.46V8.5H40.8302ZM61.038 19.408H47.466C48.078 21.676 49.77 22.792 52.542 22.792C54.306 22.792 55.674 22.18 56.574 20.992L60.318 23.152C58.554 25.708 55.926 27.004 52.47 27.004C49.482 27.004 47.106 26.104 45.306 24.304C43.506 22.504 42.606 20.236 42.606 17.5C42.606 14.8 43.506 12.532 45.27 10.732C47.034 8.896 49.338 7.996 52.11 7.996C54.738 7.996 56.934 8.896 58.626 10.732C60.354 12.568 61.218 14.8 61.218 17.5C61.218 18.112 61.146 18.724 61.038 19.408ZM47.394 15.808H56.574C56.034 13.36 54.234 12.172 52.11 12.172C49.626 12.172 47.934 13.504 47.394 15.808ZM78.1073 10.732V8.5H82.6433V25.636C82.6433 28.408 81.7073 30.532 79.8713 32.008C78.0353 33.484 75.8393 34.204 73.2473 34.204C69.3593 34.204 66.2993 32.692 64.7153 29.812L68.6753 27.544C69.5753 29.236 71.1593 30.064 73.3913 30.064C76.3073 30.064 78.1073 28.48 78.1073 25.636V23.692C76.7393 25.528 74.8313 26.428 72.3473 26.428C69.7913 26.428 67.6673 25.528 65.9393 23.764C64.2473 21.964 63.3833 19.768 63.3833 17.212C63.3833 14.656 64.2473 12.496 65.9753 10.696C67.7033 8.896 69.8273 7.996 72.3473 7.996C74.8313 7.996 76.7393 8.896 78.1073 10.732ZM78.1073 17.212C78.1073 15.808 77.6393 14.62 76.6673 13.72C75.7313 12.784 74.5433 12.316 73.0673 12.316C71.5913 12.316 70.4033 12.784 69.4313 13.72C68.4953 14.62 68.0273 15.808 68.0273 17.212C68.0273 20.092 70.1513 22.144 73.0673 22.144C75.9833 22.144 78.1073 20.092 78.1073 17.212ZM91.4985 8.5V11.596C92.3625 9.292 94.5225 8.14 96.9705 8.14V13.324C95.5665 13.144 94.2705 13.432 93.1545 14.188C92.0385 14.944 91.4985 16.168 91.4985 17.896V26.5H86.8545V8.5H91.4985ZM112.699 10.624V8.5H117.343V26.5H112.699V24.376C111.295 26.14 109.351 27.004 106.831 27.004C104.419 27.004 102.367 26.104 100.639 24.268C98.9465 22.432 98.0825 20.164 98.0825 17.5C98.0825 14.836 98.9465 12.604 100.639 10.768C102.367 8.932 104.419 7.996 106.831 7.996C109.351 7.996 111.295 8.86 112.699 10.624ZM104.131 21.172C105.067 22.108 106.255 22.576 107.695 22.576C109.135 22.576 110.323 22.108 111.259 21.172C112.231 20.2 112.699 18.976 112.699 17.5C112.699 16.024 112.231 14.8 111.259 13.864C110.323 12.892 109.135 12.424 107.695 12.424C106.255 12.424 105.067 12.892 104.131 13.864C103.195 14.8 102.727 16.024 102.727 17.5C102.727 18.976 103.195 20.2 104.131 21.172ZM130.122 27.004C127.422 27.004 125.154 26.104 123.318 24.268C121.518 22.432 120.618 20.2 120.618 17.5C120.618 14.8 121.518 12.568 123.318 10.732C125.154 8.896 127.422 7.996 130.122 7.996C133.614 7.996 136.71 9.796 138.186 12.64L134.19 14.98C133.47 13.504 131.922 12.568 130.086 12.568C127.314 12.568 125.262 14.62 125.262 17.5C125.262 18.904 125.73 20.092 126.63 21.028C127.53 21.928 128.682 22.396 130.086 22.396C131.958 22.396 133.506 21.496 134.226 20.02L138.258 22.324C136.674 25.168 133.614 27.004 130.122 27.004ZM143.018 6.34C141.47 6.34 140.174 5.044 140.174 3.496C140.174 1.948 141.47 0.615999 143.018 0.615999C144.602 0.615999 145.898 1.948 145.898 3.496C145.898 5.044 144.602 6.34 143.018 6.34ZM145.358 26.5H140.714V8.5H145.358V26.5ZM164.944 24.268C163.108 26.104 160.84 27.004 158.176 27.004C155.512 27.004 153.244 26.104 151.408 24.268C149.572 22.432 148.672 20.164 148.672 17.5C148.672 14.836 149.572 12.604 151.408 10.768C153.244 8.932 155.512 7.996 158.176 7.996C160.84 7.996 163.108 8.932 164.944 10.768C166.78 12.604 167.716 14.836 167.716 17.5C167.716 20.164 166.78 22.432 164.944 24.268ZM154.684 21.064C155.62 22 156.772 22.468 158.176 22.468C159.58 22.468 160.732 22 161.668 21.064C162.604 20.128 163.072 18.94 163.072 17.5C163.072 16.06 162.604 14.872 161.668 13.936C160.732 13 159.58 12.532 158.176 12.532C156.772 12.532 155.62 13 154.684 13.936C153.784 14.872 153.316 16.06 153.316 17.5C153.316 18.94 153.784 20.128 154.684 21.064ZM180.991 7.996C182.971 7.996 184.591 8.644 185.851 9.976C187.147 11.308 187.795 13.108 187.795 15.448V26.5H183.151V16.024C183.151 13.612 181.747 12.316 179.587 12.316C177.175 12.316 175.627 13.792 175.627 16.78V26.5H170.983V8.5H175.627V10.516C176.743 8.824 178.543 7.996 180.991 7.996ZM209.257 19.408H195.685C196.297 21.676 197.989 22.792 200.761 22.792C202.525 22.792 203.893 22.18 204.793 20.992L208.537 23.152C206.773 25.708 204.145 27.004 200.689 27.004C197.701 27.004 195.325 26.104 193.525 24.304C191.725 22.504 190.825 20.236 190.825 17.5C190.825 14.8 191.725 12.532 193.489 10.732C195.253 8.896 197.557 7.996 200.329 7.996C202.957 7.996 205.153 8.896 206.845 10.732C208.573 12.568 209.437 14.8 209.437 17.5C209.437 18.112 209.365 18.724 209.257 19.408ZM195.613 15.808H204.793C204.253 13.36 202.453 12.172 200.329 12.172C197.845 12.172 196.153 13.504 195.613 15.808ZM216.26 13.612C216.26 14.584 217.7 15.124 219.536 15.592C222.164 16.132 225.584 17.392 225.548 21.244C225.548 23.08 224.864 24.52 223.46 25.528C222.092 26.5 220.364 27.004 218.312 27.004C214.604 27.004 212.084 25.564 210.752 22.72L214.784 20.452C215.324 22 216.476 22.792 218.312 22.792C219.968 22.792 220.796 22.288 220.796 21.244C220.796 20.272 219.356 19.732 217.52 19.264C214.856 18.58 211.508 17.464 211.508 13.72C211.508 11.956 212.156 10.552 213.452 9.544C214.784 8.5 216.404 7.996 218.348 7.996C221.264 7.996 223.784 9.364 225.188 11.812L221.228 13.972C220.652 12.748 219.68 12.136 218.348 12.136C217.16 12.136 216.26 12.712 216.26 13.612Z" fill="#292929"/>
</svg>
