<svg width="317" height="34" viewBox="0 0 317 34" fill="none" xmlns="http://www.w3.org/2000/svg">
<path d="M4.66 0.799998V22.04H14.92V26H0.52V0.799998H4.66ZM21.4127 4.58C20.4407 5.552 18.9287 5.552 17.9207 4.58C16.9487 3.572 16.9487 2.06 17.9207 1.088C18.8927 0.079999 20.4767 0.079999 21.4487 1.088C22.4207 2.06 22.4207 3.572 21.4127 4.58ZM21.6287 26H17.7407V8H21.6287V26ZM29.5295 12.968C29.5295 14.156 31.0415 14.768 32.9135 15.308C35.6855 15.92 39.2855 17.072 39.2135 20.924C39.2135 22.652 38.5295 24.02 37.1975 24.992C35.8655 25.964 34.2095 26.468 32.1935 26.468C28.6295 26.468 26.0015 24.884 24.8495 22.256L28.1975 20.312C28.8095 22.04 30.1415 22.904 32.1935 22.904C34.2455 22.904 35.2535 22.22 35.2535 20.888C35.2535 19.736 33.7415 19.052 31.8335 18.584C29.1335 17.9 25.4975 16.82 25.5695 13.04C25.5695 11.384 26.1815 10.052 27.4415 9.044C28.7015 8.036 30.2855 7.532 32.1575 7.532C35.1455 7.532 37.5575 8.936 38.8175 11.276L35.5415 13.112C34.9295 11.744 33.7775 11.06 32.1575 11.06C30.6815 11.06 29.5295 11.708 29.5295 12.968ZM51.9722 8V11.744H47.5082V20.384C47.5082 22.688 49.0202 22.652 51.9722 22.508V26C46.0322 26.72 43.6202 25.1 43.6202 20.384V11.744H40.3082V8H43.6202V4.112L47.5082 2.96V8H51.9722ZM69.0162 10.556V8H72.9042V26H69.0162V23.408C67.5402 25.46 65.4522 26.468 62.7162 26.468C60.2322 26.468 58.1442 25.568 56.3802 23.732C54.6162 21.896 53.7522 19.628 53.7522 17C53.7522 14.336 54.6162 12.104 56.3802 10.268C58.1442 8.432 60.2322 7.532 62.7162 7.532C65.4522 7.532 67.5402 8.54 69.0162 10.556ZM59.2602 21.14C60.3402 22.22 61.7082 22.76 63.3282 22.76C64.9482 22.76 66.3162 22.22 67.3962 21.14C68.4762 20.024 69.0162 18.656 69.0162 17C69.0162 15.344 68.4762 13.976 67.3962 12.896C66.3162 11.78 64.9482 11.24 63.3282 11.24C61.7082 11.24 60.3402 11.78 59.2602 12.896C58.1802 13.976 57.6402 15.344 57.6402 17C57.6402 18.656 58.1802 20.024 59.2602 21.14ZM91.692 10.556V0.799998H95.58V26H91.692V23.408C90.216 25.46 88.128 26.468 85.392 26.468C82.908 26.468 80.82 25.568 79.056 23.732C77.292 21.896 76.428 19.628 76.428 17C76.428 14.336 77.292 12.104 79.056 10.268C80.82 8.432 82.908 7.532 85.392 7.532C88.128 7.532 90.216 8.54 91.692 10.556ZM81.936 21.14C83.016 22.22 84.384 22.76 86.004 22.76C87.624 22.76 88.992 22.22 90.072 21.14C91.152 20.024 91.692 18.656 91.692 17C91.692 15.344 91.152 13.976 90.072 12.896C88.992 11.78 87.624 11.24 86.004 11.24C84.384 11.24 83.016 11.78 81.936 12.896C80.856 13.976 80.316 15.344 80.316 17C80.316 18.656 80.856 20.024 81.936 21.14ZM108.608 26.468C105.98 26.468 103.712 25.568 101.876 23.732C100.04 21.896 99.1038 19.664 99.1038 17C99.1038 14.336 100.04 12.104 101.876 10.268C103.712 8.432 105.98 7.532 108.608 7.532C111.272 7.532 113.504 8.432 115.34 10.268C117.176 12.104 118.112 14.336 118.112 17C118.112 19.664 117.176 21.896 115.34 23.732C113.504 25.568 111.272 26.468 108.608 26.468ZM104.612 21.068C105.692 22.148 107.024 22.688 108.608 22.688C110.192 22.688 111.524 22.148 112.604 21.068C113.684 19.988 114.224 18.62 114.224 17C114.224 15.38 113.684 14.012 112.604 12.932C111.524 11.852 110.192 11.312 108.608 11.312C107.024 11.312 105.692 11.852 104.612 12.932C103.532 14.012 102.992 15.38 102.992 17C102.992 18.62 103.532 19.988 104.612 21.068ZM144.883 10.556V0.799998H148.771V26H144.883V23.408C143.407 25.46 141.319 26.468 138.583 26.468C136.099 26.468 134.011 25.568 132.247 23.732C130.483 21.896 129.619 19.628 129.619 17C129.619 14.336 130.483 12.104 132.247 10.268C134.011 8.432 136.099 7.532 138.583 7.532C141.319 7.532 143.407 8.54 144.883 10.556ZM135.127 21.14C136.207 22.22 137.575 22.76 139.195 22.76C140.815 22.76 142.183 22.22 143.263 21.14C144.343 20.024 144.883 18.656 144.883 17C144.883 15.344 144.343 13.976 143.263 12.896C142.183 11.78 140.815 11.24 139.195 11.24C137.575 11.24 136.207 11.78 135.127 12.896C134.047 13.976 133.507 15.344 133.507 17C133.507 18.656 134.047 20.024 135.127 21.14ZM170.691 18.656H156.363C156.939 21.392 159.135 22.904 162.123 22.904C164.175 22.904 165.723 22.148 166.767 20.672L169.971 22.544C168.207 25.172 165.579 26.468 162.087 26.468C159.171 26.468 156.795 25.568 154.995 23.804C153.195 22.004 152.295 19.736 152.295 17C152.295 14.3 153.195 12.068 154.959 10.268C156.723 8.432 159.027 7.532 161.799 7.532C164.427 7.532 166.587 8.468 168.279 10.304C169.971 12.14 170.835 14.408 170.835 17.036C170.835 17.432 170.799 17.972 170.691 18.656ZM156.327 15.488H166.911C166.371 12.572 164.319 11.06 161.763 11.06C158.883 11.06 156.867 12.752 156.327 15.488ZM183.508 0.799998H192.796C195.172 0.799998 197.152 1.592 198.736 3.176C200.356 4.76 201.148 6.74 201.148 9.08C201.148 11.42 200.356 13.364 198.736 14.984C197.152 16.568 195.172 17.36 192.796 17.36H187.648V26H183.508V0.799998ZM187.648 13.472H192.796C195.244 13.472 197.008 11.636 197.008 9.08C197.008 6.524 195.244 4.688 192.796 4.688H187.648V13.472ZM208.027 8V11.024C208.999 8.792 210.871 7.676 213.571 7.676V11.888C212.095 11.78 210.799 12.14 209.683 12.968C208.567 13.76 208.027 15.092 208.027 16.928V26H204.139V8H208.027ZM224.096 26.468C221.468 26.468 219.2 25.568 217.364 23.732C215.528 21.896 214.592 19.664 214.592 17C214.592 14.336 215.528 12.104 217.364 10.268C219.2 8.432 221.468 7.532 224.096 7.532C226.76 7.532 228.992 8.432 230.828 10.268C232.664 12.104 233.6 14.336 233.6 17C233.6 19.664 232.664 21.896 230.828 23.732C228.992 25.568 226.76 26.468 224.096 26.468ZM220.1 21.068C221.18 22.148 222.512 22.688 224.096 22.688C225.68 22.688 227.012 22.148 228.092 21.068C229.172 19.988 229.712 18.62 229.712 17C229.712 15.38 229.172 14.012 228.092 12.932C227.012 11.852 225.68 11.312 224.096 11.312C222.512 11.312 221.18 11.852 220.1 12.932C219.02 14.012 218.48 15.38 218.48 17C218.48 18.62 219.02 19.988 220.1 21.068ZM256.772 7.532C260.84 7.532 263.576 10.376 263.576 14.84V26H259.688V15.092C259.688 12.608 258.356 11.168 256.196 11.168C253.784 11.168 252.272 12.752 252.272 15.92V26H248.384V15.092C248.384 12.608 247.16 11.168 245 11.168C242.66 11.168 241.004 12.788 241.004 15.92V26H237.116V8H241.004V10.16C242.156 8.396 243.884 7.532 246.152 7.532C248.456 7.532 250.148 8.468 251.264 10.376C252.452 8.468 254.288 7.532 256.772 7.532ZM277.925 7.532C280.409 7.532 282.497 8.468 284.261 10.304C286.025 12.14 286.889 14.372 286.889 17C286.889 19.664 286.025 21.896 284.261 23.732C282.497 25.568 280.409 26.468 277.925 26.468C275.189 26.468 273.101 25.46 271.625 23.444V33.2H267.737V8H271.625V10.592C273.101 8.54 275.189 7.532 277.925 7.532ZM273.245 21.14C274.325 22.22 275.693 22.76 277.313 22.76C278.933 22.76 280.301 22.22 281.381 21.14C282.461 20.024 283.001 18.656 283.001 17C283.001 15.344 282.461 13.976 281.381 12.896C280.301 11.78 278.933 11.24 277.313 11.24C275.693 11.24 274.325 11.78 273.245 12.896C272.165 13.976 271.625 15.344 271.625 17C271.625 18.656 272.165 20.024 273.245 21.14ZM300.105 8V11.744H295.641V20.384C295.641 22.688 297.153 22.652 300.105 22.508V26C294.165 26.72 291.753 25.1 291.753 20.384V11.744H288.441V8H291.753V4.112L295.641 2.96V8H300.105ZM306.455 12.968C306.455 14.156 307.967 14.768 309.839 15.308C312.611 15.92 316.211 17.072 316.139 20.924C316.139 22.652 315.455 24.02 314.123 24.992C312.791 25.964 311.135 26.468 309.119 26.468C305.555 26.468 302.927 24.884 301.775 22.256L305.123 20.312C305.735 22.04 307.067 22.904 309.119 22.904C311.171 22.904 312.179 22.22 312.179 20.888C312.179 19.736 310.667 19.052 308.759 18.584C306.059 17.9 302.423 16.82 302.495 13.04C302.495 11.384 303.107 10.052 304.367 9.044C305.627 8.036 307.211 7.532 309.083 7.532C312.071 7.532 314.483 8.936 315.743 11.276L312.467 13.112C311.855 11.744 310.703 11.06 309.083 11.06C307.607 11.06 306.455 11.708 306.455 12.968Z" fill="#292929"/>
</svg>
