<svg width="24" height="25" viewBox="0 0 24 25" fill="none" xmlns="http://www.w3.org/2000/svg">
<path fill-rule="evenodd" clip-rule="evenodd" d="M7 3.5C4.23858 3.5 2 5.73858 2 8.5V21.4194C2 22.2579 2.96993 22.7241 3.6247 22.2002L6.45217 19.9383C6.8068 19.6546 7.24742 19.5 7.70156 19.5H17C19.7614 19.5 22 17.2614 22 14.5V8.5C22 5.73858 19.7614 3.5 17 3.5H7Z" fill="#6250EB"/>
<path fill-rule="evenodd" clip-rule="evenodd" d="M7 4.25C4.65279 4.25 2.75 6.15279 2.75 8.5V21.4194C2.75 21.629 2.99248 21.7455 3.15617 21.6146L5.98365 19.3526C6.47126 18.9625 7.07712 18.75 7.70156 18.75H17C19.3472 18.75 21.25 16.8472 21.25 14.5V8.5C21.25 6.15279 19.3472 4.25 17 4.25H7ZM1.25 8.5C1.25 5.32436 3.82436 2.75 7 2.75H17C20.1756 2.75 22.75 5.32436 22.75 8.5V14.5C22.75 17.6756 20.1756 20.25 17 20.25H7.70156C7.41772 20.25 7.14233 20.3466 6.92069 20.5239L4.09322 22.7859C2.94738 23.7026 1.25 22.8868 1.25 21.4194V8.5Z" fill="#6250EB"/>
<circle cx="7.0498" cy="11.5498" r="1.25" fill="white"/>
<circle cx="12.0498" cy="11.5498" r="1.25" fill="white"/>
<circle cx="17.0498" cy="11.5498" r="1.25" fill="white"/>
</svg>
