<svg width="24" height="25" viewBox="0 0 24 25" fill="none" xmlns="http://www.w3.org/2000/svg">
<path d="M2.23903 20.5292L1.53188 20.2793H1.53188L2.23903 20.5292ZM3.77027 22.0605L4.02015 22.7676H4.02015L3.77027 22.0605ZM7.15817 21.2518L6.79451 21.9077L7.15817 21.2518ZM3.10104 17.0662L3.76804 16.7233L3.10104 17.0662ZM3.16731 17.9022L3.87446 18.1521L3.16731 17.9022ZM2.75 12.5C2.75 7.39137 6.89137 3.25 12 3.25V1.75C6.06294 1.75 1.25 6.56294 1.25 12.5H2.75ZM3.76804 16.7233C3.11751 15.4581 2.75 14.023 2.75 12.5H1.25C1.25 14.2671 1.67697 15.9367 2.43404 17.4092L3.76804 16.7233ZM2.94618 20.7791L3.87446 18.1521L2.46016 17.6523L1.53188 20.2793L2.94618 20.7791ZM3.52039 21.3533C3.16372 21.4793 2.82014 21.1358 2.94618 20.7791L1.53188 20.2793C0.985728 21.8249 2.47455 23.3138 4.02015 22.7676L3.52039 21.3533ZM6.04298 20.4619L3.52039 21.3533L4.02015 22.7676L6.54274 21.8762L6.04298 20.4619ZM12 21.75C10.3739 21.75 8.84798 21.3311 7.52184 20.5958L6.79451 21.9077C8.33751 22.7632 10.113 23.25 12 23.25V21.75ZM21.25 12.5C21.25 17.6086 17.1086 21.75 12 21.75V23.25C17.9371 23.25 22.75 18.4371 22.75 12.5H21.25ZM12 3.25C17.1086 3.25 21.25 7.39137 21.25 12.5H22.75C22.75 6.56294 17.9371 1.75 12 1.75V3.25ZM6.54274 21.8762C6.60823 21.8531 6.7001 21.8554 6.79451 21.9077L7.52184 20.5958C7.08623 20.3543 6.54889 20.2832 6.04298 20.4619L6.54274 21.8762ZM2.43404 17.4092C2.4814 17.5013 2.48243 17.5893 2.46016 17.6523L3.87446 18.1521C4.04633 17.6657 3.98714 17.1494 3.76804 16.7233L2.43404 17.4092Z" fill="#7C7C7C"/>
<circle cx="7.05005" cy="12.5498" r="1.25" fill="#7C7C7C"/>
<circle cx="12.05" cy="12.5498" r="1.25" fill="#7C7C7C"/>
<circle cx="17.05" cy="12.5498" r="1.25" fill="#7C7C7C"/>
</svg>
