<svg width="90" height="89" viewBox="0 0 90 89" fill="none" xmlns="http://www.w3.org/2000/svg">
<path d="M7.91675 66.4759C7.91675 64.2236 8.49075 62.0085 9.58457 60.0396L32.524 18.7486C34.5574 15.0885 38.0954 12.5059 42.2011 11.6848V11.6848C44.0488 11.3153 45.9514 11.3153 47.7991 11.6848V11.6848C51.9048 12.5059 55.4428 15.0885 57.4762 18.7486L80.4156 60.0396C81.5094 62.0085 82.0834 64.2236 82.0834 66.4759V66.4759C82.0834 73.7955 76.1497 79.7292 68.8302 79.7292H21.17C13.8504 79.7292 7.91675 73.7955 7.91675 66.4759V66.4759Z" stroke="#F22626" stroke-width="5.5625"/>
<path d="M45 33.3752L45 48.2085" stroke="#F22626" stroke-width="5.5625" stroke-linecap="round" stroke-linejoin="round"/>
<path d="M45 59.3333L45 61.1875" stroke="#FF522C" stroke-width="5.5625" stroke-linecap="round" stroke-linejoin="round"/>
</svg>
