<svg width="36" height="36" viewBox="0 0 36 36" fill="none" xmlns="http://www.w3.org/2000/svg">
<path fill-rule="evenodd" clip-rule="evenodd" d="M34.125 25.5C34.125 30.2635 30.2635 34.125 25.5 34.125L10.5 34.125C5.73655 34.125 1.875 30.2635 1.875 25.5L1.875 10.5C1.875 5.73655 5.73655 1.875 10.5 1.875L25.5 1.875C30.2635 1.875 34.125 5.73655 34.125 10.5L34.125 25.5ZM21.9771 14.0221C21.5378 13.5828 20.8255 13.5828 20.3861 14.0221L17.9996 16.4086L15.6131 14.0221C15.1738 13.5828 14.4615 13.5828 14.0221 14.0221C13.5828 14.4615 13.5828 15.1738 14.0221 15.6131L16.4086 17.9996L14.0222 20.3861C13.5828 20.8254 13.5828 21.5377 14.0222 21.9771C14.4615 22.4164 15.1738 22.4164 15.6132 21.9771L17.9996 19.5906L20.3861 21.9771C20.8254 22.4164 21.5377 22.4164 21.9771 21.9771C22.4164 21.5377 22.4164 20.8254 21.9771 20.3861L19.5906 17.9996L21.9771 15.6131C22.4165 15.1738 22.4165 14.4615 21.9771 14.0221Z" fill="#6250EB"/>
</svg>
