<svg width="231" height="34" viewBox="0 0 231 34" fill="none" xmlns="http://www.w3.org/2000/svg">
<path d="M15.64 17.9V0.799998H19.78V26H16.54L4.66 8.9V26H0.52V0.799998H3.76L15.64 17.9ZM36.693 17.648V8H40.581V26H36.693V23.696C35.505 25.532 33.669 26.468 31.113 26.468C26.973 26.468 24.201 23.66 24.201 19.052V8H28.089V18.656C28.089 21.356 29.637 22.832 32.121 22.832C34.857 22.832 36.693 21.14 36.693 17.648ZM62.5154 18.656H48.1874C48.7634 21.392 50.9594 22.904 53.9474 22.904C55.9994 22.904 57.5474 22.148 58.5914 20.672L61.7954 22.544C60.0314 25.172 57.4034 26.468 53.9114 26.468C50.9954 26.468 48.6194 25.568 46.8194 23.804C45.0194 22.004 44.1194 19.736 44.1194 17C44.1194 14.3 45.0194 12.068 46.7834 10.268C48.5474 8.432 50.8514 7.532 53.6234 7.532C56.2514 7.532 58.4114 8.468 60.1034 10.304C61.7954 12.14 62.6594 14.408 62.6594 17.036C62.6594 17.432 62.6234 17.972 62.5154 18.656ZM48.1514 15.488H58.7354C58.1954 12.572 56.1434 11.06 53.5874 11.06C50.7074 11.06 48.6914 12.752 48.1514 15.488ZM72.5774 21.68L77.5814 8H81.8294L74.8094 26H70.3094L63.2894 8H67.5374L72.5774 21.68ZM92.0843 26.468C89.4563 26.468 87.1883 25.568 85.3523 23.732C83.5163 21.896 82.5803 19.664 82.5803 17C82.5803 14.336 83.5163 12.104 85.3523 10.268C87.1883 8.432 89.4563 7.532 92.0843 7.532C94.7483 7.532 96.9803 8.432 98.8163 10.268C100.652 12.104 101.588 14.336 101.588 17C101.588 19.664 100.652 21.896 98.8163 23.732C96.9803 25.568 94.7483 26.468 92.0843 26.468ZM88.0883 21.068C89.1683 22.148 90.5003 22.688 92.0843 22.688C93.6683 22.688 95.0003 22.148 96.0803 21.068C97.1603 19.988 97.7003 18.62 97.7003 17C97.7003 15.38 97.1603 14.012 96.0803 12.932C95.0003 11.852 93.6683 11.312 92.0843 11.312C90.5003 11.312 89.1683 11.852 88.0883 12.932C87.0083 14.012 86.4683 15.38 86.4683 17C86.4683 18.62 87.0083 19.988 88.0883 21.068ZM114.356 0.799998H123.644C126.02 0.799998 128 1.592 129.584 3.176C131.204 4.76 131.996 6.74 131.996 9.08C131.996 11.42 131.204 13.364 129.584 14.984C128 16.568 126.02 17.36 123.644 17.36H118.496V26H114.356V0.799998ZM118.496 13.472H123.644C126.092 13.472 127.856 11.636 127.856 9.08C127.856 6.524 126.092 4.688 123.644 4.688H118.496V13.472ZM138.875 8V11.024C139.847 8.792 141.719 7.676 144.419 7.676V11.888C142.943 11.78 141.647 12.14 140.531 12.968C139.415 13.76 138.875 15.092 138.875 16.928V26H134.987V8H138.875ZM154.944 26.468C152.316 26.468 150.048 25.568 148.212 23.732C146.376 21.896 145.44 19.664 145.44 17C145.44 14.336 146.376 12.104 148.212 10.268C150.048 8.432 152.316 7.532 154.944 7.532C157.608 7.532 159.84 8.432 161.676 10.268C163.512 12.104 164.448 14.336 164.448 17C164.448 19.664 163.512 21.896 161.676 23.732C159.84 25.568 157.608 26.468 154.944 26.468ZM150.948 21.068C152.028 22.148 153.36 22.688 154.944 22.688C156.528 22.688 157.86 22.148 158.94 21.068C160.02 19.988 160.56 18.62 160.56 17C160.56 15.38 160.02 14.012 158.94 12.932C157.86 11.852 156.528 11.312 154.944 11.312C153.36 11.312 152.028 11.852 150.948 12.932C149.868 14.012 149.328 15.38 149.328 17C149.328 18.62 149.868 19.988 150.948 21.068ZM187.619 7.532C191.687 7.532 194.423 10.376 194.423 14.84V26H190.535V15.092C190.535 12.608 189.203 11.168 187.043 11.168C184.631 11.168 183.119 12.752 183.119 15.92V26H179.231V15.092C179.231 12.608 178.007 11.168 175.847 11.168C173.507 11.168 171.851 12.788 171.851 15.92V26H167.963V8H171.851V10.16C173.003 8.396 174.731 7.532 176.999 7.532C179.303 7.532 180.995 8.468 182.111 10.376C183.299 8.468 185.135 7.532 187.619 7.532ZM208.772 7.532C211.256 7.532 213.344 8.468 215.108 10.304C216.872 12.14 217.736 14.372 217.736 17C217.736 19.664 216.872 21.896 215.108 23.732C213.344 25.568 211.256 26.468 208.772 26.468C206.036 26.468 203.948 25.46 202.472 23.444V33.2H198.584V8H202.472V10.592C203.948 8.54 206.036 7.532 208.772 7.532ZM204.092 21.14C205.172 22.22 206.54 22.76 208.16 22.76C209.78 22.76 211.148 22.22 212.228 21.14C213.308 20.024 213.848 18.656 213.848 17C213.848 15.344 213.308 13.976 212.228 12.896C211.148 11.78 209.78 11.24 208.16 11.24C206.54 11.24 205.172 11.78 204.092 12.896C203.012 13.976 202.472 15.344 202.472 17C202.472 18.656 203.012 20.024 204.092 21.14ZM230.953 8V11.744H226.489V20.384C226.489 22.688 228.001 22.652 230.953 22.508V26C225.013 26.72 222.601 25.1 222.601 20.384V11.744H219.289V8H222.601V4.112L226.489 2.96V8H230.953Z" fill="#292929"/>
</svg>
