<svg width="212" height="19" viewBox="0 0 212 19" fill="none" xmlns="http://www.w3.org/2000/svg">
<path d="M0.56 1.2H6.824C8.432 1.2 9.8 1.752 10.904 2.832C12.008 3.912 12.56 5.256 12.56 6.84C12.56 8.424 12.008 9.768 10.904 10.848C9.8 11.928 8.432 12.48 6.824 12.48H3.872V18H0.56V1.2ZM3.872 9.384H6.824C8.24 9.384 9.272 8.28 9.272 6.84C9.272 5.376 8.24 4.296 6.824 4.296H3.872V9.384ZM22.8954 7.416V6H25.9914V18H22.8954V16.584C21.9594 17.76 20.6634 18.336 18.9834 18.336C17.3754 18.336 16.0074 17.736 14.8554 16.512C13.7274 15.288 13.1514 13.776 13.1514 12C13.1514 10.224 13.7274 8.736 14.8554 7.512C16.0074 6.288 17.3754 5.664 18.9834 5.664C20.6634 5.664 21.9594 6.24 22.8954 7.416ZM17.1834 14.448C17.8074 15.072 18.5994 15.384 19.5594 15.384C20.5194 15.384 21.3114 15.072 21.9354 14.448C22.5834 13.8 22.8954 12.984 22.8954 12C22.8954 11.016 22.5834 10.2 21.9354 9.576C21.3114 8.928 20.5194 8.616 19.5594 8.616C18.5994 8.616 17.8074 8.928 17.1834 9.576C16.5594 10.2 16.2474 11.016 16.2474 12C16.2474 12.984 16.5594 13.8 17.1834 14.448ZM31.8948 6V8.064C32.4708 6.528 33.9108 5.76 35.5428 5.76V9.216C34.6068 9.096 33.7428 9.288 32.9988 9.792C32.2548 10.296 31.8948 11.112 31.8948 12.264V18H28.7988V6H31.8948ZM42.9082 1.2H46.6282L43.9642 4.488H40.9882L42.9082 1.2ZM46.0282 7.416V6H49.1242V18H46.0282V16.584C45.0922 17.76 43.7962 18.336 42.1162 18.336C40.5082 18.336 39.1402 17.736 37.9882 16.512C36.8602 15.288 36.2842 13.776 36.2842 12C36.2842 10.224 36.8602 8.736 37.9882 7.512C39.1402 6.288 40.5082 5.664 42.1162 5.664C43.7962 5.664 45.0922 6.24 46.0282 7.416ZM40.3162 14.448C40.9402 15.072 41.7322 15.384 42.6922 15.384C43.6522 15.384 44.4442 15.072 45.0682 14.448C45.7162 13.8 46.0282 12.984 46.0282 12C46.0282 11.016 45.7162 10.2 45.0682 9.576C44.4442 8.928 43.6522 8.616 42.6922 8.616C41.7322 8.616 40.9402 8.928 40.3162 9.576C39.6922 10.2 39.3802 11.016 39.3802 12C39.3802 12.984 39.6922 13.8 40.3162 14.448ZM65.2036 5.664C67.9636 5.664 69.7396 7.608 69.7396 10.608V18H66.6436V10.824C66.6436 9.384 65.8996 8.544 64.6276 8.544C63.2116 8.544 62.3956 9.504 62.3956 11.256V18H59.2996V10.824C59.2996 9.384 58.5556 8.544 57.2836 8.544C55.9156 8.544 55.0276 9.504 55.0276 11.256V18H51.9316V6H55.0276V7.272C55.7476 6.192 56.8516 5.664 58.3636 5.664C59.8276 5.664 60.9316 6.24 61.6276 7.392C62.4196 6.24 63.6196 5.664 65.2036 5.664ZM84.0331 13.272H74.9851C75.3931 14.784 76.5211 15.528 78.3691 15.528C79.5451 15.528 80.4571 15.12 81.0571 14.328L83.5531 15.768C82.3771 17.472 80.6251 18.336 78.3211 18.336C76.3291 18.336 74.7451 17.736 73.5451 16.536C72.3451 15.336 71.7451 13.824 71.7451 12C71.7451 10.2 72.3451 8.688 73.5211 7.488C74.6971 6.264 76.2331 5.664 78.0811 5.664C79.8331 5.664 81.2971 6.264 82.4251 7.488C83.5771 8.712 84.1531 10.2 84.1531 12C84.1531 12.408 84.1051 12.816 84.0331 13.272ZM74.9371 10.872H81.0571C80.6971 9.24 79.4971 8.448 78.0811 8.448C76.4251 8.448 75.2971 9.336 74.9371 10.872ZM92.8269 6V8.976H90.1149V13.968C90.1149 15.264 91.0509 15.288 92.8269 15.192V18C88.5789 18.48 87.0189 17.256 87.0189 13.968V8.976H84.9309V6H87.0189V3.576L90.1149 2.64V6H92.8269ZM98.2933 6V8.064C98.8693 6.528 100.309 5.76 101.941 5.76V9.216C101.005 9.096 100.141 9.288 99.3973 9.792C98.6533 10.296 98.2933 11.112 98.2933 12.264V18H95.1973V6H98.2933ZM113.531 16.512C112.307 17.736 110.795 18.336 109.019 18.336C107.243 18.336 105.731 17.736 104.507 16.512C103.283 15.288 102.683 13.776 102.683 12C102.683 10.224 103.283 8.736 104.507 7.512C105.731 6.288 107.243 5.664 109.019 5.664C110.795 5.664 112.307 6.288 113.531 7.512C114.755 8.736 115.379 10.224 115.379 12C115.379 13.776 114.755 15.288 113.531 16.512ZM106.691 14.376C107.315 15 108.083 15.312 109.019 15.312C109.955 15.312 110.723 15 111.347 14.376C111.971 13.752 112.283 12.96 112.283 12C112.283 11.04 111.971 10.248 111.347 9.624C110.723 9 109.955 8.688 109.019 8.688C108.083 8.688 107.315 9 106.691 9.624C106.091 10.248 105.779 11.04 105.779 12C105.779 12.96 106.091 13.752 106.691 14.376ZM120.155 9.408C120.155 10.056 121.115 10.416 122.339 10.728C124.091 11.088 126.371 11.928 126.347 14.496C126.347 15.72 125.891 16.68 124.955 17.352C124.043 18 122.891 18.336 121.523 18.336C119.051 18.336 117.371 17.376 116.483 15.48L119.171 13.968C119.531 15 120.299 15.528 121.523 15.528C122.627 15.528 123.179 15.192 123.179 14.496C123.179 13.848 122.219 13.488 120.995 13.176C119.219 12.72 116.987 11.976 116.987 9.48C116.987 8.304 117.419 7.368 118.283 6.696C119.171 6 120.251 5.664 121.547 5.664C123.491 5.664 125.171 6.576 126.107 8.208L123.467 9.648C123.083 8.832 122.435 8.424 121.547 8.424C120.755 8.424 120.155 8.808 120.155 9.408ZM143.551 7.416V1.2H146.647V18H143.551V16.584C142.639 17.76 141.343 18.336 139.663 18.336C138.055 18.336 136.663 17.736 135.511 16.512C134.383 15.288 133.807 13.776 133.807 12C133.807 10.224 134.383 8.736 135.511 7.512C136.663 6.288 138.055 5.664 139.663 5.664C141.343 5.664 142.639 6.24 143.551 7.416ZM137.839 14.448C138.487 15.072 139.279 15.384 140.239 15.384C141.199 15.384 141.991 15.072 142.615 14.448C143.239 13.8 143.551 12.984 143.551 12C143.551 11.016 143.239 10.2 142.615 9.576C141.991 8.928 141.199 8.616 140.239 8.616C139.279 8.616 138.487 8.928 137.839 9.576C137.215 10.2 136.903 11.016 136.903 12C136.903 12.984 137.215 13.8 137.839 14.448ZM161.143 13.272H152.095C152.503 14.784 153.631 15.528 155.479 15.528C156.655 15.528 157.567 15.12 158.167 14.328L160.663 15.768C159.487 17.472 157.735 18.336 155.431 18.336C153.439 18.336 151.855 17.736 150.655 16.536C149.455 15.336 148.854 13.824 148.854 12C148.854 10.2 149.455 8.688 150.631 7.488C151.807 6.264 153.343 5.664 155.191 5.664C156.943 5.664 158.407 6.264 159.535 7.488C160.687 8.712 161.263 10.2 161.263 12C161.263 12.408 161.215 12.816 161.143 13.272ZM152.047 10.872H158.167C157.807 9.24 156.607 8.448 155.191 8.448C153.535 8.448 152.407 9.336 152.047 10.872ZM166.52 18H163.424V0.48H166.52V18ZM182.338 5.664C183.946 5.664 185.338 6.288 186.466 7.512C187.618 8.736 188.194 10.224 188.194 12C188.194 13.776 187.618 15.288 186.466 16.512C185.338 17.736 183.946 18.336 182.338 18.336C180.658 18.336 179.362 17.76 178.45 16.584V18H175.354V1.2H178.45V7.416C179.362 6.24 180.658 5.664 182.338 5.664ZM179.386 14.448C180.01 15.072 180.802 15.384 181.762 15.384C182.722 15.384 183.514 15.072 184.138 14.448C184.786 13.8 185.098 12.984 185.098 12C185.098 11.016 184.786 10.2 184.138 9.576C183.514 8.928 182.722 8.616 181.762 8.616C180.802 8.616 180.01 8.928 179.386 9.576C178.762 10.2 178.45 11.016 178.45 12C178.45 12.984 178.762 13.8 179.386 14.448ZM200.601 16.512C199.377 17.736 197.865 18.336 196.089 18.336C194.313 18.336 192.801 17.736 191.577 16.512C190.353 15.288 189.753 13.776 189.753 12C189.753 10.224 190.353 8.736 191.577 7.512C192.801 6.288 194.313 5.664 196.089 5.664C197.865 5.664 199.377 6.288 200.601 7.512C201.825 8.736 202.449 10.224 202.449 12C202.449 13.776 201.825 15.288 200.601 16.512ZM193.761 14.376C194.385 15 195.153 15.312 196.089 15.312C197.025 15.312 197.793 15 198.417 14.376C199.041 13.752 199.353 12.96 199.353 12C199.353 11.04 199.041 10.248 198.417 9.624C197.793 9 197.025 8.688 196.089 8.688C195.153 8.688 194.385 9 193.761 9.624C193.161 10.248 192.849 11.04 192.849 12C192.849 12.96 193.161 13.752 193.761 14.376ZM211.233 6V8.976H208.521V13.968C208.521 15.264 209.457 15.288 211.233 15.192V18C206.985 18.48 205.425 17.256 205.425 13.968V8.976H203.337V6H205.425V3.576L208.521 2.64V6H211.233Z" fill="#292929"/>
</svg>
