<svg width="135" height="33" viewBox="0 0 135 33" fill="none" xmlns="http://www.w3.org/2000/svg">
<path d="M0.34 0.299998H9.736C12.148 0.299998 14.2 1.128 15.856 2.748C17.512 4.368 18.34 6.384 18.34 8.76C18.34 11.136 17.512 13.152 15.856 14.772C14.2 16.392 12.148 17.22 9.736 17.22H5.308V25.5H0.34V0.299998ZM5.308 12.576H9.736C11.86 12.576 13.408 10.92 13.408 8.76C13.408 6.564 11.86 4.944 9.736 4.944H5.308V12.576ZM25.6157 7.5V10.596C26.4797 8.292 28.6397 7.14 31.0877 7.14V12.324C29.6837 12.144 28.3877 12.432 27.2717 13.188C26.1557 13.944 25.6157 15.168 25.6157 16.896V25.5H20.9717V7.5H25.6157ZM48.4717 23.268C46.6357 25.104 44.3677 26.004 41.7037 26.004C39.0397 26.004 36.7717 25.104 34.9357 23.268C33.0997 21.432 32.1997 19.164 32.1997 16.5C32.1997 13.836 33.0997 11.604 34.9357 9.768C36.7717 7.932 39.0397 6.996 41.7037 6.996C44.3677 6.996 46.6357 7.932 48.4717 9.768C50.3077 11.604 51.2437 13.836 51.2437 16.5C51.2437 19.164 50.3077 21.432 48.4717 23.268ZM38.2117 20.064C39.1477 21 40.2997 21.468 41.7037 21.468C43.1077 21.468 44.2597 21 45.1957 20.064C46.1317 19.128 46.5997 17.94 46.5997 16.5C46.5997 15.06 46.1317 13.872 45.1957 12.936C44.2597 12 43.1077 11.532 41.7037 11.532C40.2997 11.532 39.1477 12 38.2117 12.936C37.3117 13.872 36.8437 15.06 36.8437 16.5C36.8437 17.94 37.3117 19.128 38.2117 20.064ZM74.4187 6.996C78.5587 6.996 81.2227 9.912 81.2227 14.412V25.5H76.5787V14.736C76.5787 12.576 75.4627 11.316 73.5547 11.316C71.4307 11.316 70.2067 12.756 70.2067 15.384V25.5H65.5627V14.736C65.5627 12.576 64.4467 11.316 62.5387 11.316C60.4867 11.316 59.1547 12.756 59.1547 15.384V25.5H54.5107V7.5H59.1547V9.408C60.2347 7.788 61.8907 6.996 64.1587 6.996C66.3547 6.996 68.0107 7.86 69.0547 9.588C70.2427 7.86 72.0427 6.996 74.4187 6.996ZM95.643 6.996C98.055 6.996 100.143 7.932 101.835 9.768C103.563 11.604 104.427 13.836 104.427 16.5C104.427 19.164 103.563 21.432 101.835 23.268C100.143 25.104 98.055 26.004 95.643 26.004C93.123 26.004 91.179 25.14 89.811 23.376V32.7H85.167V7.5H89.811V9.624C91.179 7.86 93.123 6.996 95.643 6.996ZM91.215 20.172C92.151 21.108 93.339 21.576 94.779 21.576C96.219 21.576 97.407 21.108 98.343 20.172C99.315 19.2 99.783 17.976 99.783 16.5C99.783 15.024 99.315 13.8 98.343 12.864C97.407 11.892 96.219 11.424 94.779 11.424C93.339 11.424 92.151 11.892 91.215 12.864C90.279 13.8 89.811 15.024 89.811 16.5C89.811 17.976 90.279 19.2 91.215 20.172ZM117.611 7.5V11.964H113.543V19.452C113.543 21.396 114.947 21.432 117.611 21.288V25.5C111.239 26.22 108.899 24.384 108.899 19.452V11.964H105.767V7.5H108.899V3.864L113.543 2.46V7.5H117.611ZM124.783 12.612C124.783 13.584 126.223 14.124 128.059 14.592C130.687 15.132 134.107 16.392 134.071 20.244C134.071 22.08 133.387 23.52 131.983 24.528C130.615 25.5 128.887 26.004 126.835 26.004C123.127 26.004 120.607 24.564 119.275 21.72L123.307 19.452C123.847 21 124.999 21.792 126.835 21.792C128.491 21.792 129.319 21.288 129.319 20.244C129.319 19.272 127.879 18.732 126.043 18.264C123.379 17.58 120.031 16.464 120.031 12.72C120.031 10.956 120.679 9.552 121.975 8.544C123.307 7.5 124.927 6.996 126.871 6.996C129.787 6.996 132.307 8.364 133.711 10.812L129.751 12.972C129.175 11.748 128.203 11.136 126.871 11.136C125.683 11.136 124.783 11.712 124.783 12.612Z" fill="#292929"/>
</svg>
