<svg width="311" height="23" viewBox="0 0 311 23" fill="none" xmlns="http://www.w3.org/2000/svg">
<path d="M7.296 18.336C3.96 18.336 1.632 16.752 0.696 14.184L3.528 12.528C4.176 14.232 5.472 15.096 7.392 15.096C9.24 15.096 10.08 14.352 10.08 13.32C10.08 12.72 9.816 12.264 9.288 11.952C8.76 11.616 7.824 11.256 6.456 10.872C4.944 10.416 4.032 10.056 2.976 9.312C1.944 8.544 1.392 7.392 1.392 5.856C1.392 4.344 1.92 3.12 3 2.232C4.08 1.32 5.4 0.863999 6.912 0.863999C9.624 0.863999 11.76 2.256 12.912 4.632L10.128 6.24C9.456 4.8 8.376 4.08 6.912 4.08C5.544 4.08 4.704 4.776 4.704 5.76C4.704 6.288 4.92 6.72 5.352 7.056C5.808 7.368 6.648 7.728 7.896 8.112L9.048 8.496C9.312 8.568 9.672 8.712 10.128 8.904C10.584 9.072 10.944 9.24 11.184 9.408C11.688 9.72 12.456 10.32 12.768 10.896C13.128 11.472 13.392 12.312 13.392 13.272C13.392 14.832 12.816 16.056 11.688 16.968C10.56 17.88 9.096 18.336 7.296 18.336ZM27.4003 13.272H18.3523C18.7603 14.784 19.8883 15.528 21.7363 15.528C22.9123 15.528 23.8243 15.12 24.4243 14.328L26.9203 15.768C25.7443 17.472 23.9923 18.336 21.6883 18.336C19.6963 18.336 18.1123 17.736 16.9123 16.536C15.7123 15.336 15.1123 13.824 15.1123 12C15.1123 10.2 15.7123 8.688 16.8883 7.488C18.0643 6.264 19.6003 5.664 21.4483 5.664C23.2003 5.664 24.6643 6.264 25.7923 7.488C26.9443 8.712 27.5203 10.2 27.5203 12C27.5203 12.408 27.4723 12.816 27.4003 13.272ZM18.3043 10.872H24.4243C24.0643 9.24 22.8643 8.448 21.4483 8.448C19.7923 8.448 18.6643 9.336 18.3043 10.872ZM32.7776 18H29.6816V0.48H32.7776V18ZM47.2753 13.272H38.2273C38.6353 14.784 39.7633 15.528 41.6113 15.528C42.7873 15.528 43.6993 15.12 44.2993 14.328L46.7953 15.768C45.6193 17.472 43.8673 18.336 41.5633 18.336C39.5713 18.336 37.9873 17.736 36.7873 16.536C35.5873 15.336 34.9873 13.824 34.9873 12C34.9873 10.2 35.5873 8.688 36.7633 7.488C37.9393 6.264 39.4753 5.664 41.3233 5.664C43.0753 5.664 44.5393 6.264 45.6673 7.488C46.8193 8.712 47.3953 10.2 47.3953 12C47.3953 12.408 47.3473 12.816 47.2753 13.272ZM38.1793 10.872H44.2993C43.9393 9.24 42.7393 8.448 41.3233 8.448C39.6673 8.448 38.5393 9.336 38.1793 10.872ZM55.1749 18.336C53.3749 18.336 51.8629 17.736 50.6389 16.512C49.4389 15.288 48.8389 13.8 48.8389 12C48.8389 10.2 49.4389 8.712 50.6389 7.488C51.8629 6.264 53.3749 5.664 55.1749 5.664C57.5029 5.664 59.5669 6.864 60.5509 8.76L57.8869 10.32C57.4069 9.336 56.3749 8.712 55.1509 8.712C53.3029 8.712 51.9349 10.08 51.9349 12C51.9349 12.936 52.2469 13.728 52.8469 14.352C53.4469 14.952 54.2149 15.264 55.1509 15.264C56.3989 15.264 57.4309 14.664 57.9109 13.68L60.5989 15.216C59.5429 17.112 57.5029 18.336 55.1749 18.336ZM69.1003 6V8.976H66.3883V13.968C66.3883 15.264 67.3243 15.288 69.1003 15.192V18C64.8523 18.48 63.2923 17.256 63.2923 13.968V8.976H61.2043V6H63.2923V3.576L66.3883 2.64V6H69.1003ZM81.1322 16.512C79.9082 17.736 78.3962 18.336 76.6202 18.336C74.8442 18.336 73.3322 17.736 72.1082 16.512C70.8842 15.288 70.2842 13.776 70.2842 12C70.2842 10.224 70.8842 8.736 72.1082 7.512C73.3322 6.288 74.8442 5.664 76.6202 5.664C78.3962 5.664 79.9082 6.288 81.1322 7.512C82.3562 8.736 82.9802 10.224 82.9802 12C82.9802 13.776 82.3562 15.288 81.1322 16.512ZM74.2922 14.376C74.9162 15 75.6842 15.312 76.6202 15.312C77.5562 15.312 78.3242 15 78.9482 14.376C79.5722 13.752 79.8842 12.96 79.8842 12C79.8842 11.04 79.5722 10.248 78.9482 9.624C78.3242 9 77.5562 8.688 76.6202 8.688C75.6842 8.688 74.9162 9 74.2922 9.624C73.6922 10.248 73.3802 11.04 73.3802 12C73.3802 12.96 73.6922 13.752 74.2922 14.376ZM88.2542 6V8.064C88.8302 6.528 90.2702 5.76 91.9022 5.76V9.216C90.9662 9.096 90.1022 9.288 89.3582 9.792C88.6142 10.296 88.2542 11.112 88.2542 12.264V18H85.1582V6H88.2542ZM108.809 7.416V1.2H111.905V18H108.809V16.584C107.897 17.76 106.601 18.336 104.921 18.336C103.313 18.336 101.921 17.736 100.769 16.512C99.6409 15.288 99.0649 13.776 99.0649 12C99.0649 10.224 99.6409 8.736 100.769 7.512C101.921 6.288 103.313 5.664 104.921 5.664C106.601 5.664 107.897 6.24 108.809 7.416ZM103.097 14.448C103.745 15.072 104.537 15.384 105.497 15.384C106.457 15.384 107.249 15.072 107.873 14.448C108.497 13.8 108.809 12.984 108.809 12C108.809 11.016 108.497 10.2 107.873 9.576C107.249 8.928 106.457 8.616 105.497 8.616C104.537 8.616 103.745 8.928 103.097 9.576C102.473 10.2 102.161 11.016 102.161 12C102.161 12.984 102.473 13.8 103.097 14.448ZM126.4 13.272H117.352C117.76 14.784 118.888 15.528 120.736 15.528C121.912 15.528 122.824 15.12 123.424 14.328L125.92 15.768C124.744 17.472 122.992 18.336 120.688 18.336C118.696 18.336 117.112 17.736 115.912 16.536C114.712 15.336 114.112 13.824 114.112 12C114.112 10.2 114.712 8.688 115.888 7.488C117.064 6.264 118.6 5.664 120.448 5.664C122.2 5.664 123.664 6.264 124.792 7.488C125.944 8.712 126.52 10.2 126.52 12C126.52 12.408 126.472 12.816 126.4 13.272ZM117.304 10.872H123.424C123.064 9.24 121.864 8.448 120.448 8.448C118.792 8.448 117.664 9.336 117.304 10.872ZM131.778 18H128.682V0.48H131.778V18ZM153.787 1.2H157.195V18H153.907V7.104L149.179 14.904H148.795L144.067 7.128V18H140.755V1.2H144.163L148.987 9.144L153.787 1.2ZM170.406 16.512C169.182 17.736 167.67 18.336 165.894 18.336C164.118 18.336 162.606 17.736 161.382 16.512C160.158 15.288 159.558 13.776 159.558 12C159.558 10.224 160.158 8.736 161.382 7.512C162.606 6.288 164.118 5.664 165.894 5.664C167.67 5.664 169.182 6.288 170.406 7.512C171.63 8.736 172.254 10.224 172.254 12C172.254 13.776 171.63 15.288 170.406 16.512ZM163.566 14.376C164.19 15 164.958 15.312 165.894 15.312C166.83 15.312 167.598 15 168.222 14.376C168.846 13.752 169.158 12.96 169.158 12C169.158 11.04 168.846 10.248 168.222 9.624C167.598 9 166.83 8.688 165.894 8.688C164.958 8.688 164.19 9 163.566 9.624C162.966 10.248 162.654 11.04 162.654 12C162.654 12.96 162.966 13.752 163.566 14.376ZM183.528 7.416V1.2H186.624V18H183.528V16.584C182.616 17.76 181.32 18.336 179.64 18.336C178.032 18.336 176.64 17.736 175.488 16.512C174.36 15.288 173.784 13.776 173.784 12C173.784 10.224 174.36 8.736 175.488 7.512C176.64 6.288 178.032 5.664 179.64 5.664C181.32 5.664 182.616 6.24 183.528 7.416ZM177.816 14.448C178.464 15.072 179.256 15.384 180.216 15.384C181.176 15.384 181.968 15.072 182.592 14.448C183.216 13.8 183.528 12.984 183.528 12C183.528 11.016 183.216 10.2 182.592 9.576C181.968 8.928 181.176 8.616 180.216 8.616C179.256 8.616 178.464 8.928 177.816 9.576C177.192 10.2 176.88 11.016 176.88 12C176.88 12.984 177.192 13.8 177.816 14.448ZM201.119 13.272H192.071C192.479 14.784 193.607 15.528 195.455 15.528C196.631 15.528 197.543 15.12 198.143 14.328L200.639 15.768C199.463 17.472 197.711 18.336 195.407 18.336C193.415 18.336 191.831 17.736 190.631 16.536C189.431 15.336 188.831 13.824 188.831 12C188.831 10.2 189.431 8.688 190.607 7.488C191.783 6.264 193.319 5.664 195.167 5.664C196.919 5.664 198.383 6.264 199.511 7.488C200.663 8.712 201.239 10.2 201.239 12C201.239 12.408 201.191 12.816 201.119 13.272ZM192.023 10.872H198.143C197.783 9.24 196.583 8.448 195.167 8.448C193.511 8.448 192.383 9.336 192.023 10.872ZM206.496 18H203.4V0.48H206.496V18ZM219.554 16.512C218.33 17.736 216.818 18.336 215.042 18.336C213.266 18.336 211.754 17.736 210.53 16.512C209.306 15.288 208.706 13.776 208.706 12C208.706 10.224 209.306 8.736 210.53 7.512C211.754 6.288 213.266 5.664 215.042 5.664C216.818 5.664 218.33 6.288 219.554 7.512C220.778 8.736 221.402 10.224 221.402 12C221.402 13.776 220.778 15.288 219.554 16.512ZM212.714 14.376C213.338 15 214.106 15.312 215.042 15.312C215.978 15.312 216.746 15 217.37 14.376C217.994 13.752 218.306 12.96 218.306 12C218.306 11.04 217.994 10.248 217.37 9.624C216.746 9 215.978 8.688 215.042 8.688C214.106 8.688 213.338 9 212.714 9.624C212.114 10.248 211.802 11.04 211.802 12C211.802 12.96 212.114 13.752 212.714 14.376ZM243.86 15.816C242.156 17.496 240.092 18.336 237.668 18.336C235.244 18.336 233.18 17.496 231.476 15.816C229.796 14.112 228.956 12.048 228.956 9.6C228.956 7.152 229.796 5.088 231.476 3.408C233.18 1.704 235.244 0.863999 237.668 0.863999C240.092 0.863999 242.156 1.704 243.86 3.408C245.564 5.088 246.404 7.152 246.404 9.6C246.404 12.048 245.564 14.112 243.86 15.816ZM233.804 13.56C234.836 14.592 236.132 15.096 237.668 15.096C239.204 15.096 240.5 14.592 241.532 13.56C242.564 12.528 243.092 11.208 243.092 9.6C243.092 7.992 242.564 6.672 241.532 5.64C240.5 4.608 239.204 4.08 237.668 4.08C236.132 4.08 234.836 4.608 233.804 5.64C232.772 6.672 232.244 7.992 232.244 9.6C232.244 11.208 232.772 12.528 233.804 13.56ZM255.572 5.664C257.18 5.664 258.572 6.288 259.7 7.512C260.852 8.736 261.428 10.224 261.428 12C261.428 13.776 260.852 15.288 259.7 16.512C258.572 17.736 257.18 18.336 255.572 18.336C253.892 18.336 252.596 17.76 251.684 16.584V22.8H248.588V6H251.684V7.416C252.596 6.24 253.892 5.664 255.572 5.664ZM252.62 14.448C253.244 15.072 254.036 15.384 254.996 15.384C255.956 15.384 256.748 15.072 257.372 14.448C258.02 13.8 258.332 12.984 258.332 12C258.332 11.016 258.02 10.2 257.372 9.576C256.748 8.928 255.956 8.616 254.996 8.616C254.036 8.616 253.244 8.928 252.62 9.576C251.996 10.2 251.684 11.016 251.684 12C251.684 12.984 251.996 13.8 252.62 14.448ZM275.275 13.272H266.227C266.635 14.784 267.763 15.528 269.611 15.528C270.787 15.528 271.699 15.12 272.299 14.328L274.795 15.768C273.619 17.472 271.867 18.336 269.563 18.336C267.571 18.336 265.987 17.736 264.787 16.536C263.587 15.336 262.987 13.824 262.987 12C262.987 10.2 263.587 8.688 264.763 7.488C265.939 6.264 267.475 5.664 269.323 5.664C271.075 5.664 272.539 6.264 273.667 7.488C274.819 8.712 275.395 10.2 275.395 12C275.395 12.408 275.347 12.816 275.275 13.272ZM266.179 10.872H272.299C271.939 9.24 270.739 8.448 269.323 8.448C267.667 8.448 266.539 9.336 266.179 10.872ZM284.229 5.664C285.549 5.664 286.629 6.096 287.469 6.984C288.333 7.872 288.765 9.072 288.765 10.632V18H285.669V11.016C285.669 9.408 284.733 8.544 283.293 8.544C281.685 8.544 280.653 9.528 280.653 11.52V18H277.557V6H280.653V7.344C281.397 6.216 282.597 5.664 284.229 5.664ZM305.952 18H302.352L301.344 14.976H294.648L293.64 18H290.064L295.944 1.2H300.048L305.952 18ZM298.008 5.016L295.704 11.88H300.312L298.008 5.016ZM308.975 4.56C307.943 4.56 307.079 3.696 307.079 2.664C307.079 1.632 307.943 0.743999 308.975 0.743999C310.031 0.743999 310.895 1.632 310.895 2.664C310.895 3.696 310.031 4.56 308.975 4.56ZM310.535 18H307.439V6H310.535V18Z" fill="#292929"/>
</svg>
