<svg width="22" height="23" viewBox="0 0 22 23" fill="none" xmlns="http://www.w3.org/2000/svg">
<circle cx="3" cy="3" r="3" transform="matrix(-1 0 0 1 14 8.5)" stroke="#7C7C7C" stroke-width="1.5"/>
<path d="M15.5001 4.4375L15.8751 3.78798L15.8751 3.78798L15.5001 4.4375ZM15.5 18.5621L15.125 17.9126L15.5 18.5621ZM6.49998 18.5621L6.12498 19.2117H6.12498L6.49998 18.5621ZM6.49999 4.4375L6.87499 5.08702L6.49999 4.4375ZM7.92293 2.51508L7.19223 2.34601L7.92293 2.51508ZM4.31183 18.2402L4.13965 17.5102L4.31183 18.2402ZM3.40294 18.003L3.97248 17.515L3.40294 18.003ZM8.53921 21.195L8.72319 20.4679L8.53921 21.195ZM7.92298 20.4848L8.6537 20.3158L7.92298 20.4848ZM14.077 20.4848L13.3463 20.3158L14.077 20.4848ZM13.4608 21.195L13.6448 21.922L13.4608 21.195ZM18.597 18.003L18.0274 17.515L18.597 18.003ZM20.4437 8.20289L21.1517 7.95569L20.4437 8.20289ZM20.0935 9.18352L19.6166 8.60469L20.0935 9.18352ZM17.6879 4.7595L17.5158 4.02952L17.6879 4.7595ZM20.0935 13.8165L19.6166 14.3953L20.0935 13.8165ZM20.4437 14.7971L19.7356 14.5499L20.4437 14.7971ZM14.0771 2.51511L13.3464 2.68418L14.0771 2.51511ZM13.3464 2.68418C13.5722 3.66005 14.1878 4.54592 15.1251 5.08702L15.8751 3.78798C15.3127 3.46329 14.9438 2.93381 14.8078 2.34603L13.3464 2.68418ZM15.1251 5.08702C15.986 5.58408 16.9638 5.7008 17.8601 5.48949L17.5158 4.02952C16.9767 4.15663 16.3921 4.0865 15.8751 3.78798L15.1251 5.08702ZM21.1517 7.95569C20.7062 6.67937 20.0271 5.51337 19.1662 4.50871L18.0272 5.48471C18.7687 6.35004 19.3527 7.35328 19.7356 8.45008L21.1517 7.95569ZM19.7499 11.5C19.7499 10.8006 20.0681 10.1762 20.5704 9.76236L19.6166 8.60469C18.7833 9.29128 18.2499 10.3337 18.2499 11.5H19.7499ZM20.5704 13.2376C20.0681 12.8238 19.7499 12.1994 19.7499 11.5H18.2499C18.2499 12.6663 18.7833 13.7087 19.6166 14.3953L20.5704 13.2376ZM19.1665 18.491C20.0272 17.4864 20.7062 16.3205 21.1517 15.0443L19.7356 14.5499C19.3527 15.6466 18.7688 16.6497 18.0274 17.515L19.1665 18.491ZM15.875 19.2117C16.3921 18.9131 16.9767 18.843 17.5159 18.9702L17.8603 17.5102C16.9639 17.2988 15.986 17.4155 15.125 17.9126L15.875 19.2117ZM14.8077 20.6538C14.9437 20.066 15.3126 19.5364 15.875 19.2117L15.125 17.9126C14.1877 18.4538 13.572 19.3398 13.3463 20.3158L14.8077 20.6538ZM10.9999 22.25C11.9117 22.25 12.7979 22.1363 13.6448 21.922L13.2768 20.4679C12.5492 20.652 11.7866 20.75 10.9999 20.75V22.25ZM8.35524 21.9221C9.2021 22.1363 10.0883 22.25 10.9999 22.25V20.75C10.2134 20.75 9.45075 20.652 8.72319 20.4679L8.35524 21.9221ZM6.12498 19.2117C6.68743 19.5364 7.05631 20.066 7.19227 20.6538L8.6537 20.3158C8.42796 19.3398 7.81232 18.4538 6.87498 17.9126L6.12498 19.2117ZM4.484 18.9702C5.02321 18.843 5.60787 18.9131 6.12498 19.2117L6.87498 17.9126C6.01395 17.4155 5.036 17.2988 4.13965 17.5102L4.484 18.9702ZM0.848157 15.0443C1.29368 16.3205 1.97267 17.4864 2.8334 18.491L3.97248 17.515C3.23112 16.6498 2.6472 15.6466 2.26434 14.5499L0.848157 15.0443ZM2.24998 11.5C2.24998 12.1994 1.93179 12.8238 1.42947 13.2376L2.3833 14.3953C3.21662 13.7087 3.74998 12.6663 3.74998 11.5H2.24998ZM1.42947 9.76235C1.93179 10.1762 2.24998 10.8006 2.24998 11.5H3.74998C3.74998 10.3337 3.21662 9.29126 2.3833 8.60468L1.42947 9.76235ZM2.83369 4.50867C1.97282 5.51334 1.29373 6.67934 0.848159 7.95567L2.26434 8.45007C2.64724 7.35326 3.23125 6.35001 3.97273 5.48468L2.83369 4.50867ZM6.12499 3.78798C5.60792 4.08651 5.02331 4.15664 4.48414 4.0295L4.13987 5.48946C5.03617 5.70081 6.01403 5.5841 6.87499 5.08702L6.12499 3.78798ZM7.19223 2.34601C7.05623 2.93379 6.68737 3.46329 6.12499 3.78798L6.87499 5.08702C7.81221 4.54591 8.42782 3.66003 8.65362 2.68415L7.19223 2.34601ZM10.9999 0.75C10.0883 0.75 9.20204 0.86366 8.35515 1.07796L8.72312 2.53213C9.4507 2.34802 10.2133 2.25 10.9999 2.25V0.75ZM13.6449 1.078C12.798 0.863676 11.9117 0.75 10.9999 0.75V2.25C11.7866 2.25 12.5493 2.34803 13.2769 2.53217L13.6449 1.078ZM8.65362 2.68415C8.66923 2.61668 8.69568 2.56909 8.7162 2.54413C8.73383 2.52269 8.73697 2.52862 8.72312 2.53213L8.35515 1.07796C7.66395 1.25286 7.30705 1.8498 7.19223 2.34601L8.65362 2.68415ZM2.3833 8.60468C2.32242 8.55451 2.28703 8.50024 2.27283 8.46394C2.26089 8.43341 2.26968 8.43478 2.26434 8.45007L0.848159 7.95567C0.582145 8.71766 0.9943 9.4038 1.42947 9.76235L2.3833 8.60468ZM4.13965 17.5102C4.07242 17.5261 4.01815 17.5235 3.98668 17.5162C3.95963 17.5099 3.96335 17.5044 3.97248 17.515L2.8334 18.491C3.29646 19.0314 3.98843 19.0871 4.484 18.9702L4.13965 17.5102ZM8.72319 20.4679C8.73704 20.4714 8.7339 20.4773 8.71627 20.4559C8.69575 20.4309 8.6693 20.3833 8.6537 20.3158L7.19227 20.6538C7.30705 21.1501 7.66396 21.7471 8.35524 21.9221L8.72319 20.4679ZM13.3463 20.3158C13.3307 20.3833 13.3042 20.4309 13.2837 20.4559C13.2661 20.4773 13.263 20.4714 13.2768 20.4679L13.6448 21.922C14.336 21.7471 14.6929 21.1501 14.8077 20.6538L13.3463 20.3158ZM18.0274 17.515C18.0366 17.5043 18.0403 17.5098 18.0132 17.5161C17.9818 17.5235 17.9275 17.5261 17.8603 17.5102L17.5159 18.9702C18.0115 19.087 18.7035 19.0314 19.1665 18.491L18.0274 17.515ZM19.7356 8.45008C19.7302 8.43479 19.739 8.43343 19.7271 8.46395C19.7129 8.50025 19.6775 8.55452 19.6166 8.60469L20.5704 9.76236C21.0056 9.40381 21.4178 8.71767 21.1517 7.95569L19.7356 8.45008ZM2.26434 14.5499C2.26968 14.5652 2.26089 14.5666 2.27283 14.5361C2.28702 14.4998 2.32242 14.4455 2.3833 14.3953L1.42947 13.2376C0.994299 13.5962 0.582144 14.2823 0.848157 15.0443L2.26434 14.5499ZM17.8601 5.48949C17.9273 5.47364 17.9815 5.47624 18.013 5.48357C18.04 5.48987 18.0363 5.49537 18.0272 5.48471L19.1662 4.50871C18.7032 3.96835 18.0114 3.91269 17.5158 4.02952L17.8601 5.48949ZM3.97273 5.48468C3.9636 5.49534 3.95988 5.48984 3.98693 5.48354C4.01839 5.47621 4.07265 5.47361 4.13987 5.48946L4.48414 4.0295C3.98861 3.91265 3.29672 3.9683 2.83369 4.50867L3.97273 5.48468ZM19.6166 14.3953C19.6775 14.4455 19.7129 14.4997 19.7271 14.536C19.739 14.5666 19.7302 14.5652 19.7356 14.5499L21.1517 15.0443C21.4178 14.2823 21.0056 13.5962 20.5704 13.2376L19.6166 14.3953ZM14.8078 2.34603C14.693 1.84983 14.3361 1.25292 13.6449 1.078L13.2769 2.53217C13.2631 2.52866 13.2662 2.52273 13.2838 2.54417C13.3044 2.56913 13.3308 2.61672 13.3464 2.68418L14.8078 2.34603Z" fill="#7C7C7C"/>
</svg>
