<svg width="177" height="27" viewBox="0 0 177 27" fill="none" xmlns="http://www.w3.org/2000/svg">
<path d="M9.944 27.004C4.94 27.004 1.448 24.628 0.044 20.776L4.292 18.292C5.264 20.848 7.208 22.144 10.088 22.144C12.86 22.144 14.12 21.028 14.12 19.48C14.12 18.58 13.724 17.896 12.932 17.428C12.14 16.924 10.736 16.384 8.684 15.808C6.416 15.124 5.048 14.584 3.464 13.468C1.916 12.316 1.088 10.588 1.088 8.284C1.088 6.016 1.88 4.18 3.5 2.848C5.12 1.48 7.1 0.795998 9.368 0.795998C13.436 0.795998 16.64 2.884 18.368 6.448L14.192 8.86C13.184 6.7 11.564 5.62 9.368 5.62C7.316 5.62 6.056 6.664 6.056 8.14C6.056 8.932 6.38 9.58 7.028 10.084C7.712 10.552 8.972 11.092 10.844 11.668L12.572 12.244C12.968 12.352 13.508 12.568 14.192 12.856C14.876 13.108 15.416 13.36 15.776 13.612C16.532 14.08 17.684 14.98 18.152 15.844C18.692 16.708 19.088 17.968 19.088 19.408C19.088 21.748 18.224 23.584 16.532 24.952C14.84 26.32 12.644 27.004 9.944 27.004ZM33.9923 18.22V8.5H38.6363V26.5H33.9923V24.484C32.8763 26.176 31.0763 27.004 28.6283 27.004C26.6483 27.004 25.0283 26.356 23.7323 25.024C22.4723 23.692 21.8243 21.892 21.8243 19.552V8.5H26.4683V18.976C26.4683 21.388 27.8723 22.684 30.0323 22.684C32.4443 22.684 33.9923 21.208 33.9923 18.22ZM51.4576 27.004C48.7576 27.004 46.4896 26.104 44.6536 24.268C42.8536 22.432 41.9536 20.2 41.9536 17.5C41.9536 14.8 42.8536 12.568 44.6536 10.732C46.4896 8.896 48.7576 7.996 51.4576 7.996C54.9496 7.996 58.0456 9.796 59.5216 12.64L55.5256 14.98C54.8056 13.504 53.2576 12.568 51.4216 12.568C48.6496 12.568 46.5976 14.62 46.5976 17.5C46.5976 18.904 47.0656 20.092 47.9656 21.028C48.8656 21.928 50.0176 22.396 51.4216 22.396C53.2936 22.396 54.8416 21.496 55.5616 20.02L59.5936 22.324C58.0096 25.168 54.9496 27.004 51.4576 27.004ZM74.0704 18.22V8.5H78.7144V26.5H74.0704V24.484C72.9544 26.176 71.1544 27.004 68.7064 27.004C66.7264 27.004 65.1064 26.356 63.8104 25.024C62.5504 23.692 61.9024 21.892 61.9024 19.552V8.5H66.5464V18.976C66.5464 21.388 67.9504 22.684 70.1104 22.684C72.5224 22.684 74.0704 21.208 74.0704 18.22ZM87.6118 8.5V11.596C88.4758 9.292 90.6358 8.14 93.0838 8.14V13.324C91.6798 13.144 90.3838 13.432 89.2678 14.188C88.1518 14.944 87.6118 16.168 87.6118 17.896V26.5H82.9678V8.5H87.6118ZM99.5213 13.612C99.5213 14.584 100.961 15.124 102.797 15.592C105.425 16.132 108.845 17.392 108.809 21.244C108.809 23.08 108.125 24.52 106.721 25.528C105.353 26.5 103.625 27.004 101.573 27.004C97.8653 27.004 95.3453 25.564 94.0133 22.72L98.0453 20.452C98.5853 22 99.7373 22.792 101.573 22.792C103.229 22.792 104.057 22.288 104.057 21.244C104.057 20.272 102.617 19.732 100.781 19.264C98.1173 18.58 94.7693 17.464 94.7693 13.72C94.7693 11.956 95.4173 10.552 96.7133 9.544C98.0453 8.5 99.6653 7.996 101.609 7.996C104.525 7.996 107.045 9.364 108.449 11.812L104.489 13.972C103.913 12.748 102.941 12.136 101.609 12.136C100.421 12.136 99.5213 12.712 99.5213 13.612ZM125.23 10.624V8.5H129.874V26.5H125.23V24.376C123.826 26.14 121.882 27.004 119.362 27.004C116.95 27.004 114.898 26.104 113.17 24.268C111.478 22.432 110.614 20.164 110.614 17.5C110.614 14.836 111.478 12.604 113.17 10.768C114.898 8.932 116.95 7.996 119.362 7.996C121.882 7.996 123.826 8.86 125.23 10.624ZM116.662 21.172C117.598 22.108 118.786 22.576 120.226 22.576C121.666 22.576 122.854 22.108 123.79 21.172C124.762 20.2 125.23 18.976 125.23 17.5C125.23 16.024 124.762 14.8 123.79 13.864C122.854 12.892 121.666 12.424 120.226 12.424C118.786 12.424 117.598 12.892 116.662 13.864C115.726 14.8 115.258 16.024 115.258 17.5C115.258 18.976 115.726 20.2 116.662 21.172ZM138.729 26.5H134.085V0.219999H138.729V26.5ZM160.475 19.408H146.903C147.515 21.676 149.207 22.792 151.979 22.792C153.743 22.792 155.111 22.18 156.011 20.992L159.755 23.152C157.991 25.708 155.363 27.004 151.907 27.004C148.919 27.004 146.543 26.104 144.743 24.304C142.943 22.504 142.043 20.236 142.043 17.5C142.043 14.8 142.943 12.532 144.707 10.732C146.471 8.896 148.775 7.996 151.547 7.996C154.175 7.996 156.371 8.896 158.063 10.732C159.791 12.568 160.655 14.8 160.655 17.5C160.655 18.112 160.583 18.724 160.475 19.408ZM146.831 15.808H156.011C155.471 13.36 153.671 12.172 151.547 12.172C149.063 12.172 147.371 13.504 146.831 15.808ZM167.478 13.612C167.478 14.584 168.918 15.124 170.754 15.592C173.382 16.132 176.802 17.392 176.766 21.244C176.766 23.08 176.082 24.52 174.678 25.528C173.31 26.5 171.582 27.004 169.53 27.004C165.822 27.004 163.302 25.564 161.97 22.72L166.002 20.452C166.542 22 167.694 22.792 169.53 22.792C171.186 22.792 172.014 22.288 172.014 21.244C172.014 20.272 170.574 19.732 168.738 19.264C166.074 18.58 162.726 17.464 162.726 13.72C162.726 11.956 163.374 10.552 164.67 9.544C166.002 8.5 167.622 7.996 169.566 7.996C172.482 7.996 175.002 9.364 176.406 11.812L172.446 13.972C171.87 12.748 170.898 12.136 169.566 12.136C168.378 12.136 167.478 12.712 167.478 13.612Z" fill="#292929"/>
</svg>
