<svg width="102" height="24" viewBox="0 0 102 24" fill="none" xmlns="http://www.w3.org/2000/svg">
<path d="M0.36 1.2H12.6V3.84H7.872V18H5.112V3.84H0.36V1.2ZM23.9087 13.104H14.3567C14.7407 14.928 16.2047 15.936 18.1967 15.936C19.5647 15.936 20.5967 15.432 21.2927 14.448L23.4287 15.696C22.2527 17.448 20.5007 18.312 18.1727 18.312C16.2287 18.312 14.6447 17.712 13.4447 16.536C12.2447 15.336 11.6447 13.824 11.6447 12C11.6447 10.2 12.2447 8.712 13.4207 7.512C14.5967 6.288 16.1327 5.688 17.9807 5.688C19.7327 5.688 21.1727 6.312 22.3007 7.536C23.4287 8.76 24.0047 10.272 24.0047 12.024C24.0047 12.288 23.9807 12.648 23.9087 13.104ZM14.3327 10.992H21.3887C21.0287 9.048 19.6607 8.04 17.9567 8.04C16.0367 8.04 14.6927 9.168 14.3327 10.992ZM28.8774 18H26.2854V0.48H28.8774V18ZM43.479 13.104H33.927C34.311 14.928 35.775 15.936 37.767 15.936C39.135 15.936 40.167 15.432 40.863 14.448L42.999 15.696C41.823 17.448 40.071 18.312 37.743 18.312C35.799 18.312 34.215 17.712 33.015 16.536C31.815 15.336 31.215 13.824 31.215 12C31.215 10.2 31.815 8.712 32.991 7.512C34.167 6.288 35.703 5.688 37.551 5.688C39.303 5.688 40.743 6.312 41.871 7.536C42.999 8.76 43.575 10.272 43.575 12.024C43.575 12.288 43.551 12.648 43.479 13.104ZM33.903 10.992H40.959C40.599 9.048 39.231 8.04 37.527 8.04C35.607 8.04 34.263 9.168 33.903 10.992ZM55.3374 7.776V6H57.8814V17.448C57.8814 19.272 57.2814 20.664 56.0814 21.648C54.8814 22.632 53.4174 23.112 51.7134 23.112C48.9534 23.112 47.0574 22.152 46.0254 20.208L48.2574 18.912C48.8814 20.136 50.0574 20.76 51.7614 20.76C53.9934 20.76 55.3374 19.536 55.3374 17.448V15.984C54.3534 17.376 52.9614 18.072 51.1614 18.072C49.4574 18.072 48.0414 17.472 46.8654 16.272C45.6894 15.048 45.1134 13.584 45.1134 11.88C45.1134 10.176 45.6894 8.712 46.8654 7.512C48.0414 6.288 49.4574 5.688 51.1614 5.688C52.9614 5.688 54.3534 6.384 55.3374 7.776ZM48.7854 14.568C49.5294 15.288 50.4414 15.648 51.5214 15.648C52.6014 15.648 53.5134 15.288 54.2334 14.568C54.9774 13.848 55.3374 12.96 55.3374 11.88C55.3374 10.8 54.9774 9.912 54.2334 9.192C53.5134 8.472 52.6014 8.112 51.5214 8.112C50.4414 8.112 49.5294 8.472 48.7854 9.192C48.0654 9.912 47.7054 10.8 47.7054 11.88C47.7054 12.96 48.0654 13.848 48.7854 14.568ZM63.4946 6V8.016C64.1426 6.528 65.3906 5.784 67.1906 5.784V8.592C66.2066 8.52 65.3426 8.76 64.5986 9.312C63.8546 9.84 63.4946 10.728 63.4946 11.952V18H60.9026V6H63.4946ZM78.0473 7.704V6H80.6393V18H78.0473V16.272C77.0633 17.64 75.6713 18.312 73.8473 18.312C72.1913 18.312 70.7993 17.712 69.6233 16.488C68.4473 15.264 67.8713 13.752 67.8713 12C67.8713 10.224 68.4473 8.736 69.6233 7.512C70.7993 6.288 72.1913 5.688 73.8473 5.688C75.6713 5.688 77.0633 6.36 78.0473 7.704ZM71.5433 14.76C72.2633 15.48 73.1753 15.84 74.2553 15.84C75.3353 15.84 76.2473 15.48 76.9673 14.76C77.6873 14.016 78.0473 13.104 78.0473 12C78.0473 10.896 77.6873 9.984 76.9673 9.264C76.2473 8.52 75.3353 8.16 74.2553 8.16C73.1753 8.16 72.2633 8.52 71.5433 9.264C70.8233 9.984 70.4633 10.896 70.4633 12C70.4633 13.104 70.8233 14.016 71.5433 14.76ZM96.7644 5.688C99.4764 5.688 101.3 7.584 101.3 10.56V18H98.7084V10.728C98.7084 9.072 97.8204 8.112 96.3804 8.112C94.7724 8.112 93.7644 9.168 93.7644 11.28V18H91.1724V10.728C91.1724 9.072 90.3564 8.112 88.9164 8.112C87.3564 8.112 86.2524 9.192 86.2524 11.28V18H83.6604V6H86.2524V7.44C87.0204 6.264 88.1724 5.688 89.6844 5.688C91.2204 5.688 92.3484 6.312 93.0924 7.584C93.8844 6.312 95.1084 5.688 96.7644 5.688Z" fill="#292929"/>
</svg>
