<svg width="44" height="44" viewBox="0 0 44 44" fill="none" xmlns="http://www.w3.org/2000/svg">
<path d="M22 0C16.1652 0 10.5695 2.31785 6.44365 6.44365C2.31785 10.5695 0 16.1652 0 22C0 27.8348 2.31785 33.4305 6.44365 37.5564C10.5695 41.6822 16.1652 44 22 44C27.8348 44 33.4305 41.6822 37.5564 37.5564C41.6822 33.4305 44 27.8348 44 22C44 16.1652 41.6822 10.5695 37.5564 6.44365C33.4305 2.31785 27.8348 0 22 0Z" fill="#29B6F6"/>
<path d="M32.9446 12.1L28.824 33.1386C28.824 33.1386 28.6469 34.1 27.4545 34.1C26.8209 34.1 26.4942 33.7986 26.4942 33.7986L17.5688 26.3923L13.2018 24.1912L7.59731 22.7007C7.59731 22.7007 6.59961 22.4125 6.59961 21.5875C6.59961 20.9 7.62591 20.5722 7.62591 20.5722L31.0735 11.2574C31.0735 11.2574 31.7896 10.9989 32.3121 11C32.6333 11 32.9996 11.1375 32.9996 11.55C32.9996 11.825 32.9446 12.1 32.9446 12.1Z" fill="white"/>
<path d="M20.9001 29.1558L17.1315 32.8672C17.1315 32.8672 16.9676 32.9937 16.7487 32.9992C16.6728 33.0014 16.5914 32.9893 16.5078 32.9519L17.5682 26.3904L20.9001 29.1558Z" fill="#B0BEC5"/>
<path d="M28.4869 15.6155C28.301 15.3735 27.9578 15.3295 27.7158 15.5132L13.2002 24.1999C13.2002 24.1999 15.5168 30.6811 15.8699 31.8031C16.2241 32.9262 16.5079 32.9526 16.5079 32.9526L17.5683 26.3911L28.3835 16.3855C28.6255 16.2018 28.6706 15.8575 28.4869 15.6155Z" fill="#CFD8DC"/>
</svg>
