<svg width="22" height="17" viewBox="0 0 22 17" fill="none" xmlns="http://www.w3.org/2000/svg">
<circle cx="3.40426" cy="3.40426" r="3.40426" transform="matrix(-1 0 0 1 14.6172 1.5)" stroke="#7C7C7C" stroke-width="1.5"/>
<path d="M5.25537 13.3594C5.25537 12.6272 5.71567 11.974 6.40524 11.7277V11.7277C9.51413 10.6174 12.9115 10.6174 16.0204 11.7277V11.7277C16.71 11.974 17.1703 12.6272 17.1703 13.3594V14.479C17.1703 15.4896 16.2752 16.2659 15.2748 16.1229L14.9412 16.0753C12.4682 15.722 9.95746 15.722 7.48442 16.0753L7.15087 16.1229C6.15044 16.2659 5.25537 15.4896 5.25537 14.479V13.3594Z" stroke="#7C7C7C" stroke-width="1.5"/>
<path d="M16.3194 8.40264C17.7966 8.40264 18.9941 7.20511 18.9941 5.72787C18.9941 4.25064 17.7966 3.0531 16.3194 3.0531" stroke="#7C7C7C" stroke-width="1.5" stroke-linecap="round"/>
<path d="M19.2486 14.5051L19.5106 14.5425C20.2967 14.6548 21 14.0448 21 13.2508V12.3711C21 11.7958 20.6383 11.2826 20.0965 11.0891C19.5561 10.8961 19.0045 10.7458 18.4468 10.6382" stroke="#7C7C7C" stroke-width="1.5" stroke-linecap="round"/>
<path d="M5.68063 8.40264C4.2034 8.40264 3.00586 7.20511 3.00586 5.72787C3.00586 4.25064 4.2034 3.0531 5.68063 3.0531" stroke="#7C7C7C" stroke-width="1.5" stroke-linecap="round"/>
<path d="M2.75143 14.5051L2.48935 14.5425C1.7033 14.6548 1.00003 14.0448 1.00003 13.2508V12.3711C1.00003 11.7958 1.3617 11.2826 1.9035 11.0891C2.44395 10.8961 2.99549 10.7458 3.55322 10.6382" stroke="#7C7C7C" stroke-width="1.5" stroke-linecap="round"/>
</svg>
