<svg width="117" height="23" viewBox="0 0 117 23" fill="none" xmlns="http://www.w3.org/2000/svg">
<path d="M8.424 17.5H5.232L0.48 0.699999H3.384L6.912 13.828L10.728 0.699999H13.272L17.064 13.828L20.592 0.699999H23.496L18.744 17.5H15.552L12 5.236L8.424 17.5ZM31.3318 5.188C34.0918 5.188 35.9398 7.06 35.9398 10.132V17.5H33.3478V10.396C33.3478 8.596 32.3158 7.612 30.6598 7.612C28.8358 7.612 27.6118 8.74 27.6118 11.068V17.5H25.0198V0.699999H27.6118V7.036C28.4038 5.812 29.6278 5.188 31.3318 5.188ZM48.2348 7.204V5.5H50.8268V17.5H48.2348V15.772C47.2508 17.14 45.8588 17.812 44.0348 17.812C42.3788 17.812 40.9868 17.212 39.8108 15.988C38.6348 14.764 38.0588 13.252 38.0588 11.5C38.0588 9.724 38.6348 8.236 39.8108 7.012C40.9868 5.788 42.3788 5.188 44.0348 5.188C45.8588 5.188 47.2508 5.86 48.2348 7.204ZM41.7308 14.26C42.4508 14.98 43.3628 15.34 44.4428 15.34C45.5228 15.34 46.4348 14.98 47.1548 14.26C47.8748 13.516 48.2348 12.604 48.2348 11.5C48.2348 10.396 47.8748 9.484 47.1548 8.764C46.4348 8.02 45.5228 7.66 44.4428 7.66C43.3628 7.66 42.4508 8.02 41.7308 8.764C41.0108 9.484 40.6508 10.396 40.6508 11.5C40.6508 12.604 41.0108 13.516 41.7308 14.26ZM60.5439 5.5V7.996H57.5679V13.756C57.5679 15.292 58.5759 15.268 60.5439 15.172V17.5C56.5839 17.98 54.9759 16.9 54.9759 13.756V7.996H52.7679V5.5H54.9759V2.908L57.5679 2.14V5.5H60.5439ZM64.7775 8.812C64.7775 9.604 65.7855 10.012 67.0335 10.372C68.8815 10.78 71.2815 11.548 71.2335 14.116C71.2335 15.268 70.7775 16.18 69.8895 16.828C69.0015 17.476 67.8975 17.812 66.5535 17.812C64.1775 17.812 62.4255 16.756 61.6575 15.004L63.8895 13.708C64.2975 14.86 65.1855 15.436 66.5535 15.436C67.9215 15.436 68.5935 14.98 68.5935 14.092C68.5935 13.324 67.5855 12.868 66.3135 12.556C64.5135 12.1 62.0895 11.38 62.1375 8.86C62.1375 7.756 62.5455 6.868 63.3855 6.196C64.2255 5.524 65.2815 5.188 66.5295 5.188C68.5215 5.188 70.1295 6.124 70.9695 7.684L68.7855 8.908C68.3775 7.996 67.6095 7.54 66.5295 7.54C65.5455 7.54 64.7775 7.972 64.7775 8.812ZM82.7113 7.204V5.5H85.3033V17.5H82.7113V15.772C81.7273 17.14 80.3353 17.812 78.5113 17.812C76.8553 17.812 75.4633 17.212 74.2873 15.988C73.1113 14.764 72.5353 13.252 72.5353 11.5C72.5353 9.724 73.1113 8.236 74.2873 7.012C75.4633 5.788 76.8553 5.188 78.5113 5.188C80.3353 5.188 81.7273 5.86 82.7113 7.204ZM76.2073 14.26C76.9273 14.98 77.8393 15.34 78.9193 15.34C79.9993 15.34 80.9113 14.98 81.6313 14.26C82.3513 13.516 82.7113 12.604 82.7113 11.5C82.7113 10.396 82.3513 9.484 81.6313 8.764C80.9113 8.02 79.9993 7.66 78.9193 7.66C77.8393 7.66 76.9273 8.02 76.2073 8.764C75.4873 9.484 75.1273 10.396 75.1273 11.5C75.1273 12.604 75.4873 13.516 76.2073 14.26ZM95.1165 5.188C96.7725 5.188 98.1645 5.812 99.3405 7.036C100.517 8.26 101.093 9.748 101.093 11.5C101.093 13.276 100.517 14.764 99.3405 15.988C98.1645 17.212 96.7725 17.812 95.1165 17.812C93.2925 17.812 91.9005 17.14 90.9165 15.796V22.3H88.3245V5.5H90.9165V7.228C91.9005 5.86 93.2925 5.188 95.1165 5.188ZM91.9965 14.26C92.7165 14.98 93.6285 15.34 94.7085 15.34C95.7885 15.34 96.7005 14.98 97.4205 14.26C98.1405 13.516 98.5005 12.604 98.5005 11.5C98.5005 10.396 98.1405 9.484 97.4205 8.764C96.7005 8.02 95.7885 7.66 94.7085 7.66C93.6285 7.66 92.7165 8.02 91.9965 8.764C91.2765 9.484 90.9165 10.396 90.9165 11.5C90.9165 12.604 91.2765 13.516 91.9965 14.26ZM110.234 5.188C111.89 5.188 113.282 5.812 114.458 7.036C115.634 8.26 116.21 9.748 116.21 11.5C116.21 13.276 115.634 14.764 114.458 15.988C113.282 17.212 111.89 17.812 110.234 17.812C108.41 17.812 107.018 17.14 106.034 15.796V22.3H103.442V5.5H106.034V7.228C107.018 5.86 108.41 5.188 110.234 5.188ZM107.114 14.26C107.834 14.98 108.746 15.34 109.826 15.34C110.906 15.34 111.818 14.98 112.538 14.26C113.258 13.516 113.618 12.604 113.618 11.5C113.618 10.396 113.258 9.484 112.538 8.764C111.818 8.02 110.906 7.66 109.826 7.66C108.746 7.66 107.834 8.02 107.114 8.764C106.394 9.484 106.034 10.396 106.034 11.5C106.034 12.604 106.394 13.516 107.114 14.26Z" fill="#292929"/>
</svg>
