<svg width="181" height="43" viewBox="0 0 181 43" fill="none" xmlns="http://www.w3.org/2000/svg">
<path fill-rule="evenodd" clip-rule="evenodd" d="M36.7352 6.24852C34.7475 4.25984 32.386 2.68396 29.7868 1.61159C27.1876 0.53922 24.4019 -0.00845257 21.5902 9.86114e-05C9.79016 9.86114e-05 0.184285 9.55798 0.179486 21.3081C0.174266 25.0496 1.16051 28.7256 3.03783 31.9621L0 43L11.3499 40.037C14.4916 41.739 18.0085 42.6298 21.5816 42.6285H21.5902C33.3893 42.6285 42.9942 33.0697 42.9999 21.3206C43.0071 18.5184 42.4569 15.7428 41.3814 13.1553C40.3059 10.5678 38.7265 8.21999 36.7352 6.24852ZM21.5902 39.0321H21.5825C18.3972 39.033 15.2699 38.1806 12.5257 36.5635L11.8759 36.1795L5.1408 37.9379L6.93854 31.4025L6.51526 30.7306C4.7342 27.9109 3.79057 24.6432 3.79417 21.3081C3.79417 11.5438 11.7808 3.59942 21.5969 3.59942C26.3058 3.59101 30.8252 5.45334 34.161 8.7768C37.4969 12.1003 39.3761 16.6127 39.3853 21.3215C39.3814 31.0867 31.3986 39.0321 21.5902 39.0321ZM31.3506 25.7684C30.816 25.5015 28.1832 24.2135 27.6956 24.0359C27.208 23.8583 26.8481 23.7691 26.492 24.3027C26.1359 24.8364 25.1098 26.0304 24.7979 26.3903C24.486 26.7503 24.174 26.7896 23.6394 26.5228C23.1048 26.256 21.38 25.6945 19.3365 23.8804C17.7461 22.4685 16.673 20.7255 16.3611 20.1928C16.0492 19.6601 16.3275 19.3712 16.5953 19.1063C16.8362 18.8673 17.1299 18.4843 17.3977 18.1733C17.6655 17.8623 17.7547 17.6397 17.9323 17.2845C18.1099 16.9294 18.0216 16.6184 17.8882 16.3525C17.7547 16.0867 16.6845 13.4654 16.2392 12.399C15.8044 11.3605 15.3638 11.5016 15.0356 11.4853C14.7236 11.4699 14.3637 11.4661 14.0095 11.4661C13.7388 11.4731 13.4724 11.5359 13.227 11.6505C12.9816 11.7652 12.7624 11.9291 12.5832 12.1322C12.0928 12.6659 10.7106 13.9559 10.7106 16.5743C10.7106 19.1926 12.6303 21.7266 12.8952 22.0817C13.1601 22.4368 16.6673 27.8147 22.0336 30.1211C23.0301 30.5479 24.0483 30.9221 25.0839 31.2422C26.3653 31.6473 27.5315 31.5906 28.4529 31.4534C29.4809 31.3008 31.6203 30.1653 32.0647 28.9214C32.5091 27.6774 32.5101 26.612 32.3766 26.3903C32.2432 26.1686 31.8862 26.0342 31.3506 25.7684Z" fill="#41CC59"/>
<path d="M71.424 28.5H68.232L63.48 11.7H66.384L69.912 24.828L73.728 11.7H76.272L80.064 24.828L83.592 11.7H86.496L81.744 28.5H78.552L75 16.236L71.424 28.5ZM94.3318 16.188C97.0918 16.188 98.9398 18.06 98.9398 21.132V28.5H96.3478V21.396C96.3478 19.596 95.3158 18.612 93.6598 18.612C91.8358 18.612 90.6118 19.74 90.6118 22.068V28.5H88.0198V11.7H90.6118V18.036C91.4038 16.812 92.6278 16.188 94.3318 16.188ZM111.235 18.204V16.5H113.827V28.5H111.235V26.772C110.251 28.14 108.859 28.812 107.035 28.812C105.379 28.812 103.987 28.212 102.811 26.988C101.635 25.764 101.059 24.252 101.059 22.5C101.059 20.724 101.635 19.236 102.811 18.012C103.987 16.788 105.379 16.188 107.035 16.188C108.859 16.188 110.251 16.86 111.235 18.204ZM104.731 25.26C105.451 25.98 106.363 26.34 107.443 26.34C108.523 26.34 109.435 25.98 110.155 25.26C110.875 24.516 111.235 23.604 111.235 22.5C111.235 21.396 110.875 20.484 110.155 19.764C109.435 19.02 108.523 18.66 107.443 18.66C106.363 18.66 105.451 19.02 104.731 19.764C104.011 20.484 103.651 21.396 103.651 22.5C103.651 23.604 104.011 24.516 104.731 25.26ZM123.544 16.5V18.996H120.568V24.756C120.568 26.292 121.576 26.268 123.544 26.172V28.5C119.584 28.98 117.976 27.9 117.976 24.756V18.996H115.768V16.5H117.976V13.908L120.568 13.14V16.5H123.544ZM127.778 19.812C127.778 20.604 128.786 21.012 130.034 21.372C131.882 21.78 134.282 22.548 134.234 25.116C134.234 26.268 133.778 27.18 132.89 27.828C132.002 28.476 130.898 28.812 129.554 28.812C127.178 28.812 125.426 27.756 124.658 26.004L126.89 24.708C127.298 25.86 128.186 26.436 129.554 26.436C130.922 26.436 131.594 25.98 131.594 25.092C131.594 24.324 130.586 23.868 129.314 23.556C127.514 23.1 125.09 22.38 125.138 19.86C125.138 18.756 125.546 17.868 126.386 17.196C127.226 16.524 128.282 16.188 129.53 16.188C131.522 16.188 133.13 17.124 133.97 18.684L131.786 19.908C131.378 18.996 130.61 18.54 129.53 18.54C128.546 18.54 127.778 18.972 127.778 19.812ZM145.711 18.204V16.5H148.303V28.5H145.711V26.772C144.727 28.14 143.335 28.812 141.511 28.812C139.855 28.812 138.463 28.212 137.287 26.988C136.111 25.764 135.535 24.252 135.535 22.5C135.535 20.724 136.111 19.236 137.287 18.012C138.463 16.788 139.855 16.188 141.511 16.188C143.335 16.188 144.727 16.86 145.711 18.204ZM139.207 25.26C139.927 25.98 140.839 26.34 141.919 26.34C142.999 26.34 143.911 25.98 144.631 25.26C145.351 24.516 145.711 23.604 145.711 22.5C145.711 21.396 145.351 20.484 144.631 19.764C143.911 19.02 142.999 18.66 141.919 18.66C140.839 18.66 139.927 19.02 139.207 19.764C138.487 20.484 138.127 21.396 138.127 22.5C138.127 23.604 138.487 24.516 139.207 25.26ZM158.117 16.188C159.773 16.188 161.165 16.812 162.341 18.036C163.517 19.26 164.093 20.748 164.093 22.5C164.093 24.276 163.517 25.764 162.341 26.988C161.165 28.212 159.773 28.812 158.117 28.812C156.293 28.812 154.901 28.14 153.917 26.796V33.3H151.325V16.5H153.917V18.228C154.901 16.86 156.293 16.188 158.117 16.188ZM154.997 25.26C155.717 25.98 156.629 26.34 157.709 26.34C158.789 26.34 159.701 25.98 160.421 25.26C161.141 24.516 161.501 23.604 161.501 22.5C161.501 21.396 161.141 20.484 160.421 19.764C159.701 19.02 158.789 18.66 157.709 18.66C156.629 18.66 155.717 19.02 154.997 19.764C154.277 20.484 153.917 21.396 153.917 22.5C153.917 23.604 154.277 24.516 154.997 25.26ZM173.234 16.188C174.89 16.188 176.282 16.812 177.458 18.036C178.634 19.26 179.21 20.748 179.21 22.5C179.21 24.276 178.634 25.764 177.458 26.988C176.282 28.212 174.89 28.812 173.234 28.812C171.41 28.812 170.018 28.14 169.034 26.796V33.3H166.442V16.5H169.034V18.228C170.018 16.86 171.41 16.188 173.234 16.188ZM170.114 25.26C170.834 25.98 171.746 26.34 172.826 26.34C173.906 26.34 174.818 25.98 175.538 25.26C176.258 24.516 176.618 23.604 176.618 22.5C176.618 21.396 176.258 20.484 175.538 19.764C174.818 19.02 173.906 18.66 172.826 18.66C171.746 18.66 170.834 19.02 170.114 19.764C169.394 20.484 169.034 21.396 169.034 22.5C169.034 23.604 169.394 24.516 170.114 25.26Z" fill="#292929"/>
</svg>
